<svg xmlns="http://www.w3.org/2000/svg" width="492" height="42" viewBox="0 0 492 42">
  <g fill="#FFF">
    <path d="M6.726,11.76 C5.034,9.945 3.342,8.14 1.651,6.344 C1.59858832,8.00211487 1.58191778,9.66116674 1.601,11.32 L1.621,12.59 C1.629,13.034 1.638,13.48 1.651,13.937 C1.664,14.393 1.678,14.815 1.691,15.207 C1.703,15.597 1.716,15.937 1.731,16.231 C1.743,16.525 1.755,16.724 1.769,16.828 C1.30162199,16.772838 0.829378011,16.772838 0.362,16.828 C0.389,16.698 0.419,16.455 0.452,16.105 C0.485,15.752 0.512,15.333 0.539,14.845 L0.627,13.255 C0.690647362,12.123564 0.732988197,10.99103 0.754,9.858 C0.768,9.312 0.774,8.824 0.774,8.395 C0.774,7.145 0.774,6.072 0.766,5.173 C0.764412147,4.5020434 0.747741269,3.83120727 0.716,3.161 L1.028,3.161 C1.823,4.021 2.672,4.943 3.576,5.925 C5.3116607,7.80607961 7.05567794,9.67943147 8.808,11.545 C9.49580461,12.2816965 10.1948871,13.0077822 10.905,13.723 L10.905,11.068 C10.905,9.702 10.895,8.372 10.877,7.078 C10.8602488,5.85724654 10.8179061,4.63697842 10.75,3.418 C11.01,3.482 11.23,3.514 11.414,3.514 C11.569,3.514 11.779,3.482 12.039,3.417 C12.0017122,3.84642038 11.9723738,4.27649401 11.951,4.707 C11.916,5.277 11.885,5.89 11.853,6.539 C11.819,7.191 11.79,7.829 11.765,8.452 C11.738,9.078 11.725,9.579 11.725,9.956 L11.725,11.126 C11.725,11.569 11.729,12.033 11.735,12.513 C11.742,12.995 11.747,13.48 11.755,13.968 C11.76,14.456 11.767,14.912 11.775,15.334 C11.781,15.76 11.785,16.124 11.785,16.439 L11.785,17.082 L11.51,17.082 C9.94750302,15.2806559 8.35257588,13.5076996 6.726,11.764 L6.726,11.76 Z M15.755,5.945 C15.722,5.115 15.685,4.275 15.647,3.417 C15.817,3.441 15.979,3.467 16.134,3.484 C16.445284,3.5255836 16.760716,3.5255836 17.072,3.484 C17.229,3.466 17.392,3.441 17.562,3.417 C17.522,4.275 17.486,5.117 17.452,5.945 C17.42,6.771 17.404,7.613 17.404,8.471 L17.404,11.829 C17.404,12.689 17.42,13.536 17.454,14.367 C17.486,15.2 17.522,16.02 17.561,16.827 C17.261,16.801 16.944,16.787 16.605,16.787 C16.265,16.787 15.948,16.801 15.647,16.827 C15.687,16.019 15.722,15.2 15.755,14.367 C15.785,13.537 15.802,12.69 15.802,11.829 L15.802,8.47 C15.804,7.613 15.788,6.77 15.757,5.945 L15.755,5.945 Z M21.28,5.913 C21.245,5.083 21.21,4.249 21.17,3.416 C21.756,3.44 22.338,3.466 22.918,3.483 C23.498,3.503 24.078,3.513 24.666,3.513 C25.251,3.513 25.83,3.503 26.402,3.483 C26.975,3.465 27.554,3.44 28.14,3.416 C28.0605105,3.80194963 28.0605105,4.20005037 28.14,4.586 C27.7591655,4.5625188 27.3784905,4.53651823 26.998,4.508 C26.652,4.483 26.288,4.456 25.905,4.431 C24.9400258,4.35951918 23.9726059,4.32615987 23.005,4.331 C22.992,4.751 22.977,5.148 22.955,5.525 C22.937,5.902 22.928,6.331 22.928,6.812 C22.928,7.322 22.931,7.815 22.938,8.296 C22.944,8.779 22.948,9.143 22.948,9.391 C23.8784662,9.39328185 24.8088189,9.36993967 25.738,9.321 C26.114,9.301 26.465,9.281 26.782,9.261 C27.1,9.241 27.402,9.221 27.69,9.193 C27.6117885,9.58581139 27.6117885,9.99018861 27.69,10.383 C27.35,10.343 26.96,10.313 26.51,10.286 C26.06,10.261 25.61,10.246 25.16,10.238 L23.892,10.218 C23.496,10.211 23.182,10.208 22.946,10.208 C22.946,10.323 22.943,10.452 22.936,10.588 C22.93,10.725 22.926,10.898 22.926,11.105 L22.926,13.037 C22.926,13.779 22.93,14.391 22.936,14.872 C22.943,15.355 22.953,15.719 22.966,15.964 L24.332,15.964 C25.2669637,15.9629596 26.2015806,15.9279365 27.134,15.859 C27.556,15.825 27.924,15.777 28.236,15.712 C28.207947,15.8107883 28.1911734,15.9124362 28.186,16.015 C28.18,16.125 28.176,16.225 28.176,16.317 C28.176,16.525 28.198,16.694 28.236,16.825 C27.6537186,16.7982229 27.0708968,16.784886 26.488,16.785 L22.946,16.785 C22.361,16.785 21.768,16.798 21.169,16.825 C21.207,15.992 21.243,15.16 21.277,14.335 C21.307,13.508 21.324,12.665 21.324,11.808 L21.324,8.448 C21.3258584,7.60277549 21.3105219,6.75760064 21.278,5.913 L21.28,5.913 Z M31.136,5.945 C31.103,5.115 31.066,4.275 31.028,3.417 C31.522,3.441 32.015,3.467 32.502,3.484 C32.99,3.504 33.482,3.514 33.976,3.514 C34.47,3.514 34.962,3.498 35.45,3.467 C35.938,3.433 36.428,3.417 36.924,3.417 C38.069,3.417 39.049,3.567 39.862,3.867 C40.675,4.164 41.342,4.591 41.862,5.144 C42.382,5.697 42.762,6.374 43.005,7.174 C43.245,7.974 43.365,8.876 43.365,9.878 C43.365,11.178 43.14,12.276 42.691,13.168 C42.245,14.06 41.671,14.778 40.975,15.324 C40.2934938,15.8633974 39.5097079,16.2590323 38.671,16.487 C37.8860056,16.7053031 37.0757502,16.819613 36.261,16.827 C35.818,16.827 35.383,16.821 34.953,16.807 C34.523,16.793 34.088,16.787 33.645,16.787 L32.338,16.787 C31.908,16.787 31.471,16.8 31.028,16.827 C31.068,16.017 31.104,15.199 31.138,14.367 C31.168,13.535 31.185,12.689 31.185,11.827 L31.185,8.472 C31.185,7.615 31.169,6.772 31.137,5.947 L31.136,5.945 Z M32.903,15.965 C33.176,16.032 33.546,16.082 34.015,16.113 C34.485,16.147 34.965,16.163 35.46,16.163 C36.175,16.163 36.89,16.077 37.607,15.908 C38.3141767,15.7444663 38.9731504,15.4173769 39.531,14.953 C40.096,14.483 40.559,13.843 40.917,13.029 C41.275,12.215 41.453,11.164 41.453,9.876 C41.453,8.743 41.313,7.813 41.033,7.084 C40.753,6.357 40.37,5.781 39.883,5.357 C39.380501,4.92754157 38.7813989,4.62627486 38.137,4.479 C37.4071939,4.31031341 36.6600185,4.22841279 35.911,4.235 C34.9058765,4.23709075 33.9018848,4.30255395 32.905,4.431 C32.865,5.055 32.835,5.709 32.817,6.391 C32.797,7.075 32.787,7.768 32.787,8.471 L32.787,11.827 C32.7852484,13.2071845 32.8242654,14.5871195 32.904,15.965 L32.903,15.965 Z M46.42,5.913 C46.39,5.083 46.353,4.249 46.314,3.416 C46.9,3.44 47.482,3.466 48.06,3.483 C48.64,3.503 49.223,3.513 49.808,3.513 C50.394,3.513 50.973,3.503 51.546,3.483 C52.118,3.465 52.698,3.44 53.283,3.416 C53.245,3.61 53.223,3.806 53.223,4 C53.223,4.197 53.245,4.39 53.283,4.587 C52.9028322,4.56278097 52.5228243,4.53611375 52.143,4.507 L51.048,4.431 C50.0830254,4.35952644 49.1156058,4.32616715 48.148,4.331 C48.138,4.751 48.12,5.148 48.101,5.525 C48.081,5.902 48.074,6.331 48.074,6.812 C48.074,7.322 48.076,7.815 48.084,8.296 C48.09,8.779 48.094,9.143 48.094,9.391 C48.666,9.391 49.179,9.383 49.634,9.369 C50.091,9.356 50.506,9.339 50.884,9.319 C51.262,9.301 51.61,9.281 51.927,9.261 C52.245,9.241 52.549,9.221 52.835,9.193 C52.7567361,9.58580622 52.7567361,9.99019378 52.835,10.383 C52.498,10.343 52.105,10.313 51.655,10.286 C51.2060331,10.2609816 50.7566093,10.2449784 50.307,10.238 L49.039,10.218 C48.7233612,10.212408 48.4076865,10.2090746 48.092,10.208 C48.092,10.323 48.089,10.452 48.082,10.588 C48.075,10.725 48.072,10.898 48.072,11.105 L48.072,13.037 C48.072,13.779 48.075,14.391 48.082,14.872 C48.089,15.355 48.098,15.719 48.112,15.964 L49.477,15.964 C50.4119777,15.9636959 51.3466217,15.9286718 52.279,15.859 C52.6489835,15.8324808 53.0170019,15.7833894 53.381,15.712 C53.356,15.802 53.338,15.904 53.333,16.015 C53.326,16.125 53.323,16.225 53.323,16.317 C53.323,16.525 53.343,16.694 53.383,16.825 C52.8007183,16.7982311 52.2178967,16.7848942 51.635,16.785 L48.093,16.785 C47.507,16.785 46.913,16.798 46.316,16.825 C46.356,15.992 46.392,15.16 46.423,14.335 C46.4558112,13.4930699 46.4718144,12.6505688 46.471,11.808 L46.471,8.448 C46.471,7.593 46.454,6.746 46.421,5.913 L46.42,5.913 Z M56.277,5.945 C56.247,5.115 56.21,4.275 56.17,3.417 C56.548,3.441 56.92,3.467 57.283,3.484 C57.647,3.504 58.018,3.514 58.395,3.514 C58.773,3.514 59.145,3.498 59.508,3.467 C59.872,3.433 60.243,3.417 60.62,3.417 C61.1449897,3.41487585 61.6687865,3.467155 62.183,3.573 C62.678,3.677 63.109,3.851 63.481,4.09 C63.851,4.332 64.146,4.648 64.361,5.036 C64.574,5.426 64.681,5.914 64.681,6.501 C64.681,7.127 64.541,7.661 64.261,8.111 C63.983,8.561 63.639,8.931 63.238,9.225 C62.8404882,9.51425047 62.4033164,9.74462451 61.94,9.909 C61.5315732,10.0569336 61.1095202,10.1641217 60.68,10.229 C60.835,10.426 61.05,10.699 61.322,11.049 C61.596,11.401 61.902,11.789 62.242,12.212 C62.578,12.635 62.929,13.077 63.295,13.542 C63.658,14.004 64.01,14.446 64.347,14.868 C64.687,15.29 65.007,15.676 65.305,16.028 C65.605,16.381 65.845,16.648 66.028,16.831 C65.8341965,16.8035771 65.6387333,16.7895439 65.443,16.789 L64.291,16.789 C64.1016087,16.7884658 63.9124337,16.801835 63.725,16.829 C63.531,16.557 63.235,16.145 62.835,15.599 C62.4049578,15.0075033 61.9665807,14.4221116 61.52,13.843 C61.036,13.218 60.546,12.597 60.044,11.978 C59.544,11.36 59.084,10.836 58.668,10.408 L57.928,10.408 L57.928,11.831 C57.928,12.691 57.944,13.538 57.976,14.369 C58.009,15.202 58.046,16.022 58.083,16.829 C57.783,16.803 57.463,16.789 57.126,16.789 C56.788,16.789 56.469,16.803 56.169,16.829 C56.209,16.021 56.244,15.202 56.275,14.369 C56.309,13.539 56.325,12.692 56.325,11.831 L56.325,8.473 C56.325,7.613 56.31,6.771 56.275,5.945 L56.277,5.945 Z M58.523,9.663 C58.738,9.675 58.976,9.683 59.235,9.683 C59.6585893,9.68070646 60.0808163,9.63479764 60.495,9.546 C60.931,9.454 61.33,9.296 61.695,9.066 C62.0635479,8.83422425 62.3738744,8.52081841 62.602,8.15 C62.842,7.764 62.962,7.28 62.962,6.694 C62.962,6.188 62.869,5.769 62.679,5.437 C62.5030106,5.11795935 62.2517217,4.84675956 61.947,4.647 C61.6506271,4.45201667 61.3196729,4.31556173 60.972,4.245 C60.6313017,4.17587161 60.2846381,4.1403679 59.937,4.139 C59.482,4.139 59.104,4.147 58.805,4.167 C58.505,4.185 58.252,4.207 58.045,4.234 C58.017,4.95 57.992,5.659 57.965,6.361 C57.939,7.065 57.925,7.768 57.925,8.469 L57.925,9.582 C58.108,9.622 58.307,9.648 58.522,9.662 L58.523,9.663 Z M68.34,15 C68.516,15.242 68.732,15.46 68.986,15.655 C69.5658333,16.0965695 70.2772615,16.3304251 71.006,16.319 C71.436,16.319 71.821,16.245 72.166,16.096 C72.512,15.944 72.804,15.743 73.046,15.488 C73.2894849,15.2295954 73.4785609,14.9248973 73.602,14.592 C73.7333391,14.2388506 73.7994124,13.864774 73.797,13.488 C73.797,12.888 73.644,12.416 73.339,12.063 C73.0175501,11.7000428 72.6295615,11.4020078 72.196,11.185 C71.74,10.951 71.25,10.735 70.721,10.542 C70.2050396,10.3514168 69.711175,10.105658 69.248,9.809 C68.7934653,9.51804958 68.4045347,9.1355898 68.106,8.686 C67.799,8.229 67.646,7.62 67.646,6.853 C67.646,6.303 67.746,5.808 67.939,5.358 C68.135,4.908 68.419,4.522 68.789,4.198 C69.161,3.872 69.606,3.616 70.129,3.433 C70.6946765,3.24474259 71.2878674,3.15246845 71.884,3.16 C72.509,3.16 73.048,3.237 73.504,3.386 C73.959,3.536 74.382,3.766 74.772,4.079 C74.656,4.301 74.558,4.537 74.48,4.782 C74.402,5.032 74.324,5.342 74.246,5.719 L74.012,5.719 C73.9370163,5.51497514 73.8491735,5.31590923 73.749,5.123 C73.6333977,4.90144481 73.4812651,4.7009679 73.299,4.53 C73.1010086,4.34083023 72.8733167,4.18543224 72.625,4.07 C72.3301508,3.93992694 72.0101599,3.87674837 71.688,3.885 C71.324,3.885 70.988,3.945 70.683,4.061 C70.3855211,4.1723719 70.1134655,4.34240667 69.883,4.561 C69.6543145,4.77725746 69.4743202,5.03974918 69.355,5.331 C69.231,5.631 69.17,5.957 69.17,6.307 C69.17,6.919 69.322,7.402 69.628,7.752 C69.934,8.105 70.314,8.402 70.77,8.642 C71.225,8.882 71.716,9.098 72.243,9.285 C72.7556953,9.4667537 73.2491083,9.69888897 73.716,9.978 C74.1660879,10.2457369 74.5551068,10.6047788 74.858,11.032 C75.164,11.462 75.318,12.035 75.318,12.75 C75.318,13.35 75.21,13.915 74.996,14.448 C74.7852345,14.9740068 74.4659608,15.4496802 74.059,15.844 C73.649,16.241 73.149,16.546 72.557,16.764 C71.964,16.974 71.29,17.084 70.537,17.084 C69.729,17.084 69.077,16.974 68.574,16.764 C68.074,16.546 67.654,16.302 67.314,16.029 C67.4203813,15.7671014 67.5023949,15.4959543 67.559,15.219 C67.606,14.979 67.647,14.669 67.687,14.292 L67.919,14.292 C68.024,14.522 68.166,14.762 68.339,15.002 L68.34,15 Z M84.124,5.613 C84.487,6.489 84.857,7.379 85.236,8.277 C86.2452352,10.6809788 87.2762777,13.0757442 88.329,15.461 C88.595,16.061 88.812,16.514 88.982,16.828 C88.8108804,16.80201 88.6380809,16.7886406 88.465,16.788 L87.428,16.788 C87.2552544,16.7887254 87.0827936,16.8020945 86.912,16.828 C86.822,16.528 86.697,16.166 86.542,15.744 C86.376726,15.2984852 86.2040353,14.855757 86.024,14.416 L85.448,13.009 C85.252,12.535 85.068,12.084 84.902,11.653 L83.632,11.623 C83.202,11.619 82.772,11.615 82.344,11.615 C81.94,11.615 81.544,11.619 81.154,11.625 C80.762,11.633 80.364,11.642 79.962,11.653 C79.5682219,12.6124955 79.1908337,13.578636 78.83,14.551 C78.492,15.471 78.237,16.226 78.068,16.827 C77.848,16.8 77.608,16.787 77.348,16.787 C77.085,16.787 76.846,16.8 76.625,16.827 C77.6686357,14.5694635 78.6966603,12.3047427 79.709,10.033 C80.711,7.783 81.719,5.491 82.735,3.161 L83.105,3.161 C83.418,3.918 83.755,4.733 84.123,5.614 L84.124,5.613 Z M80.18,0.29 C80.3637028,0.101446447 80.6167746,-0.0033976095 80.88,3.70810696e-16 C81.156,3.70810696e-16 81.39,0.097 81.586,0.29 C81.7758153,0.475478829 81.8813454,0.730630353 81.878,0.996 C81.8814259,1.26021396 81.7757968,1.51415788 81.586,1.698 C81.4018188,1.88923403 81.1464697,1.99535781 80.881,1.991 C80.6173857,1.99434963 80.3640896,1.88868895 80.181,1.699 C79.9908354,1.51532871 79.8848354,1.26136281 79.888,0.997 C79.8849291,0.731976182 79.9904376,0.477238096 80.18,0.292 L80.18,0.29 Z M80.335,10.756 C80.675,10.756 81.025,10.763 81.39,10.776 C81.756,10.789 82.106,10.796 82.444,10.796 C82.807,10.796 83.174,10.793 83.537,10.786 C83.903,10.779 84.267,10.768 84.631,10.756 L82.466,5.8 L80.336,10.756 L80.335,10.756 Z M84.025,0.29 C84.2098662,0.100729845 84.4644598,-0.00414537502 84.729,-1.06915887e-16 C84.9922254,-0.0033976095 85.2452972,0.101446447 85.429,0.29 C85.6191827,0.475309376 85.7250832,0.730482511 85.722,0.996 C85.7254259,1.26021396 85.6197968,1.51415788 85.43,1.698 C85.2474982,1.88866414 84.9939037,1.99481154 84.73,1.991 C84.464703,1.99549776 84.2094224,1.88976455 84.025,1.699 C83.8346994,1.51550129 83.7289754,1.26132913 83.733,0.997 C83.733,0.724 83.83,0.489 84.025,0.292 L84.025,0.29 Z M100.86,16.37 C100.606,16.49 100.3,16.6 99.944,16.7 C99.586,16.798 99.184,16.886 98.742,16.963 C98.302,17.043 97.839,17.08 97.358,17.08 C96.328,17.08 95.378,16.934 94.508,16.642 C93.6670159,16.3664258 92.8970926,15.9089103 92.253,15.302 C91.6082888,14.6848219 91.102698,13.9371748 90.77,13.109 C90.41,12.241 90.233,11.257 90.233,10.149 C90.233,9.043 90.411,8.057 90.77,7.193 C91.127,6.328 91.628,5.593 92.27,4.996 C92.9379911,4.38424705 93.7265367,3.91895406 94.585,3.63 C95.485,3.32 96.473,3.16 97.552,3.16 C98.412,3.16 99.195,3.25 99.904,3.425 C100.614,3.601 101.241,3.815 101.787,4.059 C101.665363,4.29200201 101.580045,4.54222325 101.534,4.801 C101.479676,5.06052983 101.427674,5.32054022 101.378,5.581 L101.261,5.621 C101.09495,5.42956519 100.912599,5.25290238 100.716,5.093 C100.45901,4.88227896 100.184705,4.69361017 99.896,4.529 C99.5627918,4.33709547 99.2092889,4.18281527 98.842,4.069 C98.4249434,3.94196391 97.990959,3.87924354 97.555,3.883 C96.8258836,3.87600983 96.101636,4.00242272 95.418,4.256 C94.7657266,4.49912369 94.1782092,4.88920509 93.701,5.396 C93.211,5.911 92.831,6.561 92.558,7.349 C92.285,8.136 92.148,9.069 92.148,10.149 C92.148,11.229 92.285,12.164 92.558,12.949 C92.831,13.739 93.212,14.389 93.7,14.903 C94.1765374,15.4108378 94.7637458,15.8019679 95.416,16.046 C96.1002317,16.2970469 96.8241951,16.4223938 97.553,16.416 C98.023,16.416 98.453,16.356 98.851,16.24 C99.5618466,16.0350918 100.234631,15.7159245 100.843,15.295 C101.109,15.105 101.333,14.941 101.516,14.798 L101.596,14.875 L101.419,16.025 C101.301,16.132 101.114,16.245 100.862,16.369 L100.86,16.37 Z M114.154,5.945 C114.121,5.115 114.086,4.275 114.046,3.417 C114.216,3.441 114.378,3.467 114.534,3.484 C114.689,3.504 114.847,3.514 115.004,3.514 C115.159,3.514 115.314,3.504 115.471,3.484 C115.629,3.466 115.791,3.441 115.961,3.417 C115.921,4.275 115.885,5.117 115.853,5.945 C115.821,6.771 115.803,7.613 115.803,8.471 L115.803,11.829 C115.803,12.689 115.821,13.536 115.853,14.367 C115.885,15.2 115.921,16.02 115.961,16.827 C115.661,16.801 115.343,16.787 115.004,16.787 C114.664,16.787 114.346,16.801 114.047,16.827 C114.087,16.019 114.122,15.2 114.155,14.367 C114.187,13.537 114.205,12.69 114.205,11.829 L114.205,10.073 C112.165288,10.0305403 110.12503,10.020539 108.085,10.043 C107.425,10.05 106.745,10.063 106.042,10.073 L106.042,11.829 C106.042,12.689 106.06,13.536 106.092,14.367 C106.125,15.2 106.162,16.02 106.2,16.827 C105.9,16.801 105.582,16.787 105.244,16.787 C104.904,16.787 104.587,16.801 104.286,16.827 C104.326,16.019 104.36,15.2 104.394,14.367 C104.426,13.537 104.441,12.69 104.441,11.829 L104.441,8.47 C104.441,7.613 104.424,6.77 104.393,5.945 C104.359,5.115 104.323,4.275 104.285,3.417 C104.455,3.441 104.617,3.467 104.772,3.484 C105.083284,3.5255836 105.398716,3.5255836 105.71,3.484 C105.868,3.466 106.03,3.441 106.2,3.417 C106.16,4.275 106.123,5.117 106.092,5.945 C106.059,6.771 106.042,7.613 106.042,8.471 L106.042,9.156 C106.746,9.17 107.426,9.181 108.082,9.196 C109.442533,9.22294092 110.803467,9.22294092 112.164,9.196 C112.821,9.181 113.5,9.17 114.204,9.156 L114.204,8.47 C114.204,7.613 114.188,6.77 114.156,5.945 L114.154,5.945 Z M119.717,15 C119.893,15.242 120.107,15.46 120.361,15.655 C120.940943,16.0963607 121.652297,16.3301919 122.381,16.319 C122.779878,16.3254503 123.175798,16.2495345 123.544,16.096 C124.2094,15.8141938 124.728731,15.2698917 124.979,14.592 C125.11068,14.238914 125.177093,13.8648355 125.175,13.488 C125.175,12.888 125.023,12.416 124.717,12.063 C124.395907,11.6996599 124.007839,11.4015639 123.574,11.185 C123.119,10.951 122.628,10.735 122.101,10.542 C121.584056,10.3514924 121.08919,10.1057353 120.625,9.809 C120.170012,9.51827418 119.780711,9.13578557 119.482,8.686 C119.177,8.229 119.025,7.62 119.025,6.853 C119.025,6.303 119.122,5.808 119.317,5.358 C119.512,4.908 119.797,4.522 120.167,4.198 C120.537,3.872 120.983,3.616 121.504,3.433 C122.070361,3.24472361 122.664212,3.15245191 123.261,3.16 C123.885,3.16 124.425,3.237 124.879,3.386 C125.335,3.536 125.759,3.766 126.149,4.079 C126.032,4.301 125.934,4.537 125.857,4.782 C125.779,5.032 125.701,5.342 125.623,5.719 L125.389,5.719 C125.314016,5.51497514 125.226173,5.31590923 125.126,5.123 C125.009654,4.9019174 124.85761,4.70155724 124.676,4.53 C124.478556,4.34108075 124.251564,4.18569953 124.004,4.07 C123.708607,3.94053718 123.388428,3.877389 123.066,3.885 C122.702,3.885 122.366,3.945 122.061,4.061 C121.763582,4.17249429 121.491549,4.3425146 121.261,4.561 C121.031,4.776 120.857,5.034 120.733,5.331 C120.61,5.631 120.548,5.957 120.548,6.307 C120.548,6.919 120.7,7.402 121.006,7.752 C121.313,8.105 121.693,8.402 122.149,8.642 C122.604,8.882 123.096,9.098 123.623,9.285 C124.149,9.473 124.641,9.705 125.097,9.978 C125.546911,10.2459746 125.935884,10.6049747 126.239,11.032 C126.545,11.462 126.699,12.035 126.699,12.75 C126.699,13.35 126.592,13.915 126.376,14.448 C126.165582,14.9739459 125.846647,15.4496227 125.44,15.844 C125.008927,16.2535004 124.496003,16.5670482 123.935,16.764 C123.342,16.974 122.669,17.084 121.915,17.084 C121.105,17.084 120.453,16.974 119.953,16.764 C119.501908,16.5766767 119.078099,16.3294547 118.693,16.029 C118.79904,15.7670677 118.880719,15.4959214 118.937,15.219 C118.982,14.979 119.025,14.669 119.063,14.292 L119.297,14.292 C119.401,14.522 119.541,14.762 119.717,15.002 L119.717,15 Z M129.536,5.945 C129.503,5.115 129.466,4.275 129.429,3.417 C129.597,3.441 129.759,3.467 129.915,3.484 C130.071,3.504 130.228,3.514 130.385,3.514 C130.541,3.514 130.697,3.504 130.853,3.484 C131.01,3.466 131.171,3.441 131.341,3.417 C131.301,4.275 131.266,5.117 131.235,5.945 C131.2,6.771 131.185,7.613 131.185,8.471 L131.185,11.829 C131.185,12.689 131.2,13.536 131.235,14.367 C131.265,15.2 131.301,16.02 131.341,16.827 C131.041,16.801 130.723,16.787 130.385,16.787 C130.045,16.787 129.727,16.801 129.428,16.827 C129.465,16.019 129.501,15.2 129.534,14.367 C129.566,13.537 129.582,12.69 129.582,11.829 L129.582,8.47 C129.582,7.613 129.566,6.77 129.534,5.945 L129.536,5.945 Z M135.1,15 C135.274,15.242 135.49,15.46 135.743,15.655 C136.322833,16.0965695 137.034261,16.3304251 137.763,16.319 C138.161878,16.3254503 138.557798,16.2495345 138.926,16.096 C139.271,15.944 139.566,15.743 139.806,15.488 C140.046,15.236 140.231,14.935 140.362,14.592 C140.492,14.246 140.557,13.879 140.557,13.488 C140.557,12.888 140.407,12.416 140.097,12.063 C139.777066,11.6996731 139.389979,11.4015483 138.957,11.185 C138.501,10.951 138.01,10.735 137.482,10.542 C136.965953,10.3516184 136.472067,10.105849 136.009,9.809 C135.553791,9.51855228 135.164437,9.13601186 134.866,8.686 C134.56,8.229 134.408,7.62 134.408,6.853 C134.408,6.303 134.505,5.808 134.698,5.358 C134.895,4.908 135.178,4.522 135.55,4.198 C135.92,3.872 136.365,3.616 136.886,3.433 C137.452688,3.24465001 138.04688,3.15237784 138.644,3.16 C139.269,3.16 139.808,3.237 140.264,3.386 C140.718,3.536 141.144,3.766 141.534,4.079 C141.416,4.301 141.318,4.537 141.24,4.782 C141.16,5.032 141.085,5.342 141.005,5.719 L140.772,5.719 C140.697016,5.51497514 140.609173,5.31590923 140.509,5.123 C140.392716,4.90187791 140.240664,4.7015081 140.059,4.53 C139.861309,4.34138536 139.63437,4.18604006 139.387,4.07 C139.091675,3.94031862 138.771448,3.87716076 138.449,3.885 C138.086,3.885 137.751,3.945 137.443,4.061 C137.146353,4.17285333 136.875043,4.34284704 136.645,4.561 C136.416361,4.77729741 136.236374,5.03977839 136.117,5.331 C135.994,5.631 135.932,5.957 135.932,6.307 C135.932,6.919 136.084,7.402 136.389,7.752 C136.697,8.105 137.076,8.402 137.532,8.642 C137.988,8.882 138.479,9.098 139.006,9.285 C139.532,9.473 140.026,9.705 140.481,9.978 C140.935,10.251 141.315,10.602 141.621,11.032 C141.928,11.462 142.081,12.035 142.081,12.75 C142.081,13.35 141.973,13.915 141.758,14.448 C141.548366,14.9746038 141.228942,15.450501 140.821,15.844 C140.411,16.242 139.911,16.546 139.317,16.764 C138.727,16.974 138.052,17.084 137.297,17.084 C136.49,17.084 135.835,16.974 135.335,16.764 C134.835,16.546 134.415,16.302 134.077,16.029 C134.194,15.731 134.277,15.459 134.321,15.219 C134.366,14.979 134.409,14.669 134.447,14.292 L134.681,14.292 C134.784,14.522 134.924,14.762 135.101,15.002 L135.1,15 Z M154.502,16.37 C154.247,16.49 153.942,16.6 153.586,16.7 C153.226,16.798 152.826,16.886 152.383,16.963 C151.943,17.043 151.479,17.08 150.999,17.08 C149.969,17.08 149.019,16.934 148.146,16.642 C147.305468,16.3660833 146.535941,15.9086009 145.892,15.302 C145.246981,14.6850814 144.741343,13.9373635 144.409,13.109 C144.051,12.241 143.872,11.257 143.872,10.149 C143.872,9.043 144.052,8.057 144.409,7.193 C144.765,6.328 145.266,5.593 145.912,4.996 C146.579034,4.38398434 147.366988,3.91863834 148.225,3.63 C149.125,3.32 150.113,3.16 151.192,3.16 C152.052,3.16 152.836,3.25 153.545,3.425 C154.255,3.601 154.883,3.815 155.429,4.059 C155.307444,4.29212837 155.221811,4.5422852 155.175,4.801 C155.120455,5.06041975 155.068785,5.3204357 155.02,5.581 L154.903,5.621 C154.73638,5.42976109 154.553715,5.25311783 154.357,5.093 C154.099802,4.88255682 153.82552,4.69390453 153.537,4.529 C153.203732,4.33721328 152.850243,4.18293893 152.483,4.069 C152.064959,3.9417688 151.629956,3.87904748 151.193,3.883 C150.426,3.883 149.715,4.007 149.057,4.256 C148.404727,4.49912369 147.817209,4.88920509 147.34,5.396 C146.85,5.911 146.47,6.561 146.197,7.349 C145.924,8.136 145.787,9.069 145.787,10.149 C145.787,11.229 145.924,12.164 146.197,12.949 C146.47,13.739 146.85,14.389 147.34,14.903 C147.816589,15.4112422 148.404222,15.8024268 149.057,16.046 C149.741232,16.2970469 150.465195,16.4223938 151.194,16.416 C151.664,16.416 152.096,16.356 152.494,16.24 C152.869963,16.1314138 153.235961,15.9909028 153.588,15.82 C153.918,15.658 154.218,15.485 154.484,15.295 C154.751,15.105 154.974,14.941 155.156,14.798 L155.236,14.875 L155.059,16.025 C154.939,16.132 154.754,16.245 154.501,16.369 L154.502,16.37 Z M167.795,5.945 C167.762,5.115 167.728,4.275 167.688,3.417 C167.858,3.441 168.021,3.467 168.174,3.484 C168.485954,3.52558424 168.802046,3.52558424 169.114,3.484 C169.27,3.466 169.432,3.441 169.602,3.417 C169.562,4.275 169.526,5.117 169.492,5.945 C169.460035,6.78661785 169.444366,7.62877561 169.445,8.471 L169.445,11.829 C169.445,12.689 169.461,13.536 169.493,14.367 C169.526,15.2 169.561,16.02 169.603,16.827 C169.301,16.801 168.983,16.787 168.645,16.787 C168.305,16.787 167.987,16.801 167.688,16.827 C167.728,16.019 167.762,15.2 167.795,14.367 C167.827,13.537 167.845,12.69 167.845,11.829 L167.845,10.073 C165.805289,10.030508 163.76503,10.0205068 161.725,10.043 C161.068,10.05 160.387,10.063 159.685,10.073 L159.685,11.829 C159.685,12.689 159.701,13.536 159.733,14.367 C159.765,15.2 159.803,16.02 159.843,16.827 C159.541,16.801 159.223,16.787 158.885,16.787 C158.545,16.787 158.227,16.801 157.927,16.827 C157.967,16.019 158.003,15.2 158.035,14.367 C158.065,13.537 158.082,12.69 158.082,11.829 L158.082,8.47 C158.082,7.613 158.066,6.77 158.035,5.945 C158.003,5.115 157.967,4.275 157.927,3.417 C158.097,3.441 158.259,3.467 158.415,3.484 C158.572,3.504 158.728,3.514 158.885,3.514 C159.04,3.514 159.197,3.504 159.355,3.484 C159.51,3.466 159.672,3.441 159.842,3.417 C159.802,4.275 159.765,5.117 159.732,5.945 C159.700035,6.78661785 159.684366,7.62877561 159.685,8.471 L159.685,9.156 C160.387,9.17 161.068,9.181 161.725,9.196 C163.084867,9.22286812 164.445133,9.22286812 165.805,9.196 C166.461,9.181 167.141,9.17 167.845,9.156 L167.845,8.47 C167.843,7.613 167.827,6.77 167.795,5.945 Z M173.32,5.913 C173.285,5.083 173.25,4.249 173.21,3.416 C173.797,3.44 174.378,3.466 174.96,3.483 C175.538,3.503 176.12,3.513 176.706,3.513 C177.291,3.513 177.87,3.503 178.442,3.483 C179.016,3.465 179.594,3.44 180.179,3.416 C180.139,3.61 180.119,3.806 180.119,4 C180.119,4.197 180.139,4.39 180.179,4.587 C179.797828,4.56285685 179.416819,4.5361896 179.036,4.507 L177.943,4.431 C176.978021,4.35959997 176.010605,4.32624078 175.043,4.331 C175.03,4.751 175.015,5.148 174.993,5.525 C174.973,5.902 174.965,6.331 174.965,6.812 C174.965,7.322 174.969,7.815 174.975,8.296 C174.982,8.779 174.985,9.143 174.985,9.391 C175.916465,9.39324203 176.847816,9.3698999 177.778,9.321 C178.152,9.301 178.503,9.281 178.821,9.261 C179.138,9.241 179.441,9.221 179.728,9.193 C179.650847,9.58591502 179.650847,9.99008498 179.728,10.383 C179.388,10.343 178.996,10.313 178.548,10.286 C178.098367,10.2609683 177.648276,10.244965 177.198,10.238 L175.93,10.218 C175.534,10.211 175.22,10.208 174.984,10.208 C174.984,10.323 174.98,10.452 174.974,10.588 C174.967,10.725 174.964,10.898 174.964,11.105 L174.964,13.037 C174.964,13.779 174.967,14.391 174.974,14.872 C174.98,15.355 174.991,15.719 175.004,15.964 L176.37,15.964 C177.304303,15.9632111 178.238262,15.9281876 179.17,15.859 C179.594,15.825 179.96,15.777 180.273,15.712 C180.246,15.802 180.23,15.904 180.223,16.015 C180.217,16.125 180.213,16.225 180.213,16.317 C180.213,16.525 180.235,16.694 180.273,16.825 C179.691051,16.7982464 179.108563,16.7849095 178.526,16.785 L174.984,16.785 C174.398,16.785 173.804,16.798 173.207,16.825 C173.245,15.992 173.28,15.16 173.315,14.335 C173.345,13.508 173.362,12.665 173.362,11.808 L173.362,8.448 C173.363688,7.60278617 173.348685,6.75762142 173.317,5.913 L173.32,5.913 Z M188.74,15 C188.915,15.242 189.13,15.46 189.384,15.655 C189.963354,16.0974791 190.675107,16.3314414 191.404,16.319 C191.834,16.319 192.221,16.245 192.564,16.096 C192.91,15.944 193.204,15.743 193.444,15.488 C193.684,15.236 193.871,14.935 194.001,14.592 C194.13268,14.238914 194.199093,13.8648355 194.197,13.488 C194.197,12.888 194.044,12.416 193.739,12.063 C193.417499,11.7000971 193.029522,11.4020708 192.596,11.185 C192.141,10.951 191.65,10.735 191.123,10.542 C190.606224,10.3518377 190.111653,10.1060606 189.648,9.809 C189.193144,9.51776392 188.803612,9.13538275 188.504,8.686 C188.2,8.229 188.046,7.62 188.046,6.853 C188.046,6.303 188.146,5.808 188.34,5.358 C188.532,4.908 188.818,4.522 189.19,4.198 C189.56,3.872 190.005,3.616 190.525,3.433 C191.090994,3.24463227 191.684532,3.15235669 192.281,3.16 C192.908,3.16 193.447,3.237 193.903,3.386 C194.358,3.536 194.781,3.766 195.173,4.079 C195.053851,4.30391721 194.955444,4.53922335 194.879,4.782 C194.803,5.032 194.724,5.342 194.645,5.719 L194.411,5.719 C194.336068,5.51479814 194.24788,5.31570782 194.147,5.123 C194.031398,4.90144481 193.879265,4.7009679 193.697,4.53 C193.49967,4.34094054 193.272654,4.18554267 193.025,4.07 C192.729982,3.94046256 192.410112,3.87730784 192.088,3.885 C191.722,3.885 191.388,3.945 191.082,4.061 C190.784521,4.1723719 190.512465,4.34240667 190.282,4.561 C190.052,4.776 189.878,5.034 189.755,5.331 C189.633,5.631 189.569,5.957 189.569,6.307 C189.569,6.919 189.722,7.402 190.027,7.752 C190.334,8.105 190.715,8.402 191.17,8.642 C191.626,8.882 192.118,9.098 192.645,9.285 C193.172,9.473 193.663,9.705 194.119,9.978 C194.574,10.251 194.954,10.602 195.262,11.032 C195.567,11.462 195.72,12.035 195.72,12.75 C195.72,13.35 195.613,13.915 195.397,14.448 C195.187388,14.9743708 194.868346,15.450207 194.461,15.844 C194.051,16.242 193.549,16.546 192.957,16.764 C192.364,16.974 191.691,17.084 190.937,17.084 C190.129,17.084 189.477,16.974 188.975,16.764 C188.475,16.546 188.055,16.302 187.715,16.029 C187.833,15.731 187.915,15.459 187.959,15.219 C188.004,14.979 188.047,14.669 188.087,14.292 L188.32,14.292 C188.423,14.522 188.562,14.762 188.74,15.002 L188.74,15 Z M201.26,4.432 C200.922,4.432 200.568,4.434 200.196,4.442 C199.826,4.448 199.456,4.459 199.086,4.48 C198.714,4.5 198.356,4.523 198.011,4.547 C197.667,4.574 197.358,4.607 197.084,4.647 C197.15,4.412 197.184,4.205 197.184,4.022 C197.184,3.877 197.151,3.676 197.084,3.417 C197.944,3.441 198.784,3.467 199.604,3.484 C200.424,3.504 201.261,3.514 202.124,3.514 C202.981,3.514 203.82,3.504 204.64,3.484 C205.46,3.466 206.3,3.441 207.158,3.417 C207.094,3.677 207.058,3.884 207.058,4.042 C207.058,4.209 207.093,4.412 207.158,4.647 C206.885,4.607 206.574,4.575 206.231,4.547 C205.87318,4.52187193 205.515169,4.49953792 205.157,4.48 C204.787,4.46 204.417,4.448 204.047,4.44 C203.692367,4.4339693 203.337684,4.43130251 202.983,4.432 C202.943,5.772 202.923,7.119 202.923,8.472 L202.923,11.828 C202.923,12.688 202.94,13.535 202.973,14.366 C203.003,15.199 203.04,16.019 203.081,16.826 C202.781,16.8 202.463,16.786 202.124,16.786 C201.784,16.786 201.466,16.8 201.166,16.826 C201.204,16.018 201.242,15.199 201.274,14.366 C201.304,13.536 201.321,12.689 201.321,11.828 L201.321,8.47 C201.319,7.12 201.301,5.77 201.261,4.432 L201.26,4.432 Z M218.888,16.827 C218.716541,16.8010434 218.543411,16.7876743 218.37,16.787 L217.333,16.787 C217.171,16.787 216.999,16.8 216.816,16.827 C216.726,16.527 216.602,16.165 216.446,15.743 C216.282035,15.2969884 216.109335,14.8542365 215.928,14.415 L215.352,13.008 C215.158,12.534 214.976,12.083 214.806,11.652 L213.536,11.622 C213.106,11.618 212.679,11.614 212.249,11.614 C211.845,11.614 211.447,11.618 211.057,11.624 C210.667,11.632 210.269,11.641 209.867,11.652 C209.472063,12.6111587 209.094336,13.5773136 208.734,14.55 C208.452676,15.2990315 208.19917,16.0582177 207.974,16.826 C207.733693,16.7980877 207.491919,16.78473 207.25,16.786 C206.99,16.786 206.75,16.799 206.53,16.826 C207.574213,14.5690287 208.601575,12.304299 209.612,10.032 C210.631043,7.74591632 211.63972,5.45522613 212.638,3.16 L213.008,3.16 C213.322,3.916 213.66,4.73 214.024,5.612 C214.762393,7.39516517 215.510738,9.17419291 216.269,10.949 C216.910524,12.4574382 217.563877,13.9608178 218.229,15.459 C218.499,16.059 218.717,16.512 218.887,16.826 L218.888,16.827 Z M210.241,10.757 C210.581,10.757 210.931,10.763 211.296,10.775 C211.66,10.789 212.013,10.795 212.352,10.795 C213.080842,10.7962703 213.809642,10.7836013 214.538,10.757 L212.37,5.8 L210.24,10.756 L210.241,10.757 Z M232.005,16.827 C231.83388,16.80101 231.661081,16.7876406 231.488,16.787 L230.453,16.787 C230.29,16.787 230.117,16.8 229.935,16.827 C229.821424,16.4624093 229.698046,16.1009448 229.565,15.743 C229.400162,15.2973193 229.227469,14.8545837 229.047,14.415 C228.859,13.952 228.665,13.485 228.471,13.008 C228.278,12.534 228.094,12.083 227.925,11.652 L226.655,11.622 C226.225,11.618 225.798,11.614 225.369,11.614 C224.965,11.614 224.567,11.618 224.177,11.624 C223.787,11.632 223.39,11.641 222.987,11.652 C222.592356,12.6111486 222.214962,13.5773043 221.855,14.55 C221.572169,15.2987075 221.317984,16.0579255 221.093,16.826 C220.853027,16.7980988 220.611586,16.7847411 220.37,16.786 C220.11,16.786 219.868,16.799 219.646,16.826 C220.691621,14.5692232 221.719985,12.3044904 222.731,10.032 C223.734,7.782 224.743,5.49 225.757,3.16 L226.127,3.16 L227.143,5.612 C227.509,6.488 227.879,7.378 228.255,8.276 C228.633,9.172 229.009,10.066 229.388,10.949 C229.768,11.832 230.12,12.657 230.452,13.419 C230.785,14.179 231.084,14.859 231.35,15.459 C231.62,16.059 231.838,16.512 232.007,16.826 L232.005,16.827 Z M223.357,10.757 C223.697,10.757 224.047,10.763 224.413,10.775 C224.775,10.789 225.128,10.795 225.467,10.795 C226.195843,10.7963197 226.924644,10.7836507 227.653,10.757 L225.487,5.8 L223.357,10.756 L223.357,10.757 Z M235.557,4.432 C235.219,4.432 234.865,4.434 234.493,4.442 C234.123,4.448 233.753,4.459 233.383,4.48 C233.011,4.5 232.653,4.523 232.308,4.547 C231.962,4.574 231.654,4.607 231.381,4.647 C231.446,4.412 231.481,4.205 231.481,4.022 C231.481,3.877 231.447,3.676 231.381,3.417 C232.241,3.441 233.081,3.467 233.901,3.484 C234.721,3.504 235.559,3.514 236.418,3.514 C237.278,3.514 238.116,3.504 238.938,3.484 C239.758,3.466 240.595,3.441 241.456,3.417 C241.399045,3.62079285 241.366154,3.83055512 241.358,4.042 C241.358,4.209 241.39,4.412 241.456,4.647 C241.184,4.607 240.873,4.575 240.528,4.547 C240.170512,4.52189646 239.812834,4.49956245 239.455,4.48 C239.083,4.46 238.713,4.448 238.343,4.44 C237.973,4.434 237.616,4.432 237.279,4.432 C237.239,5.772 237.221,7.119 237.221,8.472 L237.221,11.828 C237.221,12.688 237.237,13.535 237.268,14.366 C237.302,15.199 237.338,16.019 237.378,16.826 C237.078,16.8 236.758,16.786 236.418,16.786 C236.081,16.786 235.762,16.8 235.462,16.826 C235.502,16.018 235.538,15.199 235.572,14.366 C235.602,13.536 235.62,12.689 235.62,11.828 L235.62,8.47 C235.618,7.12 235.6,5.77 235.56,4.432 L235.557,4.432 Z M243.843,15 C244.02,15.242 244.235,15.46 244.489,15.655 C245.06828,16.0976197 245.780083,16.3315986 246.509,16.319 C246.937,16.319 247.324,16.245 247.669,16.096 C248.014,15.944 248.307,15.743 248.549,15.488 C248.787,15.236 248.973,14.935 249.105,14.592 C249.235,14.246 249.299,13.879 249.299,13.488 C249.299,12.888 249.146,12.416 248.841,12.063 C248.519669,11.6999156 248.131654,11.4018604 247.698,11.185 C247.220149,10.9409982 246.727908,10.7262689 246.224,10.542 C245.707315,10.3516277 245.212765,10.1058617 244.749,9.809 C244.294557,9.51793472 243.905648,9.13549628 243.607,8.686 C243.302,8.229 243.147,7.62 243.147,6.853 C243.147,6.303 243.247,5.808 243.441,5.358 C243.636,4.908 243.921,4.522 244.291,4.198 C244.661,3.872 245.107,3.616 245.628,3.433 C246.194043,3.24483376 246.787547,3.1525635 247.384,3.16 C248.009,3.16 248.549,3.237 249.004,3.386 C249.46,3.536 249.882,3.766 250.274,4.079 C250.157,4.301 250.059,4.537 249.98,4.782 C249.903,5.032 249.824,5.342 249.747,5.719 L249.511,5.719 C249.437725,5.5142893 249.349832,5.31510955 249.248,5.123 C249.133344,4.90137804 248.981853,4.70085591 248.8,4.53 C248.602368,4.34085014 248.375008,4.18544803 248.127,4.07 C247.831675,3.94031862 247.511448,3.87716076 247.189,3.885 C246.823,3.885 246.489,3.945 246.183,4.061 C245.885582,4.17249429 245.613549,4.3425146 245.383,4.561 C245.153,4.776 244.978,5.034 244.856,5.331 C244.732,5.631 244.669,5.957 244.669,6.307 C244.669,6.919 244.821,7.402 245.127,7.752 C245.449559,8.11693048 245.837142,8.41872322 246.27,8.642 C246.726,8.882 247.218,9.098 247.745,9.285 C248.271,9.473 248.765,9.705 249.219,9.978 C249.675,10.251 250.055,10.602 250.362,11.032 C250.667,11.462 250.82,12.035 250.82,12.75 C250.82,13.35 250.713,13.915 250.498,14.448 C250.288277,14.9740682 249.969634,15.4498172 249.563,15.844 C249.153,16.241 248.653,16.546 248.059,16.764 C247.467,16.974 246.794,17.084 246.039,17.084 C245.231,17.084 244.579,16.974 244.079,16.764 C243.627908,16.5766767 243.204099,16.3294547 242.819,16.029 C242.935,15.731 243.016,15.459 243.061,15.219 C243.106,14.979 243.149,14.669 243.189,14.292 L243.423,14.292 C243.527,14.522 243.667,14.762 243.843,15.002 L243.843,15 Z M257.48,11.672 L257.48,12.882 L252.62,12.882 L252.62,11.672 L257.48,11.672 Z M275.983,5.484 C275.969,4.484 275.938,3.794 275.887,3.416 C276.027,3.44 276.164,3.466 276.295,3.483 C276.425,3.503 276.555,3.513 276.685,3.513 C276.855,3.513 277.051,3.481 277.273,3.416 C277.233,3.872 277.193,4.414 277.156,5.046 C277.116,5.676 277.084,6.353 277.056,7.076 C277.031,7.799 277.004,8.541 276.979,9.302 C276.951,10.062 276.933,10.802 276.919,11.517 C276.905,12.389 276.773,13.17 276.519,13.857 C276.286287,14.5126514 275.917166,15.111493 275.436,15.614 C274.951411,16.1064587 274.360224,16.4810825 273.708,16.709 C273.023,16.954 272.24,17.079 271.355,17.079 C269.402,17.079 267.985,16.636 267.099,15.749 C266.215,14.865 265.773,13.466 265.773,11.554 C265.773,10.942 265.789,10.4 265.823,9.924 C265.853,9.449 265.87,8.964 265.87,8.47 C265.87,7.38 265.858,6.41 265.833,5.563 C265.811268,4.84715797 265.784601,4.13147429 265.753,3.416 C265.909,3.44 266.078,3.466 266.263,3.483 C266.445,3.503 266.615,3.513 266.77,3.513 C266.913,3.513 267.052,3.503 267.19,3.483 C267.326,3.465 267.465,3.44 267.61,3.416 C267.583,3.703 267.555,4.076 267.53,4.538 C267.466103,5.69217614 267.42143,6.84733627 267.396,8.003 C267.382,8.678 267.376,9.383 267.376,10.111 C267.376,10.551 267.383,11.013 267.396,11.487 C267.406,11.964 267.456,12.424 267.531,12.873 C267.611,13.323 267.738,13.751 267.914,14.16 C268.091,14.57 268.338,14.93 268.666,15.234 C268.991,15.541 269.399,15.78 269.896,15.956 C270.388,16.132 271,16.22 271.73,16.22 C272.445,16.22 273.047,16.114 273.535,15.906 C273.988836,15.7212512 274.397966,15.4416788 274.735,15.086 C275.048,14.748 275.291,14.358 275.467,13.916 C275.644352,13.4696093 275.772444,13.0051917 275.849,12.531 C275.924,12.049 275.969,11.568 275.983,11.087 C275.997,10.607 276.003,10.164 276.003,9.759 C276.003,7.914 275.996,6.489 275.983,5.485 L275.983,5.484 Z M287.325,11.76 C285.633,9.945 283.939,8.14 282.249,6.344 C282.236,6.707 282.223,7.194 282.209,7.807 C282.187852,8.97788153 282.184518,10.149017 282.199,11.32 L282.219,12.59 C282.226,13.034 282.237,13.48 282.249,13.937 C282.271567,14.7017795 282.297567,15.4664539 282.327,16.231 C282.341,16.525 282.352,16.724 282.367,16.828 C281.899295,16.7727129 281.426705,16.7727129 280.959,16.828 C280.985,16.698 281.015,16.455 281.049,16.105 C281.079,15.752 281.109,15.333 281.134,14.845 L281.222,13.255 C281.285647,12.123564 281.327988,10.99103 281.349,9.858 C281.363,9.312 281.369,8.824 281.369,8.395 C281.369,7.145 281.367,6.072 281.361,5.173 C281.360557,4.50202831 281.343885,3.83116547 281.311,3.161 L281.624,3.161 L284.171,5.925 C285.073,6.907 285.971,7.875 286.864,8.833 C287.756,9.79 288.602,10.693 289.401,11.546 C290.201,12.398 290.901,13.124 291.499,13.723 L291.499,11.068 C291.499,9.702 291.489,8.372 291.473,7.078 C291.454809,5.85723662 291.411467,4.63697764 291.343,3.418 C291.603,3.482 291.826,3.514 292.007,3.514 C292.163,3.514 292.373,3.482 292.632,3.417 C292.606,3.704 292.576,4.133 292.544,4.707 C292.511,5.277 292.479,5.89 292.447,6.539 C292.414318,7.1765082 292.384984,7.81418366 292.359,8.452 C292.332,9.078 292.319,9.579 292.319,9.956 L292.319,11.126 C292.319,11.569 292.322,12.033 292.329,12.513 C292.336,12.995 292.344,13.48 292.349,13.968 L292.369,15.334 C292.376,15.76 292.379,16.124 292.379,16.439 L292.379,17.082 L292.106,17.082 C290.543619,15.281154 288.949368,13.5082076 287.324,11.764 L287.325,11.76 Z M296.352,5.945 C296.320373,5.10215219 296.284373,4.25947418 296.244,3.417 C296.738,3.441 297.231,3.467 297.719,3.484 C298.205,3.504 298.697,3.514 299.193,3.514 C299.687,3.514 300.178,3.498 300.668,3.467 C301.154,3.433 301.644,3.417 302.14,3.417 C303.286,3.417 304.265,3.567 305.078,3.867 C305.891,4.164 306.558,4.591 307.078,5.144 C307.601,5.697 307.978,6.374 308.221,7.174 C308.461,7.974 308.583,8.876 308.583,9.878 C308.583,11.178 308.356,12.276 307.907,13.168 C307.46,14.06 306.885,14.778 306.19,15.324 C305.50775,15.8628162 304.723762,16.2583814 303.885,16.487 C303.099369,16.7055218 302.288424,16.8198341 301.473,16.827 C301.031,16.827 300.598,16.821 300.166,16.807 C299.729472,16.7931928 299.292746,16.7865252 298.856,16.787 L297.55,16.787 C297.118,16.787 296.683,16.8 296.24,16.827 C296.28,16.017 296.317,15.199 296.348,14.367 C296.378,13.535 296.398,12.689 296.398,11.827 L296.398,8.472 C296.398,7.615 296.378,6.772 296.348,5.947 L296.352,5.945 Z M298.12,15.965 C298.394,16.032 298.765,16.082 299.23,16.113 C299.7,16.147 300.18,16.163 300.675,16.163 C301.392,16.163 302.107,16.077 302.822,15.908 C303.529177,15.7444663 304.18815,15.4173769 304.746,14.953 C305.309,14.483 305.772,13.843 306.132,13.029 C306.488,12.215 306.667,11.164 306.667,9.876 C306.667,8.743 306.529,7.813 306.25,7.084 C305.97,6.357 305.584,5.781 305.098,5.357 C304.594927,4.92725504 303.995106,4.62597212 303.35,4.479 C302.620524,4.31036405 301.873686,4.22846357 301.125,4.235 C300.119852,4.23635543 299.115814,4.30182166 298.119,4.431 C298.079,5.055 298.049,5.709 298.029,6.391 C298.010542,7.08418048 298.001208,7.77757386 298.001,8.471 L298.001,11.827 C298.001,13.234 298.041,14.613 298.119,15.965 L298.12,15.965 Z M10.67,29.404 C10.657,28.401 10.624,27.711 10.57,27.334 C10.715,27.36 10.85,27.384 10.982,27.404 C11.112,27.424 11.242,27.43 11.372,27.43 C11.542,27.43 11.736,27.4 11.957,27.333 C11.8576507,28.5512004 11.7862985,29.7715223 11.743,30.993 L11.665,33.219 C11.64,33.979 11.619,34.719 11.607,35.432 C11.594,36.307 11.461,37.087 11.207,37.776 C10.9741222,38.4315724 10.6050215,39.0303813 10.124,39.533 C9.654,40.013 9.08,40.38 8.394,40.626 C7.714,40.874 6.929,40.998 6.044,40.998 C4.092,40.998 2.674,40.553 1.789,39.668 C0.902,38.785 0.459,37.386 0.459,35.473 C0.459,34.863 0.476,34.318 0.509,33.843 C0.539,33.366 0.559,32.883 0.559,32.389 C0.56041425,31.4188533 0.547079375,30.4487412 0.519,29.479 C0.497553257,28.7638149 0.470885879,28.0487958 0.439,27.334 C0.596,27.36 0.765,27.384 0.949,27.404 C1.129,27.424 1.299,27.43 1.454,27.43 C1.598,27.43 1.738,27.423 1.874,27.404 C2.011,27.384 2.151,27.361 2.294,27.334 C2.269,27.621 2.241,27.996 2.217,28.457 C2.19,28.92 2.165,29.443 2.137,30.027 C2.10960459,30.6584108 2.08960322,31.2901208 2.077,31.922 C2.065,32.6 2.06,33.302 2.06,34.032 C2.06,34.472 2.066,34.932 2.08,35.405 C2.093,35.883 2.138,36.343 2.217,36.792 C2.294,37.242 2.421,37.672 2.597,38.082 C2.772,38.489 3.023,38.85 3.347,39.152 C3.673,39.462 4.084,39.702 4.577,39.876 C5.073,40.052 5.684,40.141 6.413,40.141 C7.129,40.141 7.73,40.038 8.218,39.831 C8.67213058,39.6468 9.08137051,39.3671528 9.418,39.011 C9.73314018,38.6689757 9.98172398,38.2711738 10.151,37.838 C10.3279675,37.3912854 10.4553963,36.9265055 10.531,36.452 C10.611,35.972 10.656,35.489 10.669,35.008 C10.681,34.528 10.689,34.085 10.689,33.681 C10.6918792,32.2556431 10.6858791,30.8302821 10.671,29.405 L10.67,29.404 Z M22.01,35.68 C20.3228771,33.8700615 18.6315392,32.0640566 16.936,30.262 C16.922,30.628 16.91,31.116 16.896,31.725 C16.884,32.337 16.876,33.17 16.876,34.225 C16.876,34.497 16.879,34.835 16.886,35.241 L16.906,36.511 C16.914,36.954 16.923,37.404 16.936,37.857 C16.949,38.313 16.962,38.737 16.976,39.127 C16.989,39.517 17.001,39.86 17.014,40.151 C17.027,40.445 17.04,40.643 17.054,40.747 C16.58673,40.6958302 16.11527,40.6958302 15.648,40.747 C15.675,40.617 15.705,40.377 15.736,40.024 C15.77,39.671 15.798,39.254 15.824,38.764 C15.849,38.277 15.88,37.746 15.912,37.174 C15.942,36.601 15.972,36.03 15.992,35.457 C16.01,34.883 16.025,34.323 16.039,33.779 C16.052,33.229 16.059,32.743 16.059,32.314 C16.059,31.064 16.055,29.991 16.049,29.092 C16.0471614,28.4223796 16.0304907,27.7528821 15.999,27.084 L16.312,27.084 C17.107,27.941 17.956,28.862 18.862,29.844 C19.755827,30.8172378 20.6531662,31.7872441 21.554,32.754 C22.444,33.709 23.29,34.614 24.092,35.464 C24.892,36.319 25.592,37.044 26.189,37.644 L26.189,34.988 C26.189,33.622 26.179,32.292 26.159,30.998 C26.142878,29.7772614 26.1012022,28.5569941 26.034,27.338 C26.294,27.402 26.514,27.434 26.698,27.434 C26.853,27.434 27.06,27.404 27.322,27.337 C27.2844075,27.7664366 27.2544029,28.1965037 27.232,28.627 C27.2,29.199 27.168,29.809 27.137,30.461 C27.102,31.111 27.073,31.747 27.047,32.373 C27.021,32.998 27.007,33.499 27.007,33.877 L27.007,35.047 C27.007,35.487 27.01,35.951 27.017,36.433 C27.022,36.916 27.029,37.398 27.037,37.888 C27.043,38.373 27.05,38.828 27.057,39.254 C27.063,39.677 27.067,40.044 27.067,40.357 L27.067,41 L26.793,41 C25.2308312,39.1974097 23.6355601,37.423775 22.008,35.68 L22.01,35.68 Z M31.04,29.862 C31.006,29.036 30.97,28.194 30.93,27.334 C31.1,27.36 31.263,27.384 31.42,27.404 C31.5752937,27.422549 31.7316073,27.4312331 31.888,27.43 C32.044,27.43 32.2,27.422 32.356,27.403 C32.513,27.383 32.676,27.36 32.846,27.333 C32.806,28.193 32.769,29.036 32.736,29.863 C32.706,30.688 32.688,31.531 32.688,32.39 L32.688,35.748 C32.688,36.605 32.705,37.451 32.738,38.285 C32.768,39.118 32.805,39.937 32.845,40.743 C32.5266633,40.7170955 32.2073884,40.7044179 31.888,40.705 C31.55,40.705 31.23,40.718 30.931,40.743 C30.971,39.937 31.007,39.118 31.041,38.285 C31.071,37.451 31.088,36.605 31.088,35.748 L31.088,32.39 C31.088,31.53 31.072,30.688 31.04,29.862 Z M39.383,37.972 C38.9287435,36.8317597 38.4697395,35.6934165 38.006,34.557 C37.518,33.36 37.016,32.137 36.506,30.887 C36.0174023,29.7012561 35.5254003,28.5169179 35.03,27.334 C35.212,27.36 35.388,27.384 35.556,27.404 C35.8806476,27.4404352 36.2083524,27.4404352 36.533,27.404 C36.703,27.384 36.877,27.36 37.06,27.334 C37.347,28.194 37.662,29.094 38.006,30.039 C38.352,30.981 38.716,31.941 39.1,32.916 C39.482,33.892 39.878,34.88 40.282,35.883 C40.682,36.886 41.095,37.881 41.51,38.869 C41.745,38.337 42,37.741 42.272,37.084 C42.8507181,35.688123 43.4041419,34.281893 43.932,32.866 C44.204,32.133 44.469,31.426 44.724,30.749 C44.977,30.073 45.207,29.441 45.416,28.854 C45.5970223,28.3492061 45.7726988,27.8425111 45.943,27.334 C46.228,27.398 46.47,27.43 46.665,27.43 C46.859,27.43 47.101,27.4 47.388,27.334 C46.3857057,29.5671419 45.4096386,31.811963 44.46,34.068 C43.5286109,36.279846 42.6301782,38.5054256 41.765,40.744 C41.5516152,40.7185336 41.336899,40.7058443 41.122,40.706 C40.862,40.706 40.647,40.719 40.477,40.744 C40.177,39.976 39.812,39.054 39.383,37.972 Z M49.68,29.833 C49.6464758,28.9995616 49.6104757,28.1662245 49.572,27.333 C50.158,27.36 50.74,27.383 51.32,27.403 C51.9,27.423 52.48,27.43 53.068,27.43 C53.652,27.43 54.232,27.422 54.804,27.403 C55.377,27.383 55.956,27.36 56.542,27.333 C56.4627122,27.7199805 56.4627122,28.1190195 56.542,28.506 C56.1607644,28.4828134 55.7797485,28.4561456 55.399,28.426 L54.306,28.35 C53.922,28.324 53.502,28.3 53.046,28.28 C52.4995651,28.2602574 51.9527862,28.2515889 51.406,28.254 C51.393,28.669 51.376,29.067 51.356,29.444 C51.338,29.82 51.329,30.249 51.329,30.732 C51.329,31.24 51.332,31.735 51.339,32.215 C51.345,32.695 51.349,33.059 51.349,33.308 C51.921,33.308 52.434,33.301 52.889,33.288 C53.347,33.276 53.762,33.258 54.139,33.24 C54.516,33.22 54.866,33.2 55.184,33.18 C55.502,33.16 55.804,33.138 56.092,33.11 C56.0145593,33.50356 56.0145593,33.90844 56.092,34.302 C55.752,34.262 55.362,34.232 54.912,34.202 C54.462,34.178 54.012,34.162 53.562,34.156 L52.294,34.136 C51.898,34.129 51.584,34.126 51.348,34.126 C51.348,34.244 51.344,34.37 51.338,34.508 C51.331,34.644 51.328,34.818 51.328,35.026 L51.328,36.959 C51.328,37.699 51.331,38.309 51.338,38.793 C51.344,39.273 51.354,39.637 51.368,39.886 L52.733,39.886 C53.6680045,39.884183 54.6026296,39.8481589 55.535,39.778 C55.955,39.748 56.325,39.696 56.635,39.632 C56.6071039,39.7304827 56.5903326,39.8317816 56.585,39.934 C56.58,40.044 56.577,40.147 56.577,40.237 C56.577,40.445 56.597,40.614 56.637,40.745 C56.0540044,40.7198557 55.4705376,40.7071861 54.887,40.707 L51.345,40.707 C50.76,40.707 50.165,40.72 49.568,40.745 C49.608,39.913 49.644,39.085 49.678,38.258 C49.7096658,37.4150427 49.725002,36.5715512 49.724,35.728 L49.724,32.372 C49.7259219,31.5251088 49.7105853,30.6782663 49.678,29.832 L49.68,29.833 Z M59.537,29.862 C59.504,29.036 59.467,28.194 59.429,27.334 C59.806,27.36 60.177,27.384 60.541,27.404 C60.907,27.424 61.277,27.43 61.654,27.43 C62.031,27.43 62.402,27.414 62.767,27.383 C63.1371231,27.3505574 63.5084588,27.3338757 63.88,27.333 C64.426,27.333 64.946,27.385 65.44,27.488 C65.9017303,27.5784753 66.342577,27.7541357 66.74,28.006 C67.11,28.248 67.403,28.564 67.618,28.953 C67.833,29.345 67.94,29.833 67.94,30.417 C67.94,31.042 67.8,31.579 67.52,32.029 C67.2539544,32.4622766 66.9057549,32.8393512 66.495,33.139 C66.0987222,33.428815 65.6620739,33.6589314 65.199,33.822 C64.736,33.985 64.315,34.092 63.939,34.145 C64.095,34.338 64.309,34.613 64.582,34.965 C64.855,35.315 65.16,35.703 65.499,36.125 C65.839,36.549 66.189,36.991 66.554,37.452 C66.919,37.915 67.269,38.357 67.608,38.779 C67.946,39.202 68.264,39.589 68.565,39.942 C68.865,40.292 69.105,40.558 69.288,40.742 C69.0933766,40.7162621 68.8973158,40.702902 68.701,40.702 L67.549,40.702 C67.354,40.702 67.165,40.716 66.982,40.742 C66.788,40.469 66.492,40.057 66.095,39.512 C65.1954279,38.2815308 64.2651354,37.0738177 63.305,35.89 C62.803,35.274 62.345,34.75 61.928,34.32 L61.188,34.32 L61.188,35.748 C61.188,36.605 61.205,37.451 61.238,38.285 C61.27,39.118 61.306,39.937 61.345,40.743 C61.045,40.718 60.725,40.705 60.388,40.705 C60.05,40.705 59.731,40.718 59.431,40.743 C59.471,39.937 59.506,39.118 59.539,38.285 C59.573,37.451 59.589,36.605 59.589,35.748 L59.589,32.39 C59.585,31.53 59.569,30.688 59.536,29.862 L59.537,29.862 Z M61.782,33.582 C61.996,33.595 62.235,33.602 62.495,33.602 C62.898,33.602 63.317,33.556 63.755,33.464 C64.19,33.374 64.59,33.214 64.955,32.984 C65.319,32.759 65.621,32.452 65.862,32.068 C66.104,31.684 66.222,31.198 66.222,30.615 C66.222,30.105 66.128,29.687 65.942,29.355 C65.7646237,29.0366453 65.5132057,28.7656763 65.209,28.565 C64.909,28.371 64.583,28.235 64.233,28.165 C63.8921592,28.0944838 63.5450583,28.0586346 63.197,28.058 C62.741,28.058 62.364,28.068 62.065,28.088 C61.765,28.108 61.512,28.128 61.305,28.154 L61.225,30.284 C61.199,30.984 61.185,31.688 61.185,32.391 L61.185,33.501 C61.368,33.543 61.567,33.568 61.781,33.581 L61.782,33.582 Z M71.6,38.92 C72.2269965,39.758792 73.2168332,40.2477654 74.264,40.236 C74.694,40.236 75.081,40.163 75.427,40.014 C75.772,39.864 76.065,39.661 76.305,39.409 C76.547,39.152 76.732,38.854 76.862,38.509 C76.992,38.166 77.057,37.796 77.057,37.407 C77.057,36.809 76.903,36.333 76.599,35.983 C76.2772175,35.6194577 75.8889182,35.3207659 75.455,35.103 C74.999,34.87 74.509,34.653 73.981,34.458 C73.4654176,34.2669571 72.9716358,34.0215747 72.508,33.726 C72.0543765,33.4339798 71.6653809,33.0521311 71.365,32.604 C71.058,32.148 70.905,31.536 70.905,30.768 C70.905,30.222 71.005,29.724 71.198,29.276 C71.393,28.826 71.678,28.439 72.048,28.114 C72.418,27.789 72.864,27.536 73.386,27.354 C73.906,27.17 74.491,27.081 75.142,27.081 C75.767,27.081 76.305,27.155 76.762,27.304 C77.217,27.454 77.639,27.686 78.03,27.997 C77.912099,28.2222512 77.8143837,28.457504 77.738,28.7 C77.6444696,29.007573 77.5663722,29.3196291 77.504,29.635 L77.269,29.635 C77.1943055,29.4316629 77.1067967,29.2332651 77.007,29.041 C76.8908699,28.8188918 76.73882,28.6175101 76.557,28.445 C76.3591973,28.2560606 76.1318737,28.1006834 75.884,27.985 C75.624,27.863 75.314,27.8 74.947,27.8 C74.584,27.8 74.249,27.86 73.943,27.977 C73.6457941,28.0875287 73.3737661,28.256526 73.143,28.474 C72.9148386,28.6904944 72.7352158,28.9529415 72.616,29.244 C72.492,29.544 72.431,29.87 72.431,30.222 C72.431,30.834 72.583,31.315 72.889,31.666 C73.195,32.016 73.575,32.313 74.031,32.553 C74.486,32.795 74.977,33.009 75.505,33.197 C76.0175597,33.3794954 76.5109332,33.611947 76.978,33.891 C77.433,34.163 77.814,34.516 78.12,34.945 C78.426,35.375 78.58,35.948 78.58,36.665 C78.58,37.262 78.472,37.829 78.258,38.362 C78.043,38.896 77.73,39.362 77.321,39.758 C76.911,40.155 76.409,40.461 75.818,40.676 C75.225,40.89 74.551,40.998 73.798,40.998 C72.99,40.998 72.338,40.89 71.836,40.676 C71.336,40.461 70.916,40.216 70.576,39.946 C70.694,39.646 70.776,39.374 70.821,39.134 C70.867,38.894 70.909,38.584 70.948,38.206 L71.181,38.206 C71.283,38.439 71.423,38.676 71.599,38.919 L71.6,38.92 Z M81.42,29.862 C81.388,29.036 81.352,28.194 81.313,27.334 C81.481,27.36 81.645,27.384 81.801,27.404 C81.958,27.422 82.114,27.43 82.271,27.43 C82.426,27.43 82.583,27.422 82.739,27.403 C82.895,27.383 83.057,27.36 83.226,27.333 C83.188,28.193 83.152,29.036 83.119,29.863 C83.087,30.688 83.071,31.531 83.071,32.39 L83.071,35.748 C83.071,36.605 83.087,37.451 83.119,38.285 C83.152,39.118 83.189,39.937 83.226,40.743 C82.926,40.718 82.606,40.705 82.27,40.705 C81.93,40.705 81.61,40.718 81.313,40.743 C81.353,39.937 81.388,39.118 81.419,38.285 C81.452,37.451 81.469,36.605 81.469,35.748 L81.469,32.39 C81.467,31.53 81.452,30.688 81.419,29.862 L81.42,29.862 Z M89.647,28.35 C88.9217031,28.3467627 88.1964479,28.3627683 87.472,28.398 C87.102,28.418 86.742,28.441 86.398,28.468 C86.052,28.492 85.744,28.526 85.471,28.565 C85.536,28.33 85.571,28.123 85.571,27.94 C85.5603255,27.7352359 85.5267837,27.532308 85.471,27.335 C86.331,27.361 87.171,27.385 87.991,27.405 C88.811,27.425 89.649,27.431 90.508,27.431 C91.368,27.431 92.206,27.424 93.028,27.405 C93.848,27.385 94.685,27.362 95.545,27.335 C95.48,27.595 95.445,27.805 95.445,27.961 C95.445,28.131 95.479,28.331 95.545,28.566 C95.272,28.526 94.962,28.494 94.617,28.468 C93.535848,28.3823735 92.4515105,28.3433373 91.367,28.351 C91.327,29.691 91.309,31.038 91.309,32.391 L91.309,35.751 C91.309,36.607 91.325,37.453 91.356,38.287 C91.389,39.12 91.426,39.939 91.464,40.745 C91.164,40.72 90.844,40.707 90.506,40.707 C90.166,40.707 89.849,40.72 89.549,40.745 C89.589,39.939 89.626,39.12 89.657,38.287 C89.689,37.453 89.707,36.607 89.707,35.75 L89.707,32.39 C89.707,31.036 89.687,29.688 89.647,28.35 Z M103.857,29.53 C104.222,30.41 104.592,31.298 104.97,32.194 C105.97264,34.601109 107.003713,36.9962765 108.063,39.379 C108.33,39.977 108.548,40.433 108.718,40.744 C108.546727,40.719635 108.373995,40.7069391 108.201,40.706 L107.165,40.706 C107.003,40.706 106.831,40.719 106.649,40.744 C106.559,40.444 106.434,40.084 106.279,39.661 C106.113909,39.2157467 105.941217,38.7733487 105.761,38.334 C105.573,37.874 105.381,37.404 105.185,36.931 C104.991,36.453 104.808,36.001 104.639,35.574 C102.992735,35.5225525 101.345265,35.5225525 99.699,35.574 C99.3056282,36.5334028 98.928905,37.4995477 98.569,38.472 C98.229,39.39 97.977,40.149 97.809,40.746 C97.5685676,40.7197988 97.3268542,40.7071122 97.085,40.708 C96.823,40.708 96.585,40.721 96.362,40.746 C97.418,38.469 98.444,36.206 99.446,33.953 C100.449,31.703 101.458,29.413 102.471,27.085 L102.841,27.085 C103.156,27.839 103.494,28.655 103.858,29.533 L103.857,29.53 Z M99.915,24.212 C100.098015,24.0207603 100.352324,23.9142546 100.617,23.918 C100.89,23.918 101.124,24.016 101.319,24.212 C101.514,24.405 101.612,24.642 101.612,24.914 C101.615551,25.1780541 101.509032,25.4316711 101.318,25.614 C101.135132,25.8061722 100.880243,25.9131314 100.615,25.909 C100.350103,25.912851 100.095631,25.8059146 99.913,25.614 C99.7219677,25.4316711 99.6154485,25.1780541 99.619,24.914 C99.619,24.64 99.719,24.404 99.914,24.211 L99.915,24.212 Z M100.069,34.674 C100.407,34.674 100.757,34.68 101.123,34.694 C101.487,34.706 101.84,34.714 102.177,34.714 C102.541,34.714 102.905,34.71 103.27,34.704 C103.635,34.696 104,34.688 104.365,34.674 L102.198,29.717 L100.068,34.674 L100.069,34.674 Z M103.759,24.212 C103.942015,24.0207603 104.196324,23.9142546 104.461,23.918 C104.734,23.918 104.969,24.016 105.164,24.212 C105.359,24.405 105.456,24.642 105.456,24.914 C105.459709,25.1776838 105.353991,25.4311171 105.164,25.614 C104.98092,25.8058646 104.726172,25.9127646 104.461,25.909 C104.196103,25.912851 103.941631,25.8059146 103.759,25.614 C103.567926,25.4317798 103.4617,25.1779979 103.466,24.914 C103.466,24.64 103.562,24.404 103.759,24.211 L103.759,24.212 Z M113.714,28.35 C112.988704,28.34683 112.26345,28.3628356 111.539,28.398 C111.169,28.418 110.811,28.441 110.467,28.468 C110.121,28.492 109.812,28.526 109.539,28.565 C109.604,28.33 109.636,28.123 109.636,27.94 C109.636,27.797 109.604,27.594 109.539,27.335 C110.399,27.361 111.237,27.385 112.059,27.405 C112.879,27.423 113.716,27.431 114.576,27.431 C115.433,27.431 116.274,27.424 117.094,27.405 C117.914,27.385 118.754,27.362 119.612,27.335 C119.556505,27.5394138 119.523971,27.7493771 119.515,27.961 C119.515,28.131 119.549,28.331 119.613,28.566 C119.343,28.526 119.031,28.494 118.688,28.468 C117.960545,28.4106571 117.231565,28.3746416 116.502,28.36 C116.13,28.354 115.775,28.35 115.437,28.35 C115.399,29.69 115.38,31.037 115.38,32.39 L115.38,35.75 C115.38,36.606 115.396,37.452 115.428,38.286 C115.458,39.119 115.496,39.938 115.535,40.744 C115.217,40.7180541 114.898056,40.7053764 114.579,40.706 C114.239,40.706 113.922,40.719 113.622,40.744 C113.659,39.938 113.695,39.119 113.729,38.286 C113.759,37.452 113.777,36.606 113.777,35.749 L113.777,32.389 C113.775,31.035 113.757,29.687 113.717,28.349 L113.714,28.35 Z M122,38.92 C122.386526,39.442322 122.921431,39.8360955 123.535,40.05 C123.872,40.176 124.249,40.237 124.665,40.237 C125.095,40.237 125.482,40.163 125.828,40.014 C126.172,39.864 126.465,39.661 126.706,39.409 C126.948867,39.1485982 127.137827,38.8427281 127.262,38.509 C127.393409,38.1565929 127.45916,37.7830972 127.456,37.407 C127.456,36.809 127.306,36.333 126.998,35.983 C126.67777,35.6194659 126.290777,35.3207348 125.858,35.103 C125.402,34.87 124.91,34.653 124.383,34.458 C123.866779,34.2669685 123.372332,34.0215892 122.908,33.726 C122.455406,33.4337244 122.067441,33.051885 121.768,32.604 C121.46,32.148 121.308,31.536 121.308,30.768 C121.308,30.222 121.406,29.724 121.6,29.276 C121.794,28.826 122.08,28.439 122.45,28.114 C122.842307,27.7770959 123.29593,27.5190466 123.786,27.354 C124.306,27.17 124.892,27.081 125.544,27.081 C126.169,27.081 126.708,27.155 127.164,27.304 C127.619,27.454 128.042,27.686 128.434,27.997 C128.315427,28.2221892 128.217042,28.4574425 128.14,28.7 C128.04655,29.0076713 127.968124,29.3197068 127.905,29.635 L127.672,29.635 C127.597408,29.4314656 127.509553,29.2330402 127.409,29.041 C127.29287,28.8188918 127.14082,28.6175101 126.959,28.445 C126.761254,28.2559907 126.533918,28.1006053 126.286,27.985 C125.990824,27.8548454 125.67049,27.7916665 125.348,27.8 C124.983,27.8 124.648,27.86 124.342,27.977 C124.044686,28.0873079 123.772616,28.2563311 123.542,28.474 C123.312,28.689 123.137,28.946 123.014,29.244 C122.89,29.544 122.829,29.87 122.829,30.222 C122.829,30.834 122.981,31.315 123.289,31.666 C123.594,32.016 123.975,32.313 124.431,32.553 C124.885,32.795 125.377,33.009 125.904,33.197 C126.431,33.387 126.924,33.617 127.379,33.891 C127.834,34.163 128.214,34.516 128.521,34.945 C128.827,35.375 128.981,35.948 128.981,36.665 C128.983619,37.2462837 128.873592,37.8225691 128.657,38.362 C128.443,38.896 128.131,39.362 127.72,39.758 C127.312,40.155 126.81,40.461 126.217,40.676 C125.625,40.89 124.952,40.998 124.197,40.998 C123.389,40.998 122.737,40.89 122.237,40.676 C121.735,40.461 121.315,40.216 120.977,39.946 C121.093,39.646 121.175,39.374 121.22,39.134 C121.267,38.894 121.308,38.584 121.348,38.206 L121.581,38.206 C121.685,38.439 121.825,38.676 122.001,38.919 L122,38.92 Z M131.82,29.833 C131.788,29.001 131.752,28.167 131.712,27.333 C132.05,27.36 132.395,27.383 132.747,27.403 C133.099,27.423 133.442,27.43 133.781,27.43 C134.121,27.43 134.465,27.414 134.816,27.383 C135.166,27.353 135.514,27.333 135.85,27.333 C136.41,27.333 136.937,27.376 137.432,27.459 C137.926,27.544 138.362,27.693 138.739,27.909 C139.115,28.122 139.415,28.413 139.636,28.777 C139.858,29.14 139.966,29.597 139.966,30.142 C139.966,31.106 139.666,31.86 139.06,32.406 C138.457,32.953 137.665,33.336 136.688,33.558 L136.688,33.598 C137.848,33.65 138.761,33.93 139.432,34.435 C140.102,34.943 140.436,35.755 140.436,36.875 C140.436,37.605 140.288,38.215 139.989,38.711 C139.689,39.205 139.299,39.605 138.816,39.911 C138.328448,40.2185984 137.790059,40.4370015 137.226,40.556 C136.658146,40.6784942 136.078916,40.7405066 135.498,40.741 C135.184,40.741 134.868,40.735 134.548,40.721 C134.231,40.709 133.918,40.701 133.602,40.701 L132.657,40.701 C132.337,40.701 132.021,40.715 131.709,40.741 C131.749,39.908 131.785,39.079 131.816,38.253 C131.848,37.427 131.864,36.585 131.864,35.723 L131.864,32.37 C131.864,31.51 131.848,30.666 131.814,29.833 L131.82,29.833 Z M135.88,33.189 C136.304,33.107643 136.710262,32.9519094 137.08,32.729 C137.433,32.516 137.715,32.229 137.93,31.871 C138.144,31.515 138.25,31.061 138.25,30.516 C138.25,29.982 138.154,29.556 137.958,29.236 C137.77715,28.931291 137.522709,28.6768502 137.218,28.496 C136.904129,28.3158078 136.559106,28.1963899 136.201,28.144 C135.827188,28.0853854 135.44938,28.0559632 135.071,28.056 C134.575015,28.0527651 134.079429,28.0848462 133.588,28.152 C133.561,28.778 133.534,29.396 133.51,30.008 C133.482,30.618 133.47,31.236 133.47,31.86 L133.47,33.326 L134.523,33.326 C134.977,33.326 135.43,33.278 135.88,33.186 L135.88,33.189 Z M133.508,38.012 C133.532,38.662 133.558,39.32 133.586,39.984 C133.833,40.009 134.126,40.034 134.463,40.05 C134.803,40.072 135.147,40.08 135.499,40.08 C135.914,40.08 136.313,40.01 136.699,39.866 C137.074736,39.728045 137.416934,39.5119558 137.703,39.232 C137.989,38.952 138.217,38.606 138.386,38.198 C138.556,37.788 138.641,37.321 138.641,36.801 C138.641,36.243 138.539,35.785 138.338,35.427 C138.134432,35.0694577 137.832463,34.7779009 137.468,34.587 C137.091,34.387 136.638,34.247 136.111,34.167 C135.526153,34.0867087 134.936321,34.0482777 134.346,34.052 L133.466,34.052 L133.466,36.042 C133.466,36.705 133.479,37.362 133.506,38.015 L133.508,38.012 Z M143.843,29.862 C143.809769,29.0192173 143.773769,28.1765461 143.735,27.334 C143.905,27.36 144.067,27.384 144.225,27.404 C144.38,27.424 144.537,27.43 144.692,27.43 C144.848,27.43 145.005,27.422 145.162,27.403 C145.319,27.383 145.48,27.36 145.649,27.333 C145.609,28.193 145.573,29.036 145.541,29.863 C145.509,30.688 145.493,31.531 145.493,32.39 L145.493,35.748 C145.493,36.605 145.509,37.451 145.541,38.285 C145.573,39.118 145.609,39.937 145.648,40.743 C145.329332,40.7170448 145.009722,40.7043671 144.69,40.705 C144.35,40.705 144.034,40.718 143.733,40.743 C143.773,39.937 143.809,39.118 143.841,38.285 C143.873,37.451 143.889,36.605 143.889,35.748 L143.889,32.39 C143.889,31.53 143.875,30.688 143.842,29.862 L143.843,29.862 Z M149.368,29.833 C149.336,29.001 149.298,28.167 149.26,27.333 C149.6,27.36 149.944,27.383 150.295,27.403 C150.645,27.423 150.991,27.43 151.33,27.43 C151.668,27.43 152.012,27.414 152.364,27.383 C152.716,27.353 153.06,27.333 153.397,27.333 C153.957,27.333 154.485,27.376 154.979,27.459 C155.474,27.544 155.909,27.693 156.287,27.909 C156.663,28.122 156.963,28.413 157.184,28.777 C157.406,29.14 157.514,29.597 157.514,30.142 C157.514,31.106 157.214,31.86 156.609,32.406 C156.004,32.953 155.212,33.336 154.237,33.558 L154.237,33.598 C155.394,33.65 156.307,33.93 156.98,34.435 C157.65,34.943 157.985,35.755 157.985,36.875 C157.985,37.605 157.837,38.215 157.535,38.711 C157.237,39.205 156.847,39.605 156.365,39.911 C155.877448,40.2185984 155.339059,40.4370015 154.775,40.556 C154.207146,40.6784942 153.627916,40.7405066 153.047,40.741 C152.734,40.741 152.42,40.735 152.099,40.721 C151.781,40.709 151.465,40.701 151.153,40.701 L150.206,40.701 C149.886,40.701 149.571,40.715 149.259,40.741 C149.299,39.908 149.335,39.079 149.367,38.253 C149.397,37.427 149.414,36.585 149.414,35.723 L149.414,32.37 C149.414,31.51 149.398,30.666 149.367,29.833 L149.368,29.833 Z M153.428,33.189 C153.876,33.099 154.276,32.945 154.628,32.729 C154.978,32.516 155.262,32.229 155.478,31.871 C155.691,31.515 155.8,31.061 155.8,30.516 C155.8,29.982 155.7,29.556 155.506,29.236 C155.325048,28.9313701 155.07063,28.676952 154.766,28.496 C154.466,28.32 154.126,28.204 153.749,28.144 C153.374186,28.0853347 152.995377,28.0559126 152.616,28.056 C152.12001,28.0525951 151.624412,28.084677 151.133,28.152 C151.106,28.778 151.079,29.396 151.055,30.008 C151.029,30.618 151.015,31.236 151.015,31.86 L151.015,33.326 L152.069,33.326 C152.525,33.326 152.977,33.278 153.426,33.186 L153.428,33.189 Z M151.056,38.012 C151.08,38.662 151.106,39.32 151.134,39.984 C151.382,40.009 151.672,40.034 152.011,40.05 C152.351,40.072 152.697,40.08 153.048,40.08 C153.464,40.08 153.863,40.01 154.248,39.866 C154.632,39.723 154.968,39.512 155.253,39.232 C155.539,38.952 155.767,38.606 155.936,38.198 C156.106,37.788 156.191,37.321 156.191,36.801 C156.191,36.243 156.089,35.785 155.888,35.427 C155.684659,35.0699799 155.383493,34.7785296 155.02,34.587 C154.64,34.387 154.19,34.247 153.662,34.167 C153.076479,34.0867491 152.485984,34.0483184 151.895,34.052 L151.017,34.052 L151.017,36.042 C151.017,36.705 151.03,37.362 151.057,38.015 L151.056,38.012 Z M161.392,29.862 C161.358,29.036 161.322,28.194 161.284,27.334 C161.454,27.36 161.616,27.384 161.771,27.404 C161.929,27.424 162.086,27.43 162.241,27.43 C162.398,27.43 162.554,27.422 162.711,27.403 C162.866,27.383 163.031,27.36 163.198,27.333 C163.158,28.193 163.123,29.036 163.092,29.863 C163.059,30.688 163.042,31.531 163.042,32.39 C163.042,34.03 163.05,35.453 163.064,36.655 C163.076,37.859 163.088,38.935 163.101,39.885 C164.025,39.885 164.911,39.875 165.755,39.857 C166.603,39.837 167.512,39.762 168.489,39.631 C168.430254,39.8214094 168.397294,40.0188337 168.391,40.218 C168.391,40.361 168.421,40.538 168.489,40.744 C167.889,40.719 167.289,40.706 166.692,40.706 L163.092,40.706 C162.512,40.706 161.912,40.719 161.285,40.744 C161.323,39.938 161.359,39.119 161.393,38.286 C161.425,37.452 161.443,36.606 161.443,35.749 L161.443,32.39 C161.443,31.53 161.426,30.688 161.395,29.862 L161.392,29.862 Z M171.25,29.862 C171.217,29.036 171.18,28.194 171.14,27.334 C171.31,27.36 171.474,27.384 171.63,27.404 C171.785956,27.4226336 171.94294,27.4313179 172.1,27.43 C172.254,27.43 172.412,27.422 172.568,27.403 C172.724,27.383 172.886,27.36 173.056,27.333 C173.016,28.193 172.981,29.036 172.946,29.863 C172.916,30.688 172.899,31.531 172.899,32.39 L172.899,35.748 C172.899,36.605 172.915,37.451 172.946,38.285 C172.98,39.118 173.016,39.937 173.056,40.743 C172.754,40.718 172.436,40.705 172.098,40.705 C171.758,40.705 171.438,40.718 171.138,40.743 C171.178,39.937 171.215,39.118 171.248,38.285 C171.278,37.451 171.296,36.605 171.296,35.748 L171.296,32.39 C171.296,31.53 171.279,30.688 171.246,29.862 L171.25,29.862 Z M176.265,31.11 C176.60003,30.2775329 177.113006,29.5283759 177.768,28.915 C178.435119,28.3028644 179.223027,27.8372055 180.081,27.548 C180.981,27.236 181.961,27.082 183.029,27.082 C184.109,27.082 185.099,27.236 185.996,27.548 C186.894,27.861 187.666,28.316 188.309,28.915 C188.954,29.515 189.455,30.245 189.812,31.111 C190.172,31.978 190.349,32.963 190.349,34.069 C190.349,35.175 190.171,36.163 189.813,37.026 C189.478632,37.8591526 188.965971,38.6090302 188.311,39.223 C187.667,39.823 186.896,40.266 185.998,40.56 C185.101,40.85 184.111,40.998 183.031,40.998 C181.964,40.998 180.981,40.85 180.084,40.558 C179.187,40.265 178.416,39.821 177.772,39.222 C177.117185,38.6076876 176.604261,37.8579245 176.269,37.025 C175.912,36.162 175.732,35.175 175.732,34.068 C175.732,32.962 175.912,31.978 176.269,31.111 L176.265,31.11 Z M188.025,31.267 C187.752,30.482 187.375,29.831 186.885,29.317 C186.406161,28.8100231 185.817874,28.4190859 185.165,28.174 C184.480768,27.9229531 183.756805,27.7976062 183.028,27.804 C182.273,27.804 181.568,27.928 180.911,28.174 C180.258617,28.4183461 179.67115,28.8094205 179.194,29.317 C178.706,29.832 178.324,30.482 178.051,31.267 C177.778,32.055 177.641,32.99 177.641,34.069 C177.641,35.147 177.778,36.082 178.051,36.871 C178.324,37.658 178.706,38.309 179.194,38.821 C179.670745,39.3292858 180.258794,39.7201773 180.912,39.963 C181.589497,40.2145797 182.307334,40.3399808 183.03,40.333 C183.798,40.333 184.51,40.213 185.168,39.963 C185.821007,39.7197877 186.408972,39.3289518 186.886,38.821 C187.376,38.308 187.753,37.658 188.028,36.871 C188.3,36.081 188.438,35.147 188.438,34.068 C188.438,32.988 188.3,32.053 188.028,31.265 L188.025,31.267 Z M195.112,28.35 C194.386371,28.3468469 193.660784,28.3628524 192.936,28.398 C192.564,28.418 192.206,28.441 191.862,28.468 C191.518,28.492 191.209,28.526 190.935,28.565 C190.994649,28.3618325 191.027263,28.1516899 191.032,27.94 C191.032,27.797 191,27.594 190.935,27.335 C191.793,27.361 192.632,27.385 193.453,27.405 C194.273,27.425 195.111,27.431 195.971,27.431 C196.829,27.431 197.669,27.424 198.491,27.405 C199.309,27.385 200.149,27.362 201.007,27.335 C200.944,27.595 200.911,27.805 200.911,27.961 C200.911,28.131 200.943,28.331 201.007,28.566 C200.735,28.526 200.425,28.494 200.081,28.468 C199.3532,28.4108196 198.623892,28.3748044 197.894,28.36 C197.539366,28.3537955 197.184688,28.3504621 196.83,28.35 C196.791404,29.6963263 196.771402,31.0431213 196.77,32.39 L196.77,35.75 C196.77,36.606 196.787,37.452 196.82,38.286 C196.853,39.119 196.888,39.938 196.927,40.744 C196.608667,40.7180263 196.28939,40.7053486 195.97,40.706 C195.632,40.706 195.313,40.719 195.014,40.744 C195.052,39.938 195.088,39.119 195.121,38.286 C195.151,37.452 195.171,36.606 195.171,35.749 L195.171,32.389 C195.169,31.035 195.148,29.687 195.109,28.349 L195.112,28.35 Z M213.12,29.862 C213.087109,29.0192181 213.051442,28.1765469 213.013,27.334 C213.181,27.36 213.345,27.384 213.498,27.404 C213.656,27.424 213.813,27.43 213.968,27.43 C214.125,27.43 214.28,27.422 214.438,27.403 C214.595,27.383 214.758,27.36 214.926,27.333 C214.886,28.193 214.85,29.036 214.818,29.863 C214.786,30.688 214.77,31.531 214.77,32.39 L214.77,35.748 C214.77,36.605 214.786,37.451 214.818,38.285 C214.85,39.118 214.885,39.937 214.926,40.743 C214.626,40.718 214.306,40.705 213.969,40.705 C213.629,40.705 213.311,40.718 213.012,40.743 C213.052,39.937 213.087,39.118 213.119,38.285 C213.149,37.451 213.167,36.605 213.167,35.748 L213.167,33.99 C212.464,33.977 211.784,33.966 211.127,33.962 C209.767717,33.9454826 208.408283,33.9454826 207.049,33.962 C206.391,33.966 205.709,33.978 205.009,33.992 L205.009,35.748 C205.009,36.605 205.024,37.451 205.057,38.285 C205.09,39.118 205.125,39.937 205.165,40.743 C204.865,40.718 204.545,40.705 204.208,40.705 C203.868,40.705 203.55,40.718 203.248,40.743 C203.288,39.937 203.325,39.118 203.358,38.285 C203.388,37.451 203.405,36.605 203.405,35.748 L203.405,32.39 C203.405,31.53 203.389,30.688 203.358,29.862 C203.325,29.036 203.288,28.194 203.248,27.334 C203.418,27.36 203.582,27.384 203.738,27.404 C203.894,27.424 204.051,27.43 204.208,27.43 C204.363,27.43 204.518,27.422 204.676,27.403 C204.833,27.383 204.996,27.36 205.164,27.333 C205.124,28.193 205.089,29.036 205.056,29.863 C205.023,30.688 205.006,31.531 205.006,32.39 L205.006,33.072 L207.048,33.112 C207.704,33.125 208.384,33.132 209.088,33.132 C209.79,33.132 210.468,33.125 211.128,33.112 L213.166,33.072 L213.166,32.39 C213.166,31.53 213.149,30.688 213.118,29.862 L213.12,29.862 Z M218.644,29.833 C218.612,29.001 218.574,28.167 218.536,27.333 C219.123,27.36 219.704,27.383 220.283,27.403 C220.863,27.423 221.445,27.43 222.03,27.43 C222.616,27.43 223.195,27.422 223.767,27.403 C224.34,27.383 224.919,27.36 225.505,27.333 C225.465694,27.5265472 225.445596,27.7235028 225.445,27.921 C225.445,28.116 225.465,28.313 225.505,28.507 C225.124097,28.4838155 224.743415,28.4571477 224.363,28.427 L223.268,28.351 C222.884,28.325 222.465,28.301 222.01,28.281 C221.463565,28.261268 220.916786,28.2525996 220.37,28.255 C220.356,28.67 220.34,29.068 220.32,29.445 C220.299331,29.8740094 220.290327,30.3035013 220.293,30.733 C220.293,31.241 220.295,31.736 220.301,32.216 C220.311,32.696 220.311,33.06 220.311,33.309 C220.885,33.309 221.401,33.302 221.855,33.289 C222.31,33.277 222.725,33.259 223.105,33.241 C223.481,33.221 223.83,33.201 224.148,33.181 C224.466,33.161 224.77,33.139 225.055,33.111 C224.977559,33.50456 224.977559,33.90944 225.055,34.303 C224.715,34.263 224.325,34.233 223.875,34.203 C223.425,34.179 222.977,34.163 222.527,34.157 L221.257,34.137 C220.941695,34.1313998 220.626353,34.1280664 220.311,34.127 C220.311,34.245 220.309,34.371 220.301,34.509 C220.295,34.645 220.293,34.819 220.293,35.027 L220.293,36.96 C220.293,37.7 220.295,38.31 220.301,38.794 C220.309,39.274 220.319,39.638 220.331,39.887 L221.697,39.887 C222.632016,39.885764 223.566663,39.8497391 224.499,39.779 C224.919,39.749 225.287,39.697 225.601,39.633 C225.576,39.725 225.559,39.823 225.553,39.935 C225.547009,40.0358948 225.543674,40.1369298 225.543,40.238 C225.543,40.446 225.563,40.615 225.603,40.746 C225.020003,40.7208882 224.436537,40.7082187 223.853,40.708 L220.311,40.708 C219.726,40.708 219.133,40.721 218.535,40.746 C218.575,39.914 218.611,39.086 218.643,38.259 C218.675,37.432 218.691,36.589 218.691,35.729 L218.691,32.373 C218.692922,31.5261088 218.677585,30.6792663 218.645,29.833 L218.644,29.833 Z M228.5,38.286 C228.535,37.452 228.55,36.606 228.55,35.749 L228.55,32.389 C228.55,31.531 228.535,30.689 228.5,29.862 C228.47,29.036 228.434,28.194 228.395,27.334 C228.565,27.36 228.725,27.384 228.883,27.404 C229.038,27.424 229.195,27.43 229.35,27.43 C229.507,27.43 229.664,27.423 229.82,27.404 C229.976,27.384 230.14,27.361 230.308,27.334 C230.27,28.194 230.233,29.037 230.2,29.864 C230.168545,30.7059657 230.152875,31.548447 230.153,32.391 L230.153,33.465 C230.153,33.569 230.19,33.62 230.27,33.62 C230.32,33.62 230.412,33.56 230.542,33.445 C230.996,33.055 231.475,32.612 231.976,32.115 C233.013812,31.0897166 234.019627,30.0325433 234.992,28.945 C235.486,28.39 235.96,27.855 236.416,27.335 C236.561,27.36 236.696,27.385 236.826,27.403 C236.956,27.423 237.086,27.43 237.218,27.43 C237.373,27.43 237.528,27.422 237.685,27.403 C237.842,27.383 237.998,27.36 238.155,27.333 C237.699,27.725 237.185,28.187 236.611,28.721 C236.030658,29.2630734 235.45464,29.8097574 234.883,30.361 C234.323168,30.9037525 233.770454,31.4537995 233.225,32.011 C232.772713,32.4701227 232.333536,32.941979 231.908,33.426 C232.9776,34.6277997 234.040948,35.8351493 235.098,37.048 C236.179906,38.2874684 237.26993,39.5198283 238.368,40.745 C238.174335,40.7199719 237.979275,40.7072796 237.784,40.707 L236.66,40.707 C236.484,40.707 236.306,40.72 236.122,40.745 C235.594727,40.1423721 235.077982,39.5306128 234.572,38.91 C234.006,38.22 233.452,37.555 232.912,36.908 C232.372,36.265 231.885,35.684 231.449,35.173 C231.012,34.658 230.689,34.296 230.482,34.089 C230.377,33.984 230.299,33.933 230.247,33.933 C230.183,33.933 230.151,33.97 230.151,34.05 L230.151,35.75 C230.151,36.606 230.167,37.452 230.198,38.286 C230.232,39.119 230.268,39.938 230.308,40.744 C230.006,40.719 229.688,40.706 229.348,40.706 C229.01,40.706 228.693,40.719 228.394,40.744 C228.431,39.938 228.467,39.119 228.499,38.286 L228.5,38.286 Z M256.55,29.013 C256.247582,28.7737065 255.920379,28.5675281 255.574,28.398 C255.193014,28.2145112 254.794277,28.0704297 254.384,27.968 C253.949,27.858 253.484,27.803 252.989,27.803 C252.179,27.803 251.427,27.928 250.732,28.173 C250.048586,28.4128221 249.428154,28.8038822 248.917,29.317 C248.403,29.832 248,30.482 247.707,31.267 C247.414,32.055 247.267,32.99 247.267,34.069 C247.267,35.019 247.397,35.877 247.659,36.647 C247.919,37.415 248.299,38.059 248.801,38.587 C249.301,39.113 249.914,39.52 250.636,39.807 C251.359,40.093 252.176,40.237 253.086,40.237 C253.359,40.237 253.646,40.222 253.943,40.197 C254.243,40.171 254.533,40.133 254.813,40.08 C255.093,40.03 255.353,39.964 255.593,39.888 C255.833,39.808 256.038,39.718 256.208,39.612 C256.221,39.224 256.228,38.835 256.236,38.442 C256.242,38.052 256.244,37.656 256.244,37.252 C256.244,36.798 256.236,36.342 256.217,35.886 C256.198738,35.4497434 256.175403,35.0137139 256.147,34.578 C256.472,34.644 256.787,34.676 257.084,34.676 C257.229,34.676 257.372,34.668 257.514,34.656 C257.659,34.646 257.794,34.618 257.924,34.579 C257.890898,35.0500199 257.87089,35.5218686 257.864,35.994 C257.852,36.638 257.846,37.486 257.846,38.541 C257.846,38.801 257.848,39.064 257.856,39.331 C257.861,39.597 257.864,39.861 257.864,40.121 C257.592,40.225 257.251,40.333 256.84,40.444 C256.43,40.554 255.995,40.646 255.532,40.716 C255.070987,40.7875288 254.608935,40.8522026 254.146,40.91 C253.684,40.97 253.264,41 252.886,41 C251.728,41 250.686,40.86 249.754,40.582 C248.824,40.302 248.031,39.868 247.382,39.282 C246.719725,38.6778625 246.205148,37.9296049 245.878,37.095 C245.528,36.225 245.353,35.215 245.353,34.07 C245.353,32.964 245.533,31.98 245.899,31.113 C246.243575,30.2755887 246.770326,29.5254294 247.441,28.917 C248.104,28.317 248.909,27.863 249.851,27.55 C250.795,27.238 251.838,27.084 252.986,27.084 C253.649,27.084 254.236,27.119 254.751,27.189 C255.266,27.259 255.721,27.355 256.117,27.472 C256.515,27.589 256.863,27.712 257.164,27.842 C257.464,27.972 257.73,28.095 257.964,28.212 C257.86,28.396 257.764,28.629 257.681,28.915 C257.596,29.201 257.541,29.47 257.515,29.715 L257.282,29.715 C257.061473,29.4566961 256.815574,29.2211821 256.548,29.012 L256.55,29.013 Z M260.827,31.11 C261.161752,30.2781311 261.673606,29.5291184 262.327,28.915 C262.994465,28.3028166 263.782708,27.8371606 264.641,27.548 C265.541,27.236 266.521,27.082 267.591,27.082 C268.669,27.082 269.658,27.236 270.557,27.548 C271.457,27.861 272.227,28.316 272.869,28.915 C273.515,29.515 274.016,30.245 274.373,31.111 C274.733,31.978 274.911,32.963 274.911,34.069 C274.911,35.175 274.731,36.163 274.373,37.026 C274.038682,37.8596776 273.525239,38.6096997 272.869,39.223 C272.226,39.823 271.457,40.266 270.557,40.56 C269.659,40.85 268.669,40.998 267.591,40.998 C266.521,40.998 265.541,40.85 264.641,40.558 C263.745,40.265 262.974,39.821 262.329,39.222 C261.67544,38.6072404 261.163583,37.8575403 260.829,37.025 C260.469,36.162 260.289,35.175 260.289,34.068 C260.289,32.962 260.469,31.978 260.829,31.111 L260.827,31.11 Z M272.587,31.267 C272.314,30.482 271.934,29.831 271.444,29.317 C270.966928,28.8097939 270.379877,28.4187687 269.728,28.174 C269.043453,27.9228344 268.31914,27.7974855 267.59,27.804 C266.833,27.804 266.13,27.928 265.47,28.174 C264.81791,28.4183533 264.230771,28.8094376 263.754,29.317 C263.266,29.832 262.884,30.482 262.611,31.267 C262.339,32.055 262.201,32.99 262.201,34.069 C262.201,35.147 262.339,36.082 262.611,36.871 C262.884,37.658 263.266,38.309 263.755,38.821 C264.242,39.336 264.815,39.717 265.472,39.963 C266.132,40.213 266.835,40.333 267.592,40.333 C268.36,40.333 269.072,40.213 269.73,39.963 C270.382405,39.7197421 270.969709,39.3288907 271.446,38.821 C271.936,38.308 272.316,37.658 272.588,36.871 C272.861,36.081 272.998,35.147 272.998,34.068 C272.998,32.988 272.861,32.053 272.588,31.265 L272.587,31.267 Z M264.973,24.212 C265.157184,24.0212594 265.411866,23.9149011 265.677,23.918 C265.95,23.918 266.184,24.016 266.379,24.212 C266.572,24.405 266.669,24.642 266.669,24.914 C266.672753,25.1772936 266.567853,25.4305004 266.379,25.614 C266.196132,25.8061722 265.941243,25.9131314 265.676,25.909 C265.410646,25.9121966 265.155807,25.8054101 264.972,25.614 C264.783046,25.4305685 264.678128,25.1773164 264.682,24.914 C264.682,24.64 264.778,24.404 264.972,24.211 L264.973,24.212 Z M268.818,24.212 C269.002355,24.0209043 269.257496,23.914505 269.523,23.918 C269.795,23.918 270.03,24.016 270.223,24.212 C270.421,24.405 270.518,24.642 270.518,24.914 C270.521917,25.1781251 270.415339,25.4318826 270.224,25.614 C270.041844,25.8054006 269.788205,25.9122916 269.524,25.909 C269.257908,25.9129946 269.002144,25.8061247 268.818,25.614 C268.628411,25.4308419 268.52277,25.1775911 268.526,24.914 C268.526,24.64 268.624,24.404 268.818,24.211 L268.818,24.212 Z M280.395,28.35 C279.669704,28.3468282 278.94445,28.3628338 278.22,28.398 C277.85,28.418 277.49,28.441 277.145,28.468 C276.8,28.492 276.493,28.526 276.219,28.565 C276.278092,28.3617085 276.310695,28.1516393 276.316,27.94 C276.305978,27.7353118 276.273107,27.5323852 276.218,27.335 C277.074,27.361 277.914,27.385 278.735,27.405 C279.555,27.425 280.395,27.431 281.252,27.431 C282.112,27.431 282.95,27.424 283.772,27.405 C284.592,27.385 285.429,27.362 286.292,27.335 C286.225,27.595 286.192,27.805 286.192,27.961 C286.192,28.131 286.224,28.331 286.292,28.566 C285.983164,28.523103 285.672994,28.4904185 285.362,28.468 C284.281845,28.3824595 283.19851,28.3434234 282.115,28.351 C282.075,29.691 282.055,31.038 282.055,32.391 L282.055,35.751 C282.055,36.607 282.072,37.453 282.103,38.287 C282.136,39.12 282.173,39.939 282.211,40.745 C281.911,40.72 281.591,40.707 281.253,40.707 C280.913,40.707 280.597,40.72 280.297,40.745 C280.337,39.939 280.372,39.12 280.403,38.287 C280.435,37.453 280.453,36.607 280.453,35.75 L280.453,32.39 C280.451616,31.0431212 280.431614,29.6963259 280.393,28.35 L280.395,28.35 Z M291.344,28.35 C290.618371,28.3469136 289.892787,28.3629191 289.168,28.398 C288.798,28.418 288.44,28.441 288.098,28.468 C287.752,28.492 287.443,28.526 287.168,28.565 C287.234,28.33 287.266,28.123 287.266,27.94 C287.266,27.797 287.236,27.594 287.169,27.335 C288.029,27.361 288.866,27.385 289.687,27.405 C290.507,27.423 291.345,27.431 292.207,27.431 C293.063,27.431 293.903,27.424 294.724,27.405 C295.544,27.385 296.384,27.362 297.241,27.335 C297.178,27.595 297.145,27.805 297.145,27.961 C297.145,28.131 297.178,28.331 297.241,28.566 C296.969,28.526 296.659,28.494 296.316,28.468 C295.587881,28.4105974 294.858233,28.3745819 294.128,28.36 C293.774033,28.3538063 293.420021,28.3504729 293.066,28.35 C293.027404,29.6963263 293.007402,31.0431213 293.006,32.39 L293.006,35.75 C293.006,36.606 293.024,37.452 293.058,38.286 C293.088,39.119 293.124,39.938 293.163,40.744 C292.845668,40.7180586 292.52739,40.7053809 292.209,40.706 C291.869,40.706 291.553,40.719 291.252,40.744 C291.289,39.938 291.325,39.119 291.359,38.286 C291.389,37.452 291.407,36.606 291.407,35.749 L291.407,32.389 C291.407,31.035 291.385,29.687 291.347,28.349 L291.344,28.35 Z M299.592,29.862 C299.562,29.036 299.524,28.194 299.486,27.334 C299.656,27.36 299.818,27.384 299.974,27.404 C300.129,27.424 300.286,27.43 300.441,27.43 C300.601,27.43 300.755,27.422 300.911,27.403 C301.069,27.383 301.231,27.36 301.399,27.333 C301.359,28.193 301.325,29.036 301.291,29.863 C301.261,30.688 301.243,31.531 301.243,32.39 L301.243,35.748 C301.243,36.605 301.26,37.451 301.291,38.285 C301.325,39.118 301.361,39.937 301.399,40.743 C301.099,40.718 300.779,40.705 300.442,40.705 C300.106,40.705 299.786,40.718 299.488,40.743 C299.526,39.937 299.563,39.118 299.594,38.285 C299.627,37.451 299.644,36.605 299.644,35.748 L299.644,32.39 C299.644,31.53 299.628,30.688 299.594,29.862 L299.592,29.862 Z M311.373,35.68 C309.683,33.864 307.991,32.058 306.298,30.262 C306.286,30.628 306.273,31.116 306.258,31.725 C306.245,32.337 306.238,33.17 306.238,34.225 C306.238,34.497 306.243,34.835 306.251,35.241 C306.256,35.646 306.261,36.068 306.271,36.511 C306.276,36.953 306.288,37.404 306.299,37.857 L306.339,39.127 C306.349,39.517 306.363,39.86 306.377,40.151 C306.391,40.445 306.402,40.643 306.417,40.747 C305.950064,40.6958394 305.478936,40.6958394 305.012,40.747 C305.035,40.617 305.065,40.377 305.099,40.024 C305.131,39.671 305.161,39.254 305.186,38.764 C305.211,38.277 305.241,37.746 305.274,37.174 C305.307,36.601 305.332,36.03 305.352,35.457 C305.389604,34.4096998 305.412939,33.3619359 305.422,32.314 C305.422,31.064 305.419,29.991 305.412,29.092 C305.411934,28.4223563 305.395263,27.7528171 305.362,27.084 L305.676,27.084 C306.468,27.941 307.316,28.862 308.222,29.844 C309.125,30.828 310.024,31.797 310.916,32.754 C311.808,33.709 312.653,34.614 313.453,35.464 C314.253,36.319 314.953,37.044 315.553,37.644 L315.553,34.988 C315.553,33.622 315.543,32.292 315.525,30.998 C315.506771,29.7772376 315.463429,28.5569794 315.395,27.338 C315.658,27.402 315.879,27.434 316.06,27.434 C316.216,27.434 316.425,27.404 316.685,27.337 C316.661,27.623 316.629,28.053 316.597,28.627 C316.526645,29.8755559 316.464976,31.1245861 316.412,32.374 C316.384,32.999 316.372,33.5 316.372,33.878 L316.372,35.048 C316.372,35.488 316.375,35.952 316.382,36.434 L316.402,37.889 C316.407,38.374 316.414,38.829 316.422,39.255 C316.428,39.678 316.432,40.045 316.432,40.358 L316.432,41 L316.16,41 C314.59811,39.1971637 313.002834,37.4235239 311.375,35.68 L311.373,35.68 Z M330.904,29.013 C330.600754,28.7738666 330.272906,28.5677043 329.926,28.398 C329.545014,28.2145112 329.146277,28.0704297 328.736,27.968 C328.279387,27.8548949 327.810399,27.7994629 327.34,27.803 C326.532,27.803 325.78,27.928 325.085,28.173 C324.39,28.423 323.785,28.803 323.27,29.317 C322.755,29.832 322.354,30.482 322.06,31.267 C321.767,32.055 321.62,32.99 321.62,34.069 C321.62,35.019 321.75,35.877 322.01,36.647 C322.27,37.415 322.653,38.059 323.154,38.587 C323.654,39.113 324.266,39.52 324.989,39.807 C325.711,40.093 326.526,40.237 327.439,40.237 C327.711,40.237 327.999,40.222 328.295,40.197 C328.595,40.171 328.885,40.133 329.165,40.08 C329.445,40.03 329.705,39.964 329.945,39.888 C330.185,39.808 330.39,39.718 330.56,39.612 C330.575,39.224 330.582,38.835 330.59,38.442 C330.596,38.052 330.598,37.656 330.598,37.252 C330.598,36.798 330.59,36.342 330.571,35.886 C330.553,35.43 330.529,34.993 330.503,34.578 C330.828,34.644 331.143,34.676 331.44,34.676 C331.584,34.676 331.727,34.668 331.87,34.656 C332.014,34.646 332.15,34.618 332.28,34.579 C332.255,34.876 332.234,35.349 332.22,35.994 C332.208,36.638 332.202,37.486 332.202,38.541 C332.202,38.801 332.204,39.064 332.212,39.331 C332.218,39.597 332.22,39.861 332.22,40.121 C331.464845,40.3978686 330.683492,40.5972275 329.888,40.716 C329.426987,40.7875288 328.964935,40.8522026 328.502,40.91 C328.042,40.97 327.618,41 327.244,41 C326.084,41 325.041,40.86 324.111,40.582 C323.181,40.302 322.388,39.868 321.739,39.282 C321.076725,38.6778625 320.562148,37.9296049 320.235,37.095 C319.885,36.225 319.709,35.215 319.709,34.07 C319.709,32.964 319.893,31.98 320.255,31.113 C320.60066,30.2759291 321.127643,29.5259257 321.798,28.917 C322.461,28.317 323.265,27.863 324.208,27.55 C325.152,27.238 326.195,27.084 327.342,27.084 C328.007,27.084 328.594,27.119 329.109,27.189 C329.624,27.259 330.079,27.355 330.475,27.472 C330.872,27.589 331.22,27.712 331.52,27.842 C331.82,27.972 332.087,28.095 332.322,28.212 C332.217,28.396 332.122,28.629 332.037,28.915 C331.954,29.201 331.897,29.47 331.873,29.715 L331.639,29.715 C331.418952,29.4569384 331.173741,29.221442 330.907,29.012 L330.904,29.013 Z M335.685,29.833 C335.655,29.001 335.615,28.167 335.577,27.333 C336.164,27.36 336.747,27.383 337.325,27.403 C337.905,27.423 338.487,27.43 339.072,27.43 C339.657,27.43 340.237,27.422 340.808,27.403 C341.381,27.383 341.961,27.36 342.546,27.333 C342.468736,27.720183 342.468736,28.118817 342.546,28.506 C342.164769,28.4827439 341.783754,28.4560762 341.403,28.426 L340.31,28.35 C339.926,28.324 339.506,28.3 339.05,28.28 C338.503566,28.2602387 337.956786,28.2515703 337.41,28.254 C337.397,28.669 337.382,29.067 337.36,29.444 C337.341248,29.8730705 337.332578,30.3025223 337.334,30.732 C337.334,31.24 337.337,31.735 337.344,32.215 C337.35,32.695 337.354,33.059 337.354,33.308 C337.926,33.308 338.438,33.301 338.894,33.288 C339.35,33.276 339.764,33.258 340.144,33.24 C340.524,33.22 340.87,33.2 341.189,33.18 C341.505,33.16 341.809,33.138 342.094,33.11 C342.057,33.307 342.034,33.508 342.034,33.718 C342.034,33.911 342.056,34.106 342.094,34.303 C341.756,34.263 341.364,34.231 340.914,34.203 C340.464,34.178 340.014,34.163 339.566,34.156 L338.298,34.136 C337.9,34.129 337.584,34.126 337.35,34.126 C337.35,34.244 337.347,34.37 337.34,34.508 C337.334,34.644 337.33,34.818 337.33,35.026 L337.33,36.959 C337.33,37.699 337.334,38.309 337.34,38.793 C337.347,39.273 337.356,39.637 337.37,39.886 L338.735,39.886 C339.669349,39.8847006 340.603327,39.8486757 341.535,39.778 C341.96,39.748 342.328,39.696 342.64,39.632 C342.614,39.724 342.598,39.822 342.594,39.934 C342.586414,40.0348261 342.582411,40.1358898 342.582,40.237 C342.582,40.445 342.602,40.614 342.642,40.745 C342.059671,40.7198702 341.476871,40.7072006 340.894,40.707 L337.352,40.707 C336.766,40.707 336.172,40.72 335.575,40.745 C335.613,39.913 335.652,39.085 335.683,38.258 C335.713,37.431 335.731,36.588 335.731,35.728 L335.731,32.372 C335.732755,31.5251194 335.717753,30.678287 335.686,29.832 L335.685,29.833 Z M351.798,35.68 C350.108,33.864 348.414,32.058 346.724,30.262 C346.71,30.628 346.699,31.116 346.684,31.725 C346.662999,32.8968832 346.659666,34.0690163 346.674,35.241 L346.694,36.511 C346.717374,37.7246751 346.753376,38.9380741 346.802,40.151 C346.817,40.445 346.826,40.643 346.84,40.747 C346.372386,40.6960113 345.900614,40.6960113 345.433,40.747 C345.46,40.617 345.49,40.377 345.523,40.024 C345.555,39.671 345.585,39.254 345.61,38.764 L345.698,37.174 C345.728,36.601 345.758,36.03 345.776,35.457 C345.796,34.883 345.813,34.323 345.826,33.779 C345.839,33.229 345.846,32.743 345.846,32.314 C345.846,31.064 345.843,29.991 345.836,29.092 C345.835934,28.4223563 345.819263,27.7528171 345.786,27.084 L346.098,27.084 C346.893,27.941 347.742,28.862 348.648,29.844 C349.55,30.828 350.448,31.797 351.34,32.754 C352.233,33.709 353.076,34.614 353.878,35.464 C354.678,36.319 355.378,37.044 355.975,37.644 L355.975,34.988 C355.975,33.622 355.967,32.292 355.945,30.998 C355.929378,29.7772496 355.887702,28.5569717 355.82,27.338 C356.08,27.402 356.3,27.434 356.484,27.434 C356.639,27.434 356.849,27.404 357.109,27.337 C357.071008,27.7664051 357.041003,28.1964794 357.019,28.627 C356.986,29.199 356.955,29.809 356.922,30.461 C356.889,31.111 356.859,31.747 356.834,32.373 C356.811309,32.8740299 356.798639,33.3754635 356.796,33.877 L356.796,35.047 C356.796,35.487 356.798,35.951 356.806,36.433 C356.812,36.916 356.816,37.398 356.826,37.888 C356.83,38.373 356.838,38.828 356.844,39.254 C356.852,39.677 356.854,40.044 356.854,40.357 L356.854,41 L356.581,41 C355.020011,39.1966684 353.42506,37.423018 351.797,35.68 L351.798,35.68 Z" transform="translate(134)"/>
    <polygon points="115.4 3.07 115.4 41.022 114.39 41.022 114.39 3.07"/>
    <path d="M76.19,26.946 L76.19,35.686 L85.208,35.686 C85.581,35.686 85.938,35.666 86.281,35.626 C85.784142,36.5214865 85.0355899,37.2516116 84.128,37.726 C83.196,38.209 82.083,38.451 80.788,38.451 L71.772,38.451 L71.772,26.947 L76.192,26.947 L76.19,26.946 Z M76.19,10.962 L76.19,19.027 L84.664,19.027 C85.077,19.027 85.476,19.007 85.854,18.96 C85.5847796,19.4990004 85.2084413,19.9774195 84.748,20.366 C83.644,21.316 82.14,21.792 80.241,21.792 L71.771,21.792 L71.771,10.962 L76.191,10.962 L76.19,10.962 Z M91.097,27.362 C90.895,27.087 90.687,26.822 90.469,26.578 C89.995,25.886 89.346,25.33 88.522,24.91 C87.992,24.597 87.522,24.366 87.028,24.175 C87.925,23.83 88.762,23.285 89.538,22.545 C90.318,21.785 90.938,20.86 91.404,19.771 C91.888,18.667 92.131,17.466 92.131,16.171 C92.131,14.081 91.663,12.261 90.731,10.706 C89.815,9.136 88.486,7.934 86.741,7.103 C85.013,6.258 83.011,5.836 80.731,5.836 L70.44,5.836 L70.44,3.07 L85.155,3.07 C87.435,3.07 89.439,3.492 91.167,4.34 C92.907,5.17 94.237,6.37 95.153,7.94 C96.087,9.496 96.553,11.318 96.553,13.405 C96.553,14.701 96.311,15.903 95.828,17.005 C95.363,18.095 94.741,19.019 93.963,19.779 C93.187,20.521 92.349,21.065 91.449,21.409 C93.072,22.031 94.427,23.092 95.515,24.596 C96.605,26.1 97.148,27.956 97.148,30.166 C97.148,32.446 96.663,34.39 95.698,35.996 C94.745,37.584 93.398,38.793 91.656,39.62 C91.198,39.84 90.721,40.027 90.228,40.183 C90.618,39.748 90.968,39.275 91.278,38.761 C92.242,37.153 92.726,35.211 92.726,32.931 C92.726,30.723 92.183,28.866 91.096,27.363 L91.097,27.362 Z M23.97,5.652 C24.544,6.067 25.105,6.528 25.647,7.034 L21.967,10.66 C21.207,9.918 20.397,9.34 19.535,8.926 C18.6832088,8.4989858 17.775685,8.19367275 16.839,8.019 C15.907,7.829 14.877,7.734 13.755,7.734 C12.648,7.734 11.658,7.884 10.785,8.182 C10.9165438,7.7311822 11.1072007,7.29976647 11.352,6.899 C11.902,6.001 12.695,5.299 13.732,4.799 C14.77,4.299 16.005,4.047 17.44,4.047 C18.56,4.047 19.59,4.143 20.523,4.334 C21.4589244,4.50791226 22.3655622,4.81326707 23.216,5.241 C23.473,5.364 23.726,5.501 23.97,5.651 L23.97,5.652 Z M21.11,31.75 C21.232,31.276 21.294,30.766 21.294,30.22 C21.294,28.51 20.794,27.207 19.794,26.31 C19.3454736,25.8629529 18.8054205,25.5183834 18.211,25.3 C17.626,25.057 16.781,24.86 15.675,24.703 L11.217,24.081 C8.143,23.651 5.75,22.641 4.041,21.051 C2.211,19.341 1.295,16.941 1.295,13.848 C1.295,11.656 1.805,9.722 2.825,8.046 C3.688,6.626 4.867,5.479 6.365,4.606 C5.443,6.224 4.98,8.076 4.98,10.166 C4.98,13.258 5.894,15.659 7.726,17.368 C9.436,18.958 11.826,19.968 14.902,20.398 L19.358,21.018 C20.462,21.178 21.311,21.376 21.898,21.618 C22.501,21.84 23.028,22.178 23.478,22.628 C24.478,23.525 24.982,24.828 24.982,26.538 C24.978,28.37 24.289,29.794 22.907,30.812 C22.383,31.197 21.784,31.512 21.11,31.752 L21.11,31.75 Z M0,36.18 L3.708,32.52 C5.482,34.287 7.424,35.557 9.538,36.33 C11.682,37.09 14.194,37.47 17.078,37.47 C19.064,37.47 20.878,37.228 22.518,36.745 C23.6042242,36.4188615 24.6455792,35.9586498 25.618,35.375 C24.9798471,36.4753582 24.1370238,37.443434 23.135,38.227 C21.909,39.194 20.475,39.93 18.835,40.429 C17.195,40.911 15.382,41.153 13.395,41.155 C10.51,41.155 7.998,40.775 5.855,40.015 C3.73,39.236 1.78,37.956 0,36.18 Z M35.37,3.07 L39.792,3.07 L39.792,27.838 C39.792,29.494 40.11,30.948 40.75,32.19 C40.875,32.43 41.01,32.656 41.153,32.875 C40.4161423,32.7217744 39.7067568,32.4577777 39.049,32.092 C37.8825933,31.4291298 36.9367317,30.4380617 36.329,29.242 C35.689,27.999 35.369,26.547 35.369,24.89 L35.369,3.07 L35.37,3.07 Z M61.164,28.097 C61.164,30.652 60.577,32.924 59.404,34.911 C58.228,36.896 56.606,38.435 54.532,39.521 C52.479,40.611 50.162,41.155 47.59,41.155 C45.034,41.155 42.728,40.611 40.673,39.521 C39.5078187,38.911843 38.4488153,38.1182659 37.537,37.171 C39.253,37.861 41.131,38.204 43.169,38.204 C45.739,38.204 48.056,37.661 50.109,36.571 C52.181,35.486 53.806,33.948 54.981,31.961 C56.155,29.977 56.743,27.705 56.743,25.151 L56.743,3.07 L61.163,3.07 L61.163,28.097 L61.164,28.097 Z"/>
  </g>
</svg>
