<svg xmlns="http://www.w3.org/2000/svg" width="388" height="193" viewBox="0 0 388 193">
  <g fill="#FFF">
    <path d="M307.55 168.633C307.55 164.368 311.008 160.91 315.273 160.91 319.54 160.91 322.996 164.368 322.996 168.633 322.996 172.899 319.54 176.357 315.273 176.357 311.008 176.356 307.55 172.898 307.55 168.633M371.953 24.229C371.953 19.964 375.41 16.506 379.675 16.506 383.941 16.506 387.398 19.964 387.398 24.229 387.398 28.494 383.941 31.952 379.675 31.952 375.41 31.952 371.953 28.494 371.953 24.229M291.284 3.605C291.284 2.212 292.414 1.082 293.805 1.082 295.2 1.082 296.329 2.212 296.329 3.605 296.329 4.998 295.199 6.128 293.805 6.128 292.414 6.128 291.284 4.998 291.284 3.605M355.689 189.262C355.689 187.869 356.818 186.74 358.21 186.74 359.605 186.74 360.733 187.87 360.733 189.262 360.733 190.656 359.604 191.785 358.21 191.785 356.818 191.785 355.689 190.655 355.689 189.262M377.147 168.637C377.147 167.243 378.276 166.114 379.669 166.114 381.062 166.114 382.191 167.244 382.191 168.637 382.191 170.03 381.061 171.158 379.669 171.158 378.276 171.157 377.147 170.029 377.147 168.637M333.141 189.265C333.141 187.274 334.753 185.661 336.745 185.661 338.735 185.661 340.349 187.273 340.349 189.265 340.349 191.255 338.735 192.869 336.745 192.869 334.753 192.869 333.141 191.255 333.141 189.265M331.593 65.488C331.593 62.644 333.897 60.34 336.739 60.34 339.584 60.34 341.888 62.644 341.888 65.488 341.888 68.331 339.583 70.636 336.739 70.636 333.896 70.636 331.593 68.331 331.593 65.488M331.593 24.228C331.593 21.384 333.897 19.079 336.739 19.079 339.584 19.079 341.888 21.384 341.888 24.228 341.888 27.071 339.583 29.376 336.739 29.376 333.896 29.375 331.593 27.07 331.593 24.228M225.808 86.118C225.808 84.128 227.42 82.514 229.412 82.514 231.404 82.514 233.016 84.128 233.016 86.118 233.016 88.109 231.403 89.722 229.412 89.722 227.421 89.722 225.808 88.109 225.808 86.118M311.668 3.604C311.668 1.614 313.281 0 315.272 0 317.263 0 318.876 1.614 318.876 3.604 318.876 5.594 317.264 7.208 315.272 7.208 313.281 7.208 311.668 5.594 311.668 3.604M307.55 24.229C307.55 19.964 311.008 16.506 315.273 16.506 319.54 16.506 322.996 19.964 322.996 24.229 322.996 28.494 319.54 31.952 315.273 31.952 311.008 31.952 307.55 28.494 307.55 24.229M290.204 24.224C290.204 22.234 291.818 20.62 293.808 20.62 295.798 20.62 297.412 22.234 297.412 24.224 297.412 26.215 295.798 27.828 293.808 27.828 291.818 27.828 290.204 26.215 290.204 24.224M247.267 24.224C247.267 22.234 248.879 20.62 250.871 20.62 252.86 20.62 254.474 22.234 254.474 24.224 254.474 26.215 252.861 27.828 250.871 27.828 248.879 27.828 247.267 26.215 247.267 24.224M226.886 24.222C226.886 22.829 228.016 21.699 229.408 21.699 230.8 21.699 231.93 22.829 231.93 24.222 231.93 25.615 230.8 26.745 229.408 26.745 228.016 26.745 226.886 25.615 226.886 24.222M333.14 44.861C333.14 42.871 334.752 41.257 336.744 41.257 338.734 41.257 340.348 42.871 340.348 44.861 340.348 46.852 338.734 48.465 336.744 48.465 334.752 48.465 333.14 46.853 333.14 44.861M310.127 44.859C310.127 42.016 312.431 39.711 315.273 39.711 318.117 39.711 320.423 42.016 320.423 44.859 320.423 47.702 318.116 50.007 315.273 50.007 312.431 50.007 310.127 47.703 310.127 44.859M286.087 44.86C286.087 40.595 289.543 37.137 293.81 37.137 298.075 37.137 301.532 40.595 301.532 44.86 301.532 49.125 298.075 52.582 293.81 52.582 289.543 52.583 286.087 49.125 286.087 44.86M268.733 44.861C268.733 42.871 270.345 41.257 272.337 41.257 274.327 41.257 275.941 42.871 275.941 44.861 275.941 46.852 274.328 48.465 272.337 48.465 270.346 48.465 268.733 46.853 268.733 44.861M245.726 44.859C245.726 42.016 248.031 39.711 250.875 39.711 253.718 39.711 256.022 42.016 256.022 44.859 256.022 47.702 253.717 50.007 250.875 50.007 248.03 50.007 245.726 47.703 245.726 44.859M225.803 44.855C225.803 42.865 227.416 41.251 229.407 41.251 231.398 41.251 233.011 42.865 233.011 44.855 233.011 46.846 231.399 48.459 229.407 48.459 227.416 48.459 225.803 46.847 225.803 44.855M353.058 65.488C353.058 62.644 355.363 60.34 358.207 60.34 361.05 60.34 363.354 62.644 363.354 65.488 363.354 68.331 361.049 70.636 358.207 70.636 355.362 70.636 353.058 68.331 353.058 65.488M310.127 65.488C310.127 62.644 312.431 60.34 315.273 60.34 318.117 60.34 320.423 62.644 320.423 65.488 320.423 68.331 318.116 70.636 315.273 70.636 312.431 70.636 310.127 68.331 310.127 65.488M288.661 65.488C288.661 62.644 290.966 60.34 293.808 60.34 296.652 60.34 298.957 62.644 298.957 65.488 298.957 68.331 296.651 70.636 293.808 70.636 290.966 70.636 288.661 68.331 288.661 65.488M267.193 65.488C267.193 62.644 269.497 60.34 272.339 60.34 275.184 60.34 277.489 62.644 277.489 65.488 277.489 68.331 275.183 70.636 272.339 70.636 269.497 70.636 267.193 68.331 267.193 65.488M245.726 65.488C245.726 62.644 248.031 60.34 250.875 60.34 253.718 60.34 256.022 62.644 256.022 65.488 256.022 68.331 253.717 70.636 250.875 70.636 248.03 70.636 245.726 68.331 245.726 65.488M225.803 65.485C225.803 63.494 227.416 61.881 229.407 61.881 231.398 61.881 233.011 63.494 233.011 65.485 233.011 67.475 231.399 69.089 229.407 69.089 227.416 69.089 225.803 67.476 225.803 65.485M205.42 65.483C205.42 64.09 206.55 62.96 207.943 62.96 209.336 62.96 210.464 64.09 210.464 65.483 210.464 66.876 209.335 68.006 207.943 68.006 206.55 68.006 205.42 66.876 205.42 65.483M354.607 86.118C354.607 84.128 356.22 82.514 358.211 82.514 360.203 82.514 361.815 84.128 361.815 86.118 361.815 88.109 360.203 89.722 358.211 89.722 356.221 89.722 354.607 88.109 354.607 86.118M331.593 86.116C331.593 83.273 333.897 80.968 336.739 80.968 339.584 80.968 341.888 83.273 341.888 86.116 341.888 88.96 339.583 91.264 336.739 91.264 333.896 91.264 331.593 88.96 331.593 86.116M310.127 86.116C310.127 83.273 312.431 80.968 315.273 80.968 318.117 80.968 320.423 83.273 320.423 86.116 320.423 88.96 318.116 91.264 315.273 91.264 312.431 91.264 310.127 88.96 310.127 86.116M288.661 86.116C288.661 83.273 290.966 80.968 293.808 80.968 296.652 80.968 298.957 83.273 298.957 86.116 298.957 88.96 296.651 91.264 293.808 91.264 290.966 91.264 288.661 88.96 288.661 86.116M264.62 86.117C264.62 81.852 268.078 78.394 272.343 78.394 276.608 78.394 280.065 81.852 280.065 86.117 280.065 90.382 276.608 93.84 272.343 93.84 268.078 93.84 264.62 90.382 264.62 86.117M245.726 86.116C245.726 83.273 248.031 80.968 250.875 80.968 253.718 80.968 256.022 83.273 256.022 86.116 256.022 88.96 253.717 91.264 250.875 91.264 248.03 91.264 245.726 88.96 245.726 86.116M329.02 106.745C329.02 102.48 332.477 99.022 336.743 99.022 341.008 99.022 344.465 102.48 344.465 106.745 344.465 111.011 341.008 114.469 336.743 114.469 332.477 114.469 329.02 111.011 329.02 106.745M310.127 106.744C310.127 103.901 312.431 101.598 315.273 101.598 318.117 101.598 320.423 103.902 320.423 106.744 320.423 109.588 318.116 111.892 315.273 111.892 312.431 111.893 310.127 109.588 310.127 106.744M288.661 106.744C288.661 103.901 290.966 101.598 293.808 101.598 296.652 101.598 298.957 103.902 298.957 106.744 298.957 109.588 296.651 111.892 293.808 111.892 290.966 111.893 288.661 109.588 288.661 106.744M267.193 106.744C267.193 103.901 269.497 101.598 272.339 101.598 275.184 101.598 277.489 103.902 277.489 106.744 277.489 109.588 275.183 111.892 272.339 111.892 269.497 111.893 267.193 109.588 267.193 106.744M247.275 106.741C247.275 104.75 248.888 103.137 250.879 103.137 252.87 103.137 254.483 104.75 254.483 106.741 254.483 108.731 252.87 110.345 250.879 110.345 248.889 110.345 247.275 108.731 247.275 106.741M377.147 127.375C377.147 125.982 378.276 124.853 379.669 124.853 381.062 124.853 382.191 125.983 382.191 127.375 382.191 128.769 381.061 129.898 379.669 129.898 378.276 129.898 377.147 128.769 377.147 127.375M354.607 127.375C354.607 125.386 356.22 123.771 358.211 123.771 360.203 123.771 361.815 125.385 361.815 127.375 361.815 129.365 360.203 130.979 358.211 130.979 356.221 130.979 354.607 129.365 354.607 127.375M331.593 127.373C331.593 124.53 333.897 122.225 336.739 122.225 339.584 122.225 341.888 124.531 341.888 127.373 341.888 130.215 339.583 132.521 336.739 132.521 333.896 132.521 331.593 130.216 331.593 127.373M307.55 127.373C307.55 123.108 311.008 119.65 315.273 119.65 319.54 119.65 322.996 123.108 322.996 127.373 322.996 131.639 319.54 135.097 315.273 135.097 311.008 135.097 307.55 131.639 307.55 127.373M288.661 127.373C288.661 124.53 290.966 122.225 293.808 122.225 296.652 122.225 298.957 124.531 298.957 127.373 298.957 130.215 296.651 132.521 293.808 132.521 290.966 132.521 288.661 130.216 288.661 127.373M267.193 127.373C267.193 124.53 269.497 122.225 272.339 122.225 275.184 122.225 277.489 124.531 277.489 127.373 277.489 130.215 275.183 132.521 272.339 132.521 269.497 132.521 267.193 130.216 267.193 127.373M247.275 127.375C247.275 125.386 248.888 123.771 250.879 123.771 252.87 123.771 254.483 125.385 254.483 127.375 254.483 129.365 252.87 130.979 250.879 130.979 248.889 130.979 247.275 129.365 247.275 127.375M226.886 127.375C226.886 125.982 228.016 124.853 229.408 124.853 230.8 124.853 231.93 125.983 231.93 127.375 231.93 128.769 230.8 129.898 229.408 129.898 228.016 129.898 226.886 128.769 226.886 127.375M376.066 148C376.066 146.011 377.678 144.396 379.67 144.396 381.66 144.396 383.274 146.01 383.274 148 383.274 149.99 381.661 151.604 379.67 151.604 377.679 151.604 376.066 149.99 376.066 148M353.058 148.005C353.058 145.162 355.363 142.857 358.207 142.857 361.05 142.857 363.354 145.163 363.354 148.005 363.354 150.849 361.049 153.152 358.207 153.152 355.362 153.152 353.058 150.849 353.058 148.005M331.593 148.005C331.593 145.162 333.897 142.857 336.739 142.857 339.584 142.857 341.888 145.163 341.888 148.005 341.888 150.849 339.583 153.152 336.739 153.152 333.896 153.152 331.593 150.849 331.593 148.005M310.127 148.005C310.127 145.162 312.431 142.857 315.273 142.857 318.117 142.857 320.423 145.163 320.423 148.005 320.423 150.849 318.116 153.152 315.273 153.152 312.431 153.152 310.127 150.849 310.127 148.005M290.203 148C290.203 146.011 291.816 144.396 293.807 144.396 295.798 144.396 297.411 146.01 297.411 148 297.411 149.99 295.797 151.604 293.807 151.604 291.817 151.604 290.203 149.99 290.203 148M354.604 168.635C354.604 166.646 356.217 165.031 358.208 165.031 360.199 165.031 361.812 166.645 361.812 168.635 361.812 170.626 360.199 172.239 358.208 172.239 356.217 172.239 354.604 170.626 354.604 168.635M331.593 168.633C331.593 165.79 333.897 163.486 336.739 163.486 339.584 163.486 341.888 165.791 341.888 168.633 341.888 171.478 339.583 173.782 336.739 173.782 333.896 173.782 331.593 171.478 331.593 168.633M37.76 112.939C37.221 113.193 36.872 113.288 36.205 113.288L32.048 113.288C31.413 113.288 31.287 113.224 30.874 112.844L29.732 111.701C29.351 111.32 29.256 111.13 29.256 110.622L29.256 100.213C29.256 99.706 29.351 99.515 29.732 99.134L30.874 97.992C31.287 97.611 31.413 97.548 32.048 97.548L36.047 97.548C36.713 97.548 37.062 97.644 37.602 97.898L39.728 98.945 40.648 97.169 38.744 96.025C37.887 95.518 37.538 95.39 36.174 95.39L31.636 95.39C30.43 95.39 29.89 95.613 29.192 96.311L27.923 97.58C27.066 98.437 26.939 98.755 26.939 100.183L26.939 110.656C26.939 112.084 27.066 112.401 27.923 113.258L29.192 114.529C29.89 115.226 30.43 115.449 31.636 115.449L36.332 115.449C37.697 115.449 38.046 115.322 38.903 114.814L40.807 113.671 39.886 111.895 37.76 112.939zM83.901 100.594C83.203 99.897 82.663 99.674 81.458 99.674L76.793 99.674C75.587 99.674 75.047 99.897 74.349 100.594L73.619 101.324 72.921 100.594C72.223 99.897 71.683 99.674 70.478 99.674L65.844 99.674C65.051 99.674 64.734 99.738 64.004 100.024L62.417 100.659C61.814 100.913 61.624 101.293 61.624 101.896L61.624 115.255 63.813 115.255 63.813 102.657C63.813 102.498 63.877 102.435 64.004 102.371L65.432 101.8C65.59 101.738 65.781 101.705 65.971 101.705L70.16 101.705C70.795 101.705 70.922 101.768 71.334 102.149L72.064 102.878C72.445 103.259 72.54 103.449 72.54 103.957L72.54 115.254 74.73 115.254 74.73 103.957C74.73 103.449 74.825 103.259 75.206 102.878L75.935 102.149C76.347 101.768 76.474 101.705 77.109 101.705L81.139 101.705C81.774 101.705 81.901 101.768 82.313 102.149L83.043 102.878C83.424 103.259 83.519 103.449 83.519 103.957L83.519 115.254 85.709 115.254 85.709 104.052C85.709 102.624 85.582 102.276 84.725 101.418L83.901 100.594zM55.404 100.594C54.706 99.897 54.167 99.674 52.961 99.674L48.613 99.674C47.503 99.674 47.058 99.77 46.297 100.245L44.52 101.324 45.408 102.88 47.439 101.896C47.852 101.706 48.137 101.641 48.708 101.641L52.643 101.641C53.278 101.641 53.405 101.705 53.818 102.086L54.547 102.816C54.928 103.196 55.024 103.386 55.024 103.895L55.024 106.178 53.691 105.798C53.119 105.639 52.675 105.575 52.04 105.575L47.979 105.575C46.773 105.575 46.233 105.798 45.535 106.496L44.71 107.321C43.853 108.177 43.726 108.495 43.726 109.923L43.726 111.097C43.726 112.526 43.853 112.843 44.71 113.7L45.535 114.526C46.233 115.223 46.773 115.446 47.979 115.446L52.993 115.446C53.786 115.446 54.103 115.382 54.833 115.096L56.42 114.462C57.023 114.207 57.213 113.826 57.213 113.223L57.213 104.022C57.213 102.592 57.086 102.276 56.229 101.418L55.404 100.594zM55.024 112.526C55.024 112.685 54.992 112.748 54.833 112.812L53.469 113.351C53.215 113.447 53.056 113.478 52.802 113.478L48.264 113.478C47.629 113.478 47.503 113.415 47.09 113.034L46.392 112.336C46.011 111.955 45.916 111.765 45.916 111.257L45.916 109.765C45.916 109.258 46.011 109.068 46.392 108.687L47.09 107.989C47.471 107.608 47.693 107.545 48.264 107.545L51.977 107.545C52.421 107.545 52.739 107.577 53.119 107.673L54.706 108.116C54.928 108.179 55.024 108.243 55.024 108.497L55.024 112.526zM136.706 107.734C136.198 107.227 135.5 106.972 134.294 106.845L128.487 106.305C127.598 106.21 127.376 105.925 127.376 105.1L127.376 103.925C127.376 103.418 127.471 103.228 127.852 102.846L128.614 102.085C129.026 101.704 129.153 101.64 129.788 101.64L132.549 101.64C133.12 101.64 133.437 101.704 133.881 101.895L136.039 102.878 136.894 101.323 135.119 100.244C134.357 99.768 133.881 99.673 132.771 99.673L129.534 99.673C128.328 99.673 127.789 99.896 127.059 100.593L126.234 101.418C125.377 102.275 125.25 102.689 125.25 103.957L125.25 104.973C125.25 106.21 125.535 107.005 126.075 107.511 126.583 107.988 127.344 108.241 128.328 108.337L134.199 108.876C135.087 108.971 135.31 109.257 135.31 110.082L135.31 111.192C135.31 111.7 135.214 111.891 134.834 112.271L134.072 113.033C133.659 113.414 133.532 113.477 132.898 113.477L129.312 113.477C128.741 113.477 128.423 113.446 127.979 113.254L125.821 112.239 124.964 113.795 126.741 114.873C127.535 115.35 128.011 115.444 129.121 115.444L133.183 115.444C134.389 115.444 134.929 115.221 135.627 114.524L136.452 113.698C137.308 112.842 137.434 112.524 137.434 111.095L137.434 110.08C137.435 109.004 137.214 108.242 136.706 107.734M118.998 112.463C118.998 112.621 118.935 112.686 118.808 112.748L117.38 113.32C117.221 113.382 117.031 113.415 116.84 113.415L112.429 113.415C111.795 113.415 111.668 113.352 111.255 112.971L110.525 112.242C110.144 111.861 110.049 111.67 110.049 111.163L110.049 99.864 107.86 99.864 107.86 111.097C107.86 112.526 107.987 112.843 108.843 113.7L109.668 114.526C110.367 115.223 110.906 115.446 112.112 115.446L116.967 115.446C117.761 115.446 118.078 115.382 118.808 115.096L120.395 114.461C120.998 114.207 121.188 113.826 121.188 113.223L121.188 99.864 118.998 99.864 118.998 112.463zM101.862 100.594C101.164 99.897 100.625 99.674 99.419 99.674L94.405 99.674C93.611 99.674 93.294 99.737 92.564 100.024L90.977 100.659C90.374 100.913 90.184 101.293 90.184 101.896L90.184 121.793 92.374 121.793 92.374 114.589 93.421 115.033C94.151 115.351 94.595 115.446 95.357 115.446L99.419 115.446C100.625 115.446 101.164 115.223 101.862 114.526L102.687 113.7C103.544 112.844 103.671 112.526 103.671 111.097L103.671 104.022C103.671 102.592 103.544 102.276 102.687 101.418L101.862 100.594zM101.481 111.162C101.481 111.669 101.386 111.86 101.005 112.241L100.275 112.97C99.863 113.351 99.736 113.414 99.101 113.414L95.198 113.414C95.008 113.414 94.817 113.382 94.659 113.319L92.564 112.429C92.437 112.367 92.374 112.302 92.374 112.144L92.374 102.656C92.374 102.497 92.437 102.434 92.564 102.37L93.992 101.799C94.151 101.737 94.341 101.704 94.532 101.704L99.101 101.704C99.736 101.704 99.863 101.767 100.275 102.148L101.005 102.877C101.386 103.258 101.481 103.448 101.481 103.956L101.481 111.162zM72.581 63.987C72.581 63.823 72.646 63.758 72.777 63.693L74.248 63.105C74.411 63.039 74.607 63.007 74.803 63.007L79.443 63.007C80.096 63.007 80.227 63.072 80.652 63.464L81.403 64.215C81.795 64.607 81.893 64.803 81.893 65.326L81.893 76.952 84.142 76.952 84.142 65.391C84.142 63.921 84.012 63.595 83.132 62.713L82.284 61.866C81.566 61.149 81.011 60.921 79.769 60.921L74.672 60.921C73.855 60.921 73.529 60.986 72.777 61.279L71.147 61.931C70.527 62.192 70.332 62.583 70.332 63.203L70.332 76.952 72.581 76.952 72.581 63.987zM125.813 63.987C125.813 63.823 125.879 63.758 126.009 63.693L127.48 63.105C127.643 63.039 127.839 63.007 128.035 63.007L132.675 63.007C133.328 63.007 133.459 63.072 133.884 63.464L134.635 64.215C135.027 64.607 135.125 64.803 135.125 65.326L135.125 76.952 137.375 76.952 137.375 65.391C137.375 63.921 137.244 63.595 136.364 62.713L135.517 61.866C134.799 61.149 134.243 60.921 133.002 60.921L127.905 60.921C127.088 60.921 126.761 60.986 126.009 61.279L124.379 61.931C123.76 62.192 123.564 62.583 123.564 63.203L123.564 76.952 125.813 76.952 125.813 63.987zM98.776 83.876C99.887 83.876 100.377 83.713 101.094 82.996L101.844 82.246C102.692 81.398 102.789 81.071 102.789 79.764L102.789 78.097C102.789 77.215 102.659 76.888 102.17 76.235L100.017 73.46 100.507 72.971C101.353 72.123 101.45 71.796 101.45 70.489L101.45 65.033C101.45 63.726 101.353 63.399 100.505 62.55L99.755 61.833 100.701 58.961 98.94 58.341 97.502 60.921 92.535 60.921C91.424 60.921 90.934 61.084 90.217 61.801L89.467 62.55C88.619 63.399 88.521 63.726 88.521 65.033L88.521 70.489C88.521 71.796 88.619 72.123 89.467 72.971L90.217 73.721C90.934 74.438 91.424 74.601 92.535 74.601L97.535 74.601C97.764 74.601 98.188 74.568 98.253 74.568L100.277 77.248C100.475 77.542 100.54 77.672 100.54 78.097L100.54 79.829C100.54 80.254 100.442 80.483 100.115 80.81L99.494 81.43C99.2 81.725 98.972 81.855 98.482 81.855L91.882 81.855C91.392 81.855 91.163 81.725 90.869 81.43L90.249 80.81C89.923 80.483 89.76 80.156 89.76 79.699 89.76 79.372 89.825 78.98 89.988 78.555L90.543 77.117 88.782 76.431 88.195 77.476C87.77 78.228 87.509 79.012 87.509 79.797 87.509 80.875 87.803 81.528 88.587 82.312L89.271 82.996C89.988 83.713 90.477 83.876 91.588 83.876L98.776 83.876zM99.201 70.522C99.201 70.946 99.103 71.175 98.776 71.502L98.155 72.123C97.861 72.417 97.633 72.547 97.143 72.547L92.829 72.547C92.339 72.547 92.111 72.417 91.816 72.123L91.196 71.502C90.869 71.175 90.771 70.946 90.771 70.522L90.771 65C90.771 64.575 90.869 64.346 91.196 64.02L91.816 63.399C92.11 63.105 92.339 62.974 92.829 62.974L97.142 62.974C97.632 62.974 97.861 63.105 98.155 63.399L98.776 64.02C99.103 64.346 99.201 64.575 99.201 65L99.201 70.522zM54.521 74.605L53.77 73.853C53.378 73.461 53.28 73.265 53.28 72.743L53.28 63.007 58.243 63.007 58.505 63.007 63.506 63.007 63.506 76.952 65.755 76.952 65.755 61.703C65.755 61.247 65.625 61.117 65.201 61.117L58.505 61.117 58.243 61.117 53.28 61.117 53.28 57.034 51.03 57.034 51.03 61.117 48.352 61.117 48.352 63.007 51.03 63.007 51.03 72.677C51.03 74.147 51.16 74.474 52.04 75.355L52.888 76.203C53.606 76.92 54.161 77.148 55.402 77.148L58.864 77.148 58.864 75.062 55.728 75.062C55.076 75.062 54.945 74.997 54.521 74.605M46.649 75.062L43.514 75.062C42.861 75.062 42.73 74.997 42.306 74.605L41.555 73.853C41.163 73.461 41.065 73.265 41.065 72.743L41.065 63.007 46.29 63.007 46.29 61.117 41.065 61.117 41.065 57.034 38.815 57.034 38.815 61.117 36.137 61.117 36.137 63.007 38.815 63.007 38.815 72.677C38.815 74.147 38.946 74.474 39.826 75.355L40.673 76.203C41.391 76.92 41.946 77.148 43.187 77.148L46.649 77.148 46.649 75.062zM115.007 77.148C116.15 77.148 116.608 77.05 117.391 76.562L119.217 75.453 118.304 73.885 116.281 74.866C115.823 75.062 115.464 75.127 114.876 75.127L110.498 75.127C109.844 75.127 109.714 75.095 109.289 74.67L108.537 73.918C108.145 73.526 108.047 73.33 108.047 72.807L108.047 70.029 118.435 70.029C119.054 70.029 119.445 69.703 119.445 68.953L119.445 65.393C119.445 63.922 119.315 63.595 118.435 62.713L117.587 61.866C116.869 61.149 116.314 60.921 115.072 60.921L110.171 60.921C108.929 60.921 108.374 61.149 107.656 61.866L106.808 62.713C105.928 63.595 105.798 63.922 105.798 65.393L105.798 72.676C105.798 74.147 105.928 74.474 106.808 75.356L107.656 76.203C108.374 76.92 108.929 77.148 110.171 77.148L115.007 77.148zM108.047 65.229C108.047 64.706 108.145 64.51 108.537 64.118L109.289 63.366C109.714 62.974 109.844 62.909 110.498 62.909L114.745 62.909C115.399 62.909 115.529 62.974 115.954 63.366L116.706 64.118C117.098 64.51 117.228 64.706 117.228 65.229L117.228 68.073 108.047 68.073 108.047 65.229zM15.184 66.016L10.156 66.016 10.156 67.873 13.325 67.873 13.325 72.219C13.325 72.742 13.227 72.938 12.835 73.33L11.659 74.507C11.234 74.899 11.103 74.964 10.45 74.964L5.255 74.964C4.602 74.964 4.471 74.899 4.047 74.507L2.87 73.33C2.478 72.938 2.38 72.742 2.38 72.219L2.38 61.473C2.38 60.95 2.478 60.754 2.87 60.362L4.047 59.186C4.471 58.794 4.602 58.728 5.255 58.728L10.254 58.728C10.94 58.728 11.299 58.826 11.855 59.088L14.042 60.166 14.988 58.337 13.031 57.164C12.149 56.642 11.79 56.512 10.385 56.512L4.831 56.512C3.589 56.512 3.034 56.74 2.315 57.457L1.011 58.761C.131 59.643 0 59.97 0 61.44L0 72.218C0 73.689.131 74.015 1.011 74.898L2.315 76.202C3.034 76.919 3.589 77.147 4.831 77.147L10.875 77.147C12.116 77.147 12.672 76.919 13.39 76.202L14.695 74.898C15.575 74.015 15.705 73.689 15.705 72.218L15.705 66.536C15.705 66.178 15.51 66.016 15.184 66.016M31.711 76.203L32.559 75.355C33.439 74.474 33.569 74.147 33.569 72.677L33.569 65.392C33.569 63.922 33.439 63.595 32.559 62.713L31.711 61.866C30.993 61.149 30.438 60.921 29.196 60.921L23.805 60.921C22.564 60.921 22.008 61.149 21.29 61.866L20.443 62.713C19.562 63.595 19.432 63.922 19.432 65.392L19.432 72.677C19.432 74.147 19.562 74.474 20.443 75.355L21.29 76.203C22.008 76.92 22.564 77.148 23.805 77.148L29.196 77.148C30.438 77.148 30.993 76.92 31.711 76.203zM24.132 75.062C23.478 75.062 23.348 74.997 22.923 74.605L22.172 73.853C21.779 73.461 21.681 73.265 21.681 72.743L21.681 65.326C21.681 64.804 21.779 64.608 22.172 64.216L22.923 63.464C23.348 63.072 23.478 63.007 24.132 63.007L28.87 63.007C29.523 63.007 29.654 63.072 30.078 63.464L30.83 64.216C31.222 64.608 31.32 64.804 31.32 65.326L31.32 72.743C31.32 73.265 31.222 73.461 30.83 73.853L30.078 74.605C29.654 74.997 29.523 75.062 28.87 75.062L24.132 75.062zM63.701 58.402L65.233 58.402C65.591 58.402 65.722 58.304 65.722 57.945L65.722 56.217C65.722 55.858 65.591 55.761 65.233 55.761L63.211 55.761 63.211 57.945C63.211 58.304 63.342 58.402 63.701 58.402M22.138 58.402L23.67 58.402C24.028 58.402 24.159 58.304 24.159 57.945L24.159 56.217C24.159 55.858 24.028 55.761 23.67 55.761L21.648 55.761 21.648 57.945C21.648 58.304 21.779 58.402 22.138 58.402M29.289 58.402L30.821 58.402C31.179 58.402 31.31 58.304 31.31 57.945L31.31 56.217C31.31 55.858 31.179 55.761 30.821 55.761L28.7989944 55.761 28.799 57.945C28.798 58.304 28.93 58.402 29.289 58.402"/>
  </g>
</svg>
