<svg xmlns="http://www.w3.org/2000/svg" width="362" height="90" viewBox="0 0 362 90">
  <g fill="none">
    <path fill="#000" d="M80,1.14471636 C79.6190476,1.52628848 79.2380952,1.9078606 78.4761905,2.28943271 C75.4285714,4.19729331 74.6666667,6.86829814 75.047619,10.3024472 C75.047619,11.0655915 75.4285714,11.4471636 75.8095238,12.2103078 C76.1904762,12.973452 76.5714286,13.7365963 76.5714286,14.1181684 C76.5714286,24.0390435 76.5714286,33.5783465 76.1904762,43.4992216 C76.1904762,45.7886543 75.047619,46.5517985 73.1428571,46.5517985 C70.8571429,46.5517985 69.7142857,45.4070822 69.7142857,42.7360773 C69.7142857,38.1572119 69.7142857,33.5783465 69.7142857,28.999481 C69.7142857,24.4206156 70.0952381,19.8417502 70.4761905,14.8813126 C70.4761905,13.7365963 71.6190476,12.5918799 71.6190476,11.4471636 C72,9.9208751 72,8.77615874 72,7.24987026 C72,7.24987026 71.6190476,7.24987026 71.6190476,6.86829814 C67.047619,10.3024472 62.8571429,13.7365963 58.6666667,17.1707454 C59.4285714,19.8417502 60.1904762,22.1311829 60.1904762,24.8021877 C60.952381,30.5257695 58.2857143,35.104635 54.0952381,38.9203561 C52.5714286,40.4466446 51.047619,41.591361 49.5238095,43.1176495 C47.6190476,45.0255101 47.6190476,47.6965149 49.1428571,49.6043755 C51.4285714,51.8938082 53.7142857,54.1832409 56.3809524,56.4726736 C61.3333333,60.6699669 63.2380952,66.0119766 62.8571429,72.1171305 C62.4761905,78.9854286 58.2857143,83.5642941 52.1904762,86.2352989 C48,88.5247316 43.047619,89.2878759 38.4761905,88.9063037 C31.6190476,88.9063037 24.7619048,87.7615874 18.6666667,83.9458662 C13.7142857,80.5117171 11.4285714,75.9328517 12.952381,70.9724141 C13.7142857,67.9198372 15.2380952,65.6304045 17.1428571,63.7225439 C22.4761905,58.7621063 28.5714286,56.4726736 35.8095238,56.0911015 C37.7142857,56.0911015 39.6190476,56.0911015 41.9047619,56.0911015 C38.4761905,52.2753803 37.7142857,48.8412312 40,44.2623658 C34.2857143,44.2623658 29.3333333,43.4992216 25.1428571,39.6835004 C20.952381,35.8677792 19.047619,31.2889138 19.047619,25.565332 C16,25.565332 12.5714286,25.565332 9.52380952,25.565332 C6.47619048,25.565332 3.42857143,25.565332 0,25.1837599 C0.380952381,24.8021877 0.761904762,24.4206156 1.52380952,24.0390435 C10.6666667,16.4076011 19.8095238,8.77615874 29.3333333,0.763144238 C29.7142857,0.381572119 30.0952381,0 30.4761905,0 C46.8571429,0.381572119 63.2380952,0.763144238 80,1.14471636 Z M39.6190476,85.0905826 C43.8095238,84.7090104 47.6190476,84.3274383 51.047619,82.8011498 C57.1428571,79.7485729 59.8095238,69.0645536 52.5714286,64.104116 C51.047619,62.9593996 49.1428571,61.4331112 47.6190476,60.2883948 C47.2380952,59.9068227 46.4761905,59.5252506 46.0952381,59.5252506 C40,57.9989621 33.9047619,58.7621063 28.1904762,61.8146833 C20.952381,66.0119766 19.8095238,74.0249911 25.9047619,80.130145 C29.7142857,83.9458662 34.6666667,85.0905826 39.6190476,85.0905826 Z M28.1904762,24.4206156 C28.1904762,24.8021877 28.1904762,25.1837599 28.1904762,25.9469041 C28.952381,32.052058 31.2380952,37.0124956 36.5714286,40.4466446 C41.1428571,43.4992216 46.0952381,42.7360773 49.1428571,38.538784 C50.6666667,36.6309234 51.047619,34.3414907 51.4285714,31.6704859 C52.5714286,24.8021877 48.7619048,16.7891732 43.047619,13.3550242 C38.4761905,10.6840193 33.1428571,11.4471636 30.4761905,15.6444569 C28.952381,17.9338896 28.1904762,20.9864665 28.1904762,24.4206156 Z"/>
    <g transform="translate(92)">
      <path fill="#EA4335" d="M115.75,47.18 C115.75,59.95 105.76,69.36 93.5,69.36 C81.24,69.36 71.25,59.95 71.25,47.18 C71.25,34.32 81.24,25 93.5,25 C105.76,25 115.75,34.32 115.75,47.18 Z M106.01,47.18 C106.01,39.2 100.22,33.74 93.5,33.74 C86.78,33.74 80.99,39.2 80.99,47.18 C80.99,55.08 86.78,60.62 93.5,60.62 C100.22,60.62 106.01,55.07 106.01,47.18 Z"/>
      <path fill="#FBBC05" d="M163.75,47.18 C163.75,59.95 153.76,69.36 141.5,69.36 C129.24,69.36 119.25,59.95 119.25,47.18 C119.25,34.33 129.24,25 141.5,25 C153.76,25 163.75,34.32 163.75,47.18 Z M154.01,47.18 C154.01,39.2 148.22,33.74 141.5,33.74 C134.78,33.74 128.99,39.2 128.99,47.18 C128.99,55.08 134.78,60.62 141.5,60.62 C148.22,60.62 154.01,55.07 154.01,47.18 Z"/>
      <path fill="#4285F4" d="M209.75,26.34 L209.75,66.16 C209.75,82.54 200.09,89.23 188.67,89.23 C177.92,89.23 171.45,82.04 169.01,76.16 L177.49,72.63 C179,76.24 182.7,80.5 188.66,80.5 C195.97,80.5 200.5,75.99 200.5,67.5 L200.5,64.31 L200.16,64.31 C197.98,67 193.78,69.35 188.48,69.35 C177.39,69.35 167.23,59.69 167.23,47.26 C167.23,34.74 177.39,25 188.48,25 C193.77,25 197.97,27.35 200.16,29.96 L200.5,29.96 L200.5,26.35 L209.75,26.35 L209.75,26.34 Z M201.19,47.26 C201.19,39.45 195.98,33.74 189.35,33.74 C182.63,33.74 177,39.45 177,47.26 C177,54.99 182.63,60.62 189.35,60.62 C195.98,60.62 201.19,54.99 201.19,47.26 Z"/>
      <polygon fill="#34A853" points="225 3 225 68 215.5 68 215.5 3"/>
      <path fill="#EA4335" d="M262.02,54.48 L269.58,59.52 C267.14,63.13 261.26,69.35 251.1,69.35 C238.5,69.35 229.09,59.61 229.09,47.17 C229.09,33.98 238.58,24.99 250.01,24.99 C261.52,24.99 267.15,34.15 268.99,39.1 L270,41.62 L240.35,53.9 C242.62,58.35 246.15,60.62 251.1,60.62 C256.06,60.62 259.5,58.18 262.02,54.48 Z M238.75,46.5 L258.57,38.27 C257.48,35.5 254.2,33.57 250.34,33.57 C245.39,33.57 238.5,37.94 238.75,46.5 Z"/>
      <path fill="#4285F4" d="M35.29,41.41 L35.29,32 L67,32 C67.31,33.64 67.47,35.58 67.47,37.68 C67.47,44.74 65.54,53.47 59.32,59.69 C53.27,65.99 45.54,69.35 35.3,69.35 C16.32,69.35 0.36,53.89 0.36,34.91 C0.36,15.93 16.32,0.47 35.3,0.47 C45.8,0.47 53.28,4.59 58.9,9.96 L52.26,16.6 C48.23,12.82 42.77,9.88 35.29,9.88 C21.43,9.88 10.59,21.05 10.59,34.91 C10.59,48.77 21.43,59.94 35.29,59.94 C44.28,59.94 49.4,56.33 52.68,53.05 C55.34,50.39 57.09,46.59 57.78,41.4 L35.29,41.41 Z"/>
    </g>
  </g>
</svg>
