<svg xmlns="http://www.w3.org/2000/svg" width="1000" height="148" viewBox="0 0 1000 148">
  <path fill="#FFF" d="M223.657376,146.838885 C221.617947,146.49898 218.558804,145.479266 216.859279,144.799456 C210.061183,141.060503 210.401088,132.222978 217.539089,128.823929 C219.918423,127.804215 220.258328,127.46431 218.898708,127.124405 C218.218899,126.7845 216.17947,125.084976 215.49966,123.725357 C214.81985,122.705642 214.81985,119.986404 215.49966,118.626785 C216.519375,116.92726 218.558804,114.547927 220.938137,113.528212 C222.977566,112.508498 222.977566,111.828688 220.598232,111.148878 C216.519375,110.129164 214.140041,107.74983 213.120326,104.010877 C211.420802,97.2127804 215.49966,91.0944935 222.977566,89.3949694 C224.67709,89.0550646 227.056424,89.0550646 236.913664,89.0550646 L248.810333,89.3949694 L248.470428,91.0944935 L248.470428,92.7940177 L244.731475,92.7940177 L240.992522,92.4541128 L242.012237,93.4738273 C244.051666,95.1733515 244.731475,96.8728756 244.731475,100.611829 C244.731475,102.991162 244.731475,104.010877 243.711761,105.370496 C241.672332,109.789259 236.913664,112.508498 229.435758,112.848402 C225.3569,113.188307 224.337186,113.528212 223.657376,114.887831 C221.617947,118.28688 224.67709,119.986404 234.874235,120.666213 C242.692046,121.006118 244.051666,121.346023 246.091094,123.725357 C248.130523,125.424881 248.810333,127.46431 248.810333,130.863358 C248.810333,134.602311 248.470428,135.961931 246.770904,138.681169 C245.07138,141.400408 241.672332,143.779742 238.613188,145.139361 C234.874235,146.49898 228.076139,147.518695 223.657376,146.838885 Z M233.854521,143.099932 C235.554045,142.420122 237.253569,141.400408 238.273283,140.040789 C240.652617,137.32155 239.972808,131.883073 237.253569,130.523453 C235.554045,129.163834 234.194426,129.163834 228.416044,128.823929 L222.977566,128.484024 L221.957852,129.163834 C219.578518,130.863358 218.558804,134.262407 219.238613,137.32155 C219.918423,139.360979 221.617947,141.740313 223.657376,142.760027 C226.03671,143.779742 230.115568,144.119646 233.854521,143.099932 Z M231.815092,109.109449 C232.154997,108.769545 232.834806,107.74983 233.514616,106.730116 C234.194426,105.030591 234.194426,104.690687 234.194426,100.611829 C234.194426,96.1930659 234.194426,95.8531611 233.514616,94.4935418 C232.494901,92.4541128 231.135282,92.114208 228.755948,92.114208 C226.716519,92.114208 225.3569,92.7940177 223.997281,95.1733515 C223.317471,96.5329708 223.317471,97.2127804 223.317471,100.951734 C223.317471,105.030591 223.317471,105.370496 223.997281,107.07002 C224.67709,108.42964 225.3569,108.769545 226.376615,109.449354 C228.076139,110.129164 230.455472,109.789259 231.815092,109.109449 Z M329.367777,133.242692 C329.367777,132.902787 345.343304,82.9367777 349.082257,72.0598232 L350.101971,69.0006798 L351.801496,69.0006798 L353.840925,69.0006798 C353.840925,69.3405846 349.082257,83.6165874 343.303875,101.291638 L333.10673,133.242692 L331.067301,133.242692 L329.367777,133.242692 Z M21.4140041,126.7845 C10.5370496,124.745071 3.39904827,118.28688 1.01971448,108.769545 C-0.339904827,102.991162 -1.93178806e-14,94.8334466 1.69952413,89.3949694 C4.75866757,81.2372536 12.2365738,75.4588715 22.4337186,73.7593474 C27.1923861,72.7396329 36.3698165,73.0795377 40.7885792,74.439157 C44.1876275,75.4588715 49.2861999,77.4983005 49.2861999,77.8382053 C49.2861999,78.1781101 48.946295,78.8579198 48.6063902,79.8776343 C48.2664854,80.5574439 47.9265806,82.5968729 47.5866757,83.9564922 C47.2467709,85.3161115 46.5669613,86.6757308 46.5669613,86.6757308 C46.2270564,86.6757308 45.5472468,85.9959211 44.8674371,84.6363018 C43.5078178,82.5968729 40.7885792,80.2175391 38.4092454,79.1978246 C33.6505778,77.1583956 25.8327668,77.1583956 21.4140041,79.5377294 C19.0346703,80.5574439 16.3154317,83.6165874 14.9558124,86.6757308 C12.5764786,90.7545887 12.2365738,93.4738273 12.2365738,100.611829 C12.2365738,106.390211 12.2365738,107.07002 13.2562882,109.789259 C15.2957172,116.92726 19.3745751,121.006118 25.492862,122.365738 C28.2121006,122.705642 35.0101971,122.365738 37.0496261,121.685928 L38.7491502,121.006118 L38.7491502,111.828688 L38.7491502,102.651258 L44.5275323,102.651258 L49.9660095,102.651258 L49.9660095,113.188307 L49.9660095,123.385452 L47.2467709,124.405167 C40.7885792,126.104691 36.3698165,126.7845 29.2318151,126.7845 L21.4140041,126.7845 Z M69.0006798,126.444596 C64.5819171,125.424881 61.8626785,123.385452 59.4833447,120.326309 C56.7641061,116.92726 55.7443916,112.168593 56.0842964,106.730116 C56.4242012,100.611829 57.7838205,97.2127804 61.1828688,93.8137322 C64.5819171,90.4146839 68.660775,89.0550646 75.1189667,89.0550646 C77.1583956,89.0550646 79.8776343,89.0550646 80.8973487,89.3949694 C87.6954453,91.0944935 92.114208,95.5132563 93.4738273,102.651258 C94.153637,106.050306 93.8137322,112.508498 93.1339225,115.227736 C91.0944935,121.006118 87.0156356,124.745071 80.8973487,126.444596 C78.1781101,127.124405 71.3800136,127.124405 69.0006798,126.444596 Z M79.1978246,122.365738 C81.5771584,120.666213 82.5968729,116.247451 82.5968729,108.089735 C82.9367777,96.5329708 80.8973487,92.4541128 75.1189667,92.4541128 C69.0006798,92.4541128 66.9612508,97.2127804 67.3011557,109.789259 C67.6410605,119.646499 69.0006798,122.705642 73.7593474,123.385452 C75.4588715,123.725357 77.8382053,123.385452 79.1978246,122.365738 Z M106.730116,126.104691 C104.690687,125.084976 102.651258,123.045547 102.311353,121.006118 C101.631543,119.986404 101.631543,116.587356 101.631543,106.730116 L101.971448,93.8137322 L99.2522094,94.153637 L96.5329708,94.153637 L96.5329708,92.114208 L96.8728756,90.0747791 L99.2522094,90.4146839 L101.971448,90.7545887 L101.971448,85.3161115 L101.971448,80.2175391 L106.390211,78.1781101 C108.769545,77.1583956 111.148878,76.1386812 111.828688,76.1386812 L112.508498,76.1386812 L112.508498,83.2766825 L112.168593,90.7545887 L115.907546,90.4146839 L119.646499,90.0747791 L119.646499,92.114208 L119.646499,94.153637 L115.907546,94.153637 L112.168593,93.8137322 L111.828688,102.651258 C111.488783,115.567641 111.828688,121.006118 113.528212,122.365738 C114.547927,122.705642 114.887831,123.045547 116.92726,122.705642 C117.946975,122.705642 119.306594,122.365738 119.646499,122.365738 C120.666213,122.025833 120.666213,122.025833 120.326309,123.725357 C120.326309,125.084976 120.326309,125.084976 118.28688,125.764786 C116.247451,126.444596 115.227736,126.7845 112.168593,126.7845 C108.769545,127.124405 108.42964,126.7845 106.730116,126.104691 Z M132.222978,126.7845 C130.183549,125.764786 128.14412,124.405167 127.124405,122.365738 C126.444596,121.006118 126.444596,119.986404 126.444596,107.409925 L126.104691,94.153637 L123.725357,94.153637 L121.346023,94.153637 L121.346023,92.114208 L121.346023,90.0747791 L123.725357,90.4146839 L126.104691,90.7545887 L126.444596,89.7348742 L126.444596,84.296397 L126.104691,80.2175391 L127.804215,79.5377294 C128.823929,79.1978246 130.863358,78.1781101 132.902787,77.4983005 C134.602311,76.478586 136.301835,76.1386812 136.64174,76.1386812 C136.981645,76.1386812 136.981645,77.1583956 136.981645,83.6165874 L136.64174,90.7545887 L140.380693,90.4146839 L144.119646,90.0747791 L144.119646,92.114208 L143.779742,94.153637 L140.380693,94.153637 L136.64174,94.153637 L136.301835,101.631543 L136.301835,114.547927 C136.981645,122.365738 137.32155,123.045547 141.400408,122.705642 C142.420122,122.705642 143.779742,122.365738 144.119646,122.365738 C145.139361,122.025833 145.139361,122.025833 144.799456,123.725357 L144.799456,125.084976 L142.080218,126.104691 C140.040789,126.7845 138.681169,126.7845 136.301835,126.7845 L132.222978,126.7845 Z M263.766145,126.444596 C257.307954,124.405167 252.889191,119.306594 251.529572,112.508498 C249.490143,101.291638 254.24881,91.7743032 264.10605,89.3949694 C266.485384,88.7151598 272.263766,88.7151598 274.6431,89.3949694 C279.401768,90.7545887 283.140721,94.153637 284.50034,98.5723997 C285.18015,100.611829 285.859959,106.050306 285.520054,107.07002 L285.18015,108.089735 L273.623385,108.089735 L262.406526,108.089735 L262.406526,109.449354 C262.406526,114.887831 265.46567,120.326309 269.884432,121.685928 C271.583956,122.365738 275.32291,122.365738 277.702243,121.685928 C279.061863,121.346023 281.441196,120.326309 282.800816,119.306594 C283.480625,118.626785 283.82053,118.626785 283.82053,119.306594 C284.160435,119.646499 283.140721,122.705642 282.460911,123.385452 C282.121006,124.065262 279.061863,125.424881 277.362339,126.104691 C276.342624,126.444596 273.96329,126.7845 270.904147,126.7845 C266.825289,126.7845 265.46567,126.7845 263.766145,126.444596 Z M274.983005,100.951734 C274.6431,94.4935418 272.263766,91.4343984 268.184908,92.114208 C266.825289,92.4541128 266.145479,92.7940177 265.125765,93.8137322 C263.426241,95.5132563 262.746431,97.5526852 262.406526,101.291638 L262.066621,104.350782 L268.864718,104.350782 L275.32291,104.350782 L274.983005,100.951734 Z M150.237933,126.104691 C150.237933,125.764786 150.237933,122.705642 150.577838,118.626785 C150.917743,111.828688 150.577838,93.1339225 150.237933,91.0944935 L149.898029,90.0747791 L155.676411,90.0747791 L161.114888,90.0747791 L161.114888,108.089735 L161.114888,126.104691 L155.676411,126.104691 L150.237933,126.104691 Z M171.312033,108.089735 L171.312033,89.7348742 L176.410605,89.7348742 L181.509177,89.7348742 L181.509177,92.114208 L181.509177,94.8334466 L183.208702,93.1339225 C184.228416,92.114208 186.267845,90.7545887 187.287559,90.0747791 C189.326988,89.0550646 190.006798,89.0550646 193.065942,89.0550646 C196.125085,89.0550646 196.804895,89.0550646 198.504419,90.0747791 C200.883753,91.0944935 202.923182,93.1339225 203.602991,95.1733515 C204.282801,97.2127804 204.282801,99.932019 204.622706,116.247451 L204.622706,126.104691 L199.184228,126.104691 L193.405846,126.104691 L193.745751,124.745071 C193.745751,124.065262 194.085656,119.306594 194.085656,114.547927 C194.425561,98.5723997 193.405846,95.5132563 188.307274,95.5132563 C184.568321,95.5132563 182.868797,97.2127804 181.849082,102.311353 C181.849082,104.010877 181.509177,107.74983 181.849082,115.567641 L181.849082,126.104691 L176.75051,126.104691 L171.312033,126.104691 L171.312033,108.089735 Z M292.318151,126.104691 C292.318151,125.764786 292.318151,123.045547 292.658056,119.986404 C292.658056,115.227736 292.658056,94.153637 292.318151,90.7545887 C292.318151,89.7348742 292.318151,89.7348742 297.416723,89.7348742 L302.515296,89.7348742 L302.855201,92.114208 L302.855201,94.4935418 L304.554725,93.1339225 C307.273963,90.0747791 311.352821,88.7151598 315.431679,89.0550646 C318.490823,89.3949694 320.530252,90.0747791 322.56968,92.114208 C325.288919,94.8334466 325.628824,95.5132563 325.628824,109.109449 C325.628824,115.567641 325.968729,122.025833 325.968729,123.385452 L326.308634,126.104691 L320.530252,126.104691 L314.751869,126.104691 L315.091774,123.045547 C315.091774,121.006118 315.431679,115.567641 315.431679,110.808973 C315.091774,99.2522094 314.751869,97.2127804 312.032631,95.8531611 C309.993202,94.8334466 306.934058,95.1733515 305.234534,96.8728756 C303.195105,98.9123046 303.195105,99.932019 303.195105,113.868117 L303.195105,126.104691 L297.756628,126.104691 L292.318151,126.104691 Z M64.9218219,81.2372536 C61.5227736,78.518015 63.2222978,73.4194426 67.6410605,73.0795377 C71.3800136,72.7396329 73.7593474,76.1386812 72.3997281,79.8776343 C71.3800136,81.5771584 70.3602991,82.5968729 67.9809653,82.5968729 C66.2814412,82.5968729 65.9415364,82.256968 64.9218219,81.2372536 Z M78.8579198,81.2372536 C76.1386812,78.8579198 76.478586,75.1189667 79.8776343,73.4194426 C83.2766825,72.0598232 86.6757308,74.0992522 86.6757308,77.4983005 C86.6757308,80.8973487 84.9762067,82.5968729 81.9170632,82.5968729 C80.2175391,82.5968729 79.8776343,82.256968 78.8579198,81.2372536 Z M152.957172,80.8973487 C150.237933,79.5377294 149.218219,76.1386812 150.577838,73.4194426 C152.277362,70.0203943 156.696125,69.3405846 159.755269,71.7199184 C161.794697,73.7593474 162.134602,77.1583956 160.095173,79.5377294 C158.055744,81.9170632 155.676411,82.256968 152.957172,80.8973487 Z M350.781781,63.9021074 C350.781781,63.5622026 355.200544,49.2861999 360.978926,31.9510537 L371.176071,0 L373.2155,0 L375.254929,0 L374.915024,1.35961931 C374.575119,2.37933379 357.579878,55.0645819 355.200544,62.5424881 L354.520734,64.2420122 L352.481305,64.2420122 C351.461591,64.2420122 350.781781,63.9021074 350.781781,63.9021074 Z M390.210741,57.7838205 C382.053025,57.1040109 376.274643,52.3453433 374.575119,45.5472468 C373.555404,40.4486744 374.915024,33.310673 377.634262,28.8919103 C380.353501,24.4731475 385.791978,20.7341944 390.550646,19.7144799 C393.269884,19.3745751 399.048266,19.7144799 401.4276,20.3942896 C404.826649,21.7539089 407.885792,24.8130523 408.905506,28.2121006 C409.585316,30.5914344 409.585316,35.0101971 409.245411,38.0693406 L408.905506,40.1087695 L397.008838,40.1087695 L384.772264,40.1087695 L385.112169,43.5078178 C385.112169,46.5669613 385.112169,47.2467709 386.131883,48.946295 C387.831407,52.6852481 391.230455,54.0448674 396.668933,53.7049626 C399.048266,53.7049626 400.407886,53.3650578 402.10741,52.6852481 C405.166553,51.3256288 405.506458,51.6655337 403.806934,54.3847723 C402.78722,56.4242012 402.447315,56.7641061 401.087695,57.1040109 C399.728076,57.4439157 393.609789,58.4636302 393.269884,58.1237254 C392.92998,58.1237254 391.57036,58.1237254 390.210741,57.7838205 Z M399.388171,35.6900068 C399.728076,35.0101971 400.407886,29.9116247 400.067981,28.2121006 C399.728076,24.8130523 397.688647,23.1135282 394.629504,23.453433 C391.57036,23.7933379 389.191027,25.492862 387.831407,28.8919103 C386.811693,30.5914344 385.791978,35.0101971 385.791978,35.6900068 C385.791978,36.3698165 388.851122,36.3698165 394.629504,36.3698165 C397.348742,36.3698165 399.048266,36.0299116 399.388171,35.6900068 Z M509.517335,57.7838205 C506.458192,57.7838205 504.078858,57.1040109 502.039429,55.7443916 C501.019714,55.0645819 501.019714,55.0645819 501.019714,54.0448674 C501.359619,52.3453433 502.039429,46.9068661 502.039429,46.5669613 L502.379334,46.5669613 C503.059143,46.5669613 503.399048,46.9068661 503.738953,47.9265806 C504.418763,49.9660095 506.798097,52.3453433 508.837525,53.3650578 C511.216859,54.3847723 514.276003,54.3847723 515.975527,53.7049626 C517.335146,52.6852481 518.694765,50.985724 518.694765,49.2861999 C518.694765,47.5866757 516.315432,45.8871516 511.896669,43.5078178 C504.078858,40.1087695 502.719239,39.0890551 501.359619,36.3698165 C500.339905,34.6702923 500.339905,34.3303875 500.67981,31.2712441 C500.67981,27.532291 501.699524,25.492862 504.078858,23.1135282 C507.817811,19.7144799 513.256288,18.6947655 519.374575,20.0543848 C522.093814,20.7341944 525.492862,22.4337186 525.492862,22.7736234 C525.492862,23.1135282 525.152957,24.1332427 524.813052,24.8130523 C524.473148,25.8327668 523.793338,27.1923861 523.793338,28.2121006 C523.113528,30.2515296 522.433719,30.5914344 521.753909,28.8919103 C521.414004,28.2121006 520.734194,27.1923861 520.054385,26.5125765 C515.975527,21.4140041 507.477906,22.7736234 508.157716,28.2121006 C508.497621,30.2515296 509.85724,31.2712441 514.615908,33.310673 C522.433719,36.7097213 524.813052,38.4092454 526.172672,40.7885792 C527.192386,43.8477226 527.192386,47.9265806 525.492862,50.985724 C524.813052,52.6852481 522.433719,55.0645819 520.734194,56.0842964 C518.014956,57.7838205 513.936098,58.4636302 509.517335,57.7838205 Z M473.487424,57.4439157 C470.42828,56.4242012 468.048946,55.0645819 465.669613,52.6852481 C462.270564,49.2861999 460.57104,44.5275323 460.57104,38.4092454 C460.57104,32.2909585 462.270564,28.2121006 465.669613,24.4731475 C469.408566,21.0740993 473.487424,19.7144799 478.925901,19.7144799 C484.364378,19.3745751 488.103331,20.7341944 490.82257,23.7933379 C493.881713,26.5125765 495.241332,30.5914344 495.241332,35.6900068 L495.241332,38.7491502 L483.684568,38.7491502 L472.127804,39.0890551 L472.127804,40.4486744 C472.127804,43.5078178 473.487424,47.5866757 475.866757,49.9660095 C477.566281,52.0054385 479.945615,53.025153 483.344663,53.025153 C486.403807,53.025153 488.443236,52.3453433 491.502379,50.6458192 C493.881713,49.2861999 494.221618,49.6261047 493.201903,52.6852481 C492.182189,54.7246771 492.182189,54.7246771 489.802855,55.7443916 C488.783141,56.4242012 486.743712,57.1040109 485.384092,57.4439157 C481.985044,58.1237254 476.546567,58.1237254 473.487424,57.4439157 Z M484.364378,31.6111489 C484.364378,26.5125765 482.664854,23.7933379 479.945615,23.1135282 C475.526852,22.4337186 472.467709,25.8327668 472.127804,32.2909585 L471.787899,35.350102 L478.246091,35.350102 L484.704283,35.350102 L484.364378,31.6111489 Z M545.547247,57.4439157 C539.42896,55.7443916 535.010197,50.985724 533.310673,44.1876275 C532.630863,41.4683889 532.630863,35.350102 533.310673,32.6308634 C534.330387,29.5717199 535.690007,26.8524813 538.069341,24.8130523 C541.468389,21.0740993 545.547247,19.7144799 550.985724,19.7144799 C556.424201,19.3745751 559.823249,20.7341944 562.882393,23.7933379 C563.902107,24.8130523 565.261727,26.5125765 565.601632,27.532291 C566.621346,29.5717199 567.301156,33.6505778 567.301156,36.7097213 L567.641061,39.0890551 L555.744392,39.0890551 L543.847723,39.0890551 L544.187627,41.128484 C544.867437,47.2467709 548.266485,52.0054385 553.025153,53.025153 C556.424201,53.7049626 561.182869,52.3453433 564.581917,49.9660095 C565.941536,48.946295 566.281441,49.9660095 565.261727,52.0054385 C564.921822,53.025153 564.581917,54.3847723 564.242012,54.7246771 C563.562203,55.4044867 559.823249,56.7641061 557.443916,57.4439157 C554.044867,58.1237254 548.60639,58.1237254 545.547247,57.4439157 Z M556.764106,32.2909585 C556.764106,27.1923861 554.724677,23.7933379 552.005438,23.1135282 C547.586676,22.4337186 544.527532,25.8327668 544.187627,32.2909585 L543.847723,35.350102 L550.305914,35.350102 L556.764106,35.350102 L556.764106,32.2909585 Z M577.838205,57.1040109 C573.759347,55.7443916 571.719918,51.6655337 572.059823,46.5669613 C572.399728,41.4683889 574.779062,39.4289599 582.596873,36.7097213 C585.316111,35.6900068 588.71516,34.6702923 589.734874,33.9904827 C591.774303,33.310673 592.114208,33.310673 592.114208,31.9510537 C592.114208,26.1726717 587.015636,23.1135282 581.577158,25.1529572 C580.217539,25.8327668 576.818491,28.8919103 576.818491,29.9116247 L576.478586,30.2515296 C576.138681,29.9116247 575.798776,28.8919103 575.458872,27.532291 L574.439157,25.1529572 L575.798776,24.1332427 C579.537729,21.0740993 583.616587,19.7144799 588.375255,19.7144799 C595.513256,19.3745751 599.932019,22.0938137 601.631543,27.1923861 C602.311353,28.2121006 602.311353,30.2515296 602.311353,39.7688647 C602.311353,53.3650578 602.311353,53.3650578 605.710401,53.7049626 C607.409925,54.0448674 607.409925,54.0448674 607.409925,55.0645819 C607.74983,55.7443916 607.409925,56.0842964 606.390211,56.4242012 C604.350782,57.1040109 601.971448,57.7838205 599.592114,57.7838205 C596.193066,57.7838205 594.493542,56.7641061 593.133923,54.3847723 L592.454113,52.6852481 L591.094494,54.3847723 C588.71516,56.7641061 586.335826,57.7838205 582.596873,57.7838205 C580.217539,57.7838205 579.197825,57.7838205 577.838205,57.1040109 Z M589.734874,52.0054385 C590.074779,52.0054385 590.754589,50.985724 591.094494,50.6458192 C591.774303,49.2861999 591.774303,48.6063902 591.774303,43.167913 L592.114208,37.0496261 L590.754589,37.3895309 C586.675731,38.4092454 583.616587,40.7885792 582.936778,43.167913 C581.917063,46.9068661 582.936778,51.3256288 584.976207,52.3453433 C585.995921,53.025153 588.375255,52.6852481 589.734874,52.0054385 Z M652.957172,57.4439157 C648.198504,56.4242012 643.439837,53.3650578 641.400408,49.6261047 C638.341264,44.8674371 638.00136,37.3895309 639.700884,31.6111489 C641.060503,27.532291 644.459551,23.7933379 648.198504,22.0938137 C652.277362,19.7144799 658.735554,19.0346703 664.174031,20.0543848 C666.89327,20.7341944 670.632223,22.0938137 670.972128,22.7736234 C671.312033,23.1135282 670.972128,24.4731475 669.952413,26.5125765 C669.272604,28.2121006 668.932699,29.9116247 668.932699,29.9116247 C668.932699,30.2515296 668.592794,30.5914344 667.912984,30.2515296 C667.57308,30.2515296 667.233175,29.9116247 666.553365,28.5520054 C665.193746,24.8130523 663.154317,23.453433 659.075459,23.453433 C653.636982,23.1135282 650.237933,27.8721958 649.898029,36.3698165 C649.218219,46.9068661 652.617267,52.6852481 659.755269,53.025153 C662.814412,53.3650578 665.193746,52.6852481 667.912984,50.985724 C669.272604,50.3059143 670.292318,49.9660095 670.292318,49.9660095 C670.632223,49.9660095 670.292318,50.985724 670.292318,52.3453433 L669.952413,54.7246771 L667.57308,55.7443916 C663.494222,57.7838205 657.71584,58.4636302 652.957172,57.4439157 Z M854.860639,57.7838205 C852.481305,56.7641061 849.762067,54.3847723 848.742352,52.0054385 C847.382733,47.9265806 848.402447,42.8280082 851.121686,40.4486744 C852.82121,38.7491502 854.180829,38.0693406 859.279402,36.7097213 C861.99864,35.6900068 865.057784,34.6702923 866.077498,33.9904827 C868.116927,33.310673 868.456832,32.9707682 868.456832,31.9510537 C868.456832,28.8919103 866.757308,26.1726717 864.377974,24.8130523 C863.018355,24.1332427 859.279402,24.4731475 857.579878,25.1529572 C856.220258,25.8327668 853.161115,29.2318151 853.161115,29.5717199 C853.161115,29.9116247 852.82121,30.2515296 852.82121,30.2515296 C852.481305,30.2515296 852.1414,28.8919103 851.461591,27.532291 L850.781781,25.1529572 L852.1414,24.1332427 C854.180829,22.7736234 857.239973,21.0740993 859.619307,20.0543848 C861.658736,19.7144799 862.338545,19.3745751 865.737593,19.7144799 C870.836166,19.7144799 872.875595,20.7341944 875.594833,23.1135282 C878.653977,26.5125765 878.653977,26.8524813 878.653977,38.4092454 C878.314072,49.9660095 878.653977,51.6655337 880.013596,53.025153 C880.693406,53.7049626 881.033311,54.0448674 882.053025,54.0448674 C883.412644,54.0448674 883.752549,54.0448674 883.752549,55.0645819 C883.752549,56.0842964 883.412644,56.0842964 881.71312,56.7641061 C875.594833,58.803535 871.515976,57.7838205 869.476547,54.3847723 L868.796737,52.6852481 L867.437118,54.3847723 C865.057784,56.7641061 862.67845,57.7838205 858.939497,57.7838205 L854.860639,57.7838205 Z M865.057784,52.3453433 C867.777022,51.3256288 868.116927,49.6261047 868.116927,42.4881033 L868.456832,37.0496261 L867.437118,37.3895309 C865.397689,37.7294358 862.67845,39.0890551 861.318831,40.1087695 C859.279402,41.8082937 858.599592,43.5078178 858.599592,46.5669613 C858.599592,49.6261047 859.619307,51.3256288 861.318831,52.3453433 C862.67845,53.025153 863.698165,53.025153 865.057784,52.3453433 Z M943.575799,57.4439157 C938.817131,56.4242012 934.058464,53.3650578 932.019035,49.6261047 C928.280082,43.5078178 928.280082,33.6505778 932.019035,28.2121006 C935.757988,22.4337186 940.85656,20.0543848 947.994562,19.7144799 C953.093134,19.3745751 958.191706,20.3942896 961.25085,22.4337186 L961.930659,22.7736234 L960.57104,26.8524813 C959.211421,30.2515296 958.871516,30.5914344 958.531611,30.5914344 C958.191706,30.2515296 957.511897,29.5717199 957.511897,28.8919103 C956.832087,26.8524813 955.132563,24.8130523 953.433039,24.1332427 C951.053705,22.7736234 947.654657,23.1135282 945.615228,24.4731475 C942.216179,26.5125765 940.85656,30.2515296 940.516655,37.0496261 C940.176751,42.1481985 940.85656,45.2073419 942.556084,48.2664854 C944.255608,51.6655337 947.314752,53.025153 951.39361,53.025153 C954.112848,53.3650578 956.152277,52.6852481 958.871516,50.985724 C959.89123,50.3059143 960.910945,49.9660095 960.910945,49.9660095 C961.25085,49.9660095 960.910945,50.985724 960.910945,52.3453433 L960.57104,54.7246771 L958.191706,55.7443916 C954.112848,57.7838205 948.334466,58.4636302 943.575799,57.4439157 Z M978.585996,57.4439157 C971.787899,55.7443916 967.029232,50.3059143 965.669613,43.167913 C964.309993,35.6900068 966.009517,29.2318151 970.42828,24.8130523 C973.827328,21.0740993 977.906186,19.3745751 983.684568,19.7144799 C990.482665,19.7144799 995.581237,22.4337186 997.960571,27.532291 C999.32019,30.2515296 1000,32.6308634 1000,36.0299116 L1000,39.0890551 L988.103331,39.0890551 L976.546567,38.7491502 L976.886472,41.4683889 C977.226377,47.5866757 980.28552,51.3256288 985.384092,52.6852481 C988.783141,53.7049626 993.201903,52.6852481 996.261047,50.6458192 C998.300476,49.2861999 998.980286,49.6261047 998.300476,51.3256288 C996.940857,54.3847723 996.940857,54.7246771 994.901428,55.7443916 C990.82257,57.7838205 983.344663,58.4636302 978.585996,57.4439157 Z M989.123046,31.9510537 C988.783141,26.8524813 987.763426,24.8130523 985.384092,23.453433 C983.344663,22.4337186 979.945615,23.453433 978.585996,25.492862 C977.566281,27.1923861 976.886472,29.9116247 976.546567,32.6308634 L976.546567,35.0101971 C976.546567,35.0101971 979.60571,35.350102 983.004759,35.350102 L989.46295,35.350102 L989.123046,31.9510537 Z M418.082937,54.7246771 C418.422842,48.6063902 418.762746,19.3745751 418.422842,12.2365738 C418.082937,8.49762067 418.082937,5.0985724 418.082937,5.0985724 C418.082937,5.0985724 423.181509,5.0985724 429.299796,4.75866757 C441.196465,4.75866757 443.235894,5.0985724 446.974847,6.79809653 C450.03399,8.15771584 451.39361,9.51733515 452.753229,11.8966689 C454.452753,15.9755269 454.452753,21.4140041 452.073419,24.8130523 C450.373895,27.532291 447.314752,29.5717199 443.915704,30.5914344 C443.235894,30.9313392 442.216179,31.2712441 442.216179,31.2712441 C441.876275,31.2712441 444.935418,36.3698165 450.03399,44.1876275 C454.792658,51.3256288 458.871516,57.1040109 458.871516,57.1040109 L451.733515,57.1040109 L444.935418,57.1040109 L441.53637,50.985724 C437.457512,44.1876275 431.67913,35.0101971 430.659415,33.9904827 C430.319511,33.6505778 429.979606,33.310673 429.979606,33.310673 L429.979606,32.9707682 C429.639701,32.6308634 429.979606,51.3256288 430.319511,54.7246771 L430.659415,57.1040109 L424.201224,57.1040109 L417.743032,57.1040109 L418.082937,54.7246771 Z M436.437797,28.8919103 C440.176751,27.1923861 441.876275,24.1332427 441.876275,18.6947655 C441.876275,12.5764786 439.157036,9.85723997 433.038749,9.51733515 L430.319511,9.17743032 L429.979606,11.5567641 L429.979606,21.7539089 L429.979606,29.9116247 L432.019035,29.5717199 C433.378654,29.5717199 435.418083,29.2318151 436.437797,28.8919103 Z M682.528892,57.1040109 L676.75051,56.7641061 L677.090415,54.7246771 C677.43032,51.6655337 677.43032,6.45819171 677.090415,2.71923861 L676.75051,0 L682.528892,0 L688.307274,0 L687.967369,2.03942896 C687.967369,3.05914344 687.627464,8.83752549 687.627464,14.9558124 L687.287559,25.8327668 L688.987084,24.1332427 C694.765466,18.0149558 705.302515,18.3548606 709.041468,24.8130523 C710.401088,26.8524813 710.401088,29.5717199 710.740993,43.8477226 L710.740993,57.1040109 L705.302515,57.1040109 L699.864038,57.1040109 L699.864038,45.8871516 C700.203943,30.9313392 699.864038,28.2121006 696.804895,26.8524813 C696.46499,26.5125765 695.10537,26.5125765 694.085656,26.5125765 C691.706322,26.1726717 690.346703,27.1923861 689.326988,29.5717199 C687.967369,31.9510537 687.627464,35.0101971 687.967369,46.5669613 L687.967369,57.1040109 L682.528892,57.1040109 Z M735.21414,57.1040109 C735.21414,56.7641061 736.573759,54.0448674 738.273283,50.3059143 C743.711761,38.0693406 748.810333,25.492862 753.569001,12.2365738 L756.628144,3.73895309 L759.687288,4.07885792 L762.746431,4.07885792 L765.805574,12.9163834 C770.224337,24.1332427 776.342624,39.4289599 780.421482,49.2861999 C782.121006,53.3650578 783.82053,56.7641061 783.82053,56.7641061 C783.82053,57.1040109 780.761387,57.1040109 777.022434,57.1040109 L770.564242,57.1040109 L767.845003,49.2861999 L765.46567,41.8082937 L756.628144,41.8082937 L747.790619,41.8082937 L746.091094,46.9068661 C745.07138,49.6261047 743.711761,53.025153 743.371856,54.3847723 L742.352141,56.7641061 L738.953093,57.1040109 L735.21414,57.1040109 Z M762.066621,33.310673 C760.367097,28.2121006 756.968049,19.7144799 756.628144,20.0543848 C756.288239,20.0543848 752.889191,28.2121006 751.189667,33.310673 C750.849762,34.3303875 750.169952,35.6900068 750.169952,36.0299116 C749.830048,36.3698165 750.509857,36.7097213 756.628144,36.7097213 L763.086336,36.7097213 L762.066621,33.310673 Z M829.367777,57.1040109 C829.367777,56.7641061 829.367777,53.3650578 829.707682,49.6261047 C830.047587,42.4881033 829.707682,23.7933379 829.367777,21.7539089 L829.027872,20.7341944 L835.146159,20.7341944 L840.924541,20.7341944 L840.584636,23.453433 C840.244731,27.532291 840.244731,48.946295 840.584636,53.3650578 L840.924541,56.7641061 L835.146159,57.1040109 L829.367777,57.1040109 Z M888.851122,52.3453433 C889.191027,46.2270564 889.191027,30.2515296 888.851122,24.8130523 L888.511217,20.7341944 L893.949694,20.7341944 L899.388171,20.7341944 L899.388171,23.1135282 L899.388171,25.492862 L901.087695,23.7933379 C904.146839,20.3942896 908.565602,19.0346703 912.984364,19.7144799 C917.063222,20.7341944 920.462271,23.1135282 921.481985,26.1726717 C922.161795,27.8721958 922.161795,30.5914344 922.5017,48.6063902 L922.5017,57.1040109 L917.063222,57.1040109 L911.28484,57.1040109 L911.28484,56.0842964 C911.28484,55.7443916 911.624745,50.985724 911.624745,45.5472468 C911.96465,31.6111489 911.28484,28.2121006 908.565602,26.8524813 C906.866077,26.1726717 904.486744,26.1726717 902.78722,27.1923861 C899.728076,29.2318151 899.388171,31.2712441 899.728076,45.8871516 L899.728076,56.7641061 L894.289599,57.1040109 L888.511217,57.1040109 L888.851122,52.3453433 Z M612.508498,54.0448674 C612.848402,50.6458192 612.848402,26.1726717 612.508498,23.1135282 L612.168593,20.7341944 L617.60707,20.7341944 L623.045547,20.7341944 L623.045547,25.492862 C623.045547,29.9116247 623.045547,30.2515296 623.385452,28.8919103 C625.084976,23.453433 628.823929,20.0543848 633.242692,19.7144799 L634.942216,19.3745751 L634.942216,25.1529572 C634.942216,29.9116247 634.942216,30.5914344 634.602311,30.5914344 C629.503739,29.2318151 626.444596,29.9116247 624.745071,32.6308634 C623.385452,35.0101971 623.045547,37.7294358 623.385452,46.2270564 C623.385452,50.6458192 623.725357,55.0645819 623.725357,55.7443916 L624.065262,57.1040109 L618.28688,57.1040109 L612.168593,57.1040109 L612.508498,54.0448674 Z M787.559483,53.7049626 C787.899388,51.6655337 787.899388,40.4486744 787.899388,28.5520054 C787.899388,16.3154317 787.899388,5.0985724 787.559483,3.39904827 L787.219579,0 L793.337865,0 L799.116247,0 L798.776343,5.77838205 C798.436438,13.2562882 798.436438,44.5275323 798.776343,51.3256288 L799.116247,56.7641061 L793.337865,56.7641061 L787.219579,56.7641061 L787.559483,53.7049626 Z M808.293678,55.7443916 C808.633583,54.0448674 808.633583,2.71923861 808.293678,1.35961931 L808.293678,0 L813.732155,0 L819.510537,0 L819.510537,28.5520054 L819.510537,56.7641061 L813.732155,56.7641061 L808.293678,56.7641061 L808.293678,55.7443916 Z M833.10673,12.2365738 C831.747111,11.8966689 829.707682,9.51733515 829.367777,8.15771584 C828.687967,5.43847723 830.047587,2.71923861 832.42692,1.69952413 C834.126445,0.679809653 836.505778,1.01971448 838.205303,2.03942896 C841.604351,4.07885792 841.604351,9.51733515 838.545207,11.5567641 C836.845683,12.5764786 834.466349,12.9163834 833.10673,12.2365738 Z"/>
</svg>
