<svg width="347" height="60" viewBox="0 0 347 60" xmlns="http://www.w3.org/2000/svg"><title>logo_gro_all_blue</title><path d="M32.047 36.6c-.669.872-1.595 1.532-2.78 1.981-1.185.449-2.531.673-4.038.673-1.548 0-2.92-.351-4.113-1.054-1.193-.702-2.114-1.707-2.761-3.015-.647-1.308-.984-2.833-1.01-4.577v-1.447c0-2.793.67-4.974 2.007-6.544 1.337-1.57 3.203-2.355 5.598-2.355 2.057 0 3.69.508 4.9 1.523 1.21 1.016 1.939 2.48 2.184 4.393h-3.148c-.356-2.226-1.646-3.34-3.872-3.34-1.44 0-2.533.52-3.282 1.556-.75 1.037-1.136 2.558-1.162 4.564v1.422c0 1.997.421 3.548 1.263 4.653.843 1.104 2.013 1.656 3.51 1.656 1.643 0 2.81-.372 3.505-1.117v-3.618h-3.809v-2.437h7.008V36.6zm15.256-5.458c0 1.6-.286 3.015-.857 4.246-.571 1.232-1.386 2.184-2.444 2.857-1.058.672-2.276 1.009-3.656 1.009-2.082 0-3.766-.74-5.053-2.222-1.286-1.48-1.93-3.478-1.93-5.992v-2.666c0-1.591.286-3.005.857-4.24.572-1.236 1.388-2.19 2.45-2.863 1.063-.673 2.28-1.01 3.65-1.01 1.38 0 2.601.337 3.663 1.01 1.062.673 1.881 1.63 2.457 2.87.575 1.24.863 2.65.863 4.233v2.768zm-.686-2.793c0-2.235-.567-4.027-1.7-5.377-1.135-1.35-2.667-2.025-4.596-2.025-1.905 0-3.424.671-4.558 2.012-1.134 1.342-1.701 3.168-1.701 5.479v2.704c0 1.472.256 2.774.768 3.903.512 1.13 1.242 2 2.19 2.61.948.609 2.056.913 3.326.913 1.93 0 3.457-.672 4.583-2.018 1.126-1.346 1.688-3.182 1.688-5.51v-2.691zM36.88 16.644c0-.195.068-.362.203-.502.136-.14.3-.21.495-.21s.362.07.502.21c.14.14.21.307.21.502 0 .194-.07.36-.21.495a.695.695 0 0 1-.502.203.674.674 0 0 1-.495-.203.674.674 0 0 1-.203-.495zm5.65 0c0-.195.067-.362.203-.502.135-.14.3-.21.495-.21.194 0 .362.07.501.21.14.14.21.307.21.502 0 .194-.07.36-.21.495a.695.695 0 0 1-.501.203.674.674 0 0 1-.495-.203.674.674 0 0 1-.203-.495zM61.467 21.2H54.74V39h-.686V21.201h-6.728v-.685h14.142v.685zm13.72 0H68.46V39h-.686V21.201h-6.728v-.685h14.142v.685zM77.596 39h-.686V20.516h.686V39zm16.88 0h-.685L81.858 21.684V39h-.699V20.516h.699L93.79 37.794V20.516h.686V39zm16.082-1.98c-.465.643-1.282 1.176-2.45 1.6-1.168.422-2.455.634-3.86.634-1.37 0-2.594-.334-3.668-1.003-1.075-.669-1.915-1.612-2.52-2.831-.606-1.219-.917-2.598-.934-4.139v-3.174c0-1.515.292-2.873.876-4.075.584-1.202 1.405-2.13 2.463-2.786 1.058-.656 2.247-.984 3.568-.984 1.836 0 3.332.47 4.487 1.409 1.156.94 1.826 2.222 2.013 3.847h-.686c-.228-1.473-.842-2.603-1.84-3.39-1-.787-2.324-1.18-3.974-1.18-1.862 0-3.365.664-4.507 1.992-1.143 1.33-1.714 3.077-1.714 5.244v2.945c0 1.447.269 2.738.806 3.872.538 1.134 1.295 2.012 2.273 2.634.977.622 2.096.933 3.358.933 1.235 0 2.382-.182 3.44-.546 1.058-.363 1.786-.804 2.184-1.32V31.32h-5.65v-.698h6.335v6.399zm12.755-7.186h-9.267v8.48h10.562V39H113.36V20.516h11.248v.685h-10.562v7.947h9.267v.686zM139.458 39h-.686L126.84 21.684V39h-.698V20.516h.698l11.933 17.278V20.516h.686V39zm9.188-7.122h-3.58V39h-3.212V20.516h6.5c2.133 0 3.779.478 4.938 1.434 1.16.957 1.74 2.34 1.74 4.152 0 1.235-.299 2.27-.896 3.104-.596.833-1.428 1.474-2.494 1.923l4.151 7.706V39h-3.44l-3.707-7.122zm-3.58-2.577h3.3c1.084 0 1.93-.273 2.54-.82.609-.545.914-1.292.914-2.24 0-.99-.282-1.756-.845-2.298-.563-.541-1.403-.82-2.52-.838h-3.39v6.196zm21.603.533h-9.267v8.48h10.562V39h-11.248V20.516h11.248v.685h-10.562v7.947h9.267v.686zm13.898 4.735c0-.787-.184-1.453-.552-2-.368-.545-.948-1.027-1.74-1.446-.79-.42-1.986-.849-3.586-1.289-1.6-.44-2.8-.884-3.599-1.333-.8-.449-1.386-.97-1.758-1.562-.373-.592-.559-1.311-.559-2.158 0-1.345.567-2.435 1.701-3.269 1.134-.833 2.611-1.25 4.431-1.25 1.185 0 2.25.23 3.193.692.944.46 1.674 1.108 2.19 1.942.516.834.774 1.775.774 2.825h-.685c0-1.38-.508-2.52-1.524-3.422-1.015-.901-2.331-1.352-3.948-1.352-1.625 0-2.939.362-3.942 1.086-1.003.723-1.504 1.631-1.504 2.723 0 1.109.436 2.001 1.307 2.679.872.677 2.31 1.275 4.317 1.796 2.006.52 3.474 1.123 4.405 1.809 1.185.872 1.777 2.04 1.777 3.504 0 .93-.262 1.754-.787 2.47-.525.714-1.27 1.267-2.234 1.656-.965.39-2.048.584-3.25.584-1.337 0-2.54-.222-3.606-.667-1.066-.444-1.868-1.077-2.405-1.898-.538-.82-.807-1.79-.807-2.907h.686c0 1.515.567 2.692 1.701 3.53 1.134.837 2.611 1.256 4.43 1.256 1.617 0 2.95-.37 4-1.11 1.05-.741 1.574-1.704 1.574-2.889zm12.235-4.735h-9.268v8.48h10.563V39h-11.248V20.516h11.248v.685h-10.563v7.947h9.268v.686zm12.564 3.644h-9.051L194.258 39h-.749l6.919-18.484h.838L208.185 39h-.75l-2.069-5.522zm-8.797-.686h8.543l-4.265-11.451-4.278 11.451zm19.597-1.701h-6.41V39h-.686V20.516h5.89c1.854 0 3.329.478 4.425 1.434 1.096.957 1.644 2.256 1.644 3.898 0 1.26-.392 2.363-1.175 3.307a4.97 4.97 0 0 1-2.99 1.758l4.94 7.91V39h-.724l-4.914-7.91zm-6.41-.686h5.826c1.422 0 2.571-.431 3.447-1.295.876-.863 1.314-1.95 1.314-3.262 0-1.44-.484-2.573-1.453-3.403-.97-.83-2.296-1.244-3.98-1.244h-5.155v9.204zm26.935 2.933c-.178 1.904-.834 3.366-1.968 4.386s-2.674 1.53-4.62 1.53c-1.313 0-2.474-.332-3.486-.997-1.011-.664-1.796-1.608-2.355-2.83-.558-1.224-.842-2.622-.85-4.197v-2.856c0-1.574.275-2.981.825-4.221.55-1.24 1.335-2.199 2.355-2.876s2.19-1.015 3.51-1.015c1.93 0 3.466.508 4.609 1.523 1.142 1.016 1.802 2.472 1.98 4.367h-.685c-.195-1.7-.788-2.994-1.778-3.878-.99-.885-2.365-1.327-4.126-1.327-1.794 0-3.243.677-4.348 2.032-1.104 1.354-1.657 3.17-1.657 5.446v2.717c0 1.455.246 2.744.737 3.865.49 1.122 1.195 1.996 2.113 2.622.919.626 1.97.94 3.155.94 1.77 0 3.15-.437 4.145-1.308.995-.872 1.58-2.18 1.759-3.923h.685zM252.125 39h-.686v-9.166h-11.806V39h-.686V20.516h.686v8.632h11.806v-8.632h.686V39zm17.148-8.76c0 1.811-.314 3.4-.94 4.767-.626 1.367-1.521 2.417-2.685 3.149-1.164.732-2.503 1.098-4.018 1.098-1.498 0-2.833-.366-4.005-1.098-1.173-.732-2.078-1.775-2.717-3.13-.64-1.354-.963-2.915-.971-4.684V29.3c0-1.803.32-3.394.958-4.774.64-1.38 1.54-2.435 2.704-3.167 1.164-.732 2.5-1.098 4.006-1.098 1.506 0 2.841.362 4.005 1.085 1.164.724 2.063 1.765 2.698 3.123.635 1.359.956 2.94.965 4.742v1.028zm-3.212-.965c0-2.048-.388-3.618-1.162-4.71-.774-1.091-1.872-1.637-3.294-1.637-1.388 0-2.474.544-3.257 1.631-.783 1.088-1.182 2.626-1.2 4.615v1.066c0 2.031.396 3.601 1.188 4.71.79 1.109 1.89 1.663 3.294 1.663 1.422 0 2.516-.541 3.282-1.625.766-1.083 1.149-2.666 1.149-4.748v-.965zM284.427 39h-.685l-11.934-17.316V39h-.698V20.516h.698l11.934 17.278V20.516h.685V39zm3.754-.686h9.484V39h-10.182V20.516h.698v17.798zm11.892.686h-.685V20.516h.685V39zm16.881 0h-.685l-11.934-17.316V39h-.698V20.516h.698l11.934 17.278V20.516h.685V39zm13.01-9.166h-9.268v8.48h10.562V39H320.01V20.516h11.248v.685h-10.562v7.947h9.267v.686z" fill="#163776" fill-rule="evenodd"/></svg>