<svg width="66" height="43" viewBox="0 0 66 43" xmlns="http://www.w3.org/2000/svg"><title>logo_gro_letter_white</title><path d="M26.047 27.6c-.669.872-1.595 1.532-2.78 1.981-1.185.449-2.531.673-4.038.673-1.548 0-2.92-.351-4.113-1.054-1.193-.702-2.114-1.707-2.761-3.015-.647-1.308-.984-2.833-1.01-4.577v-1.447c0-2.793.67-4.974 2.007-6.544 1.337-1.57 3.203-2.355 5.598-2.355 2.057 0 3.69.508 4.9 1.523 1.21 1.016 1.939 2.48 2.184 4.393h-3.148c-.356-2.226-1.646-3.34-3.872-3.34-1.44 0-2.533.52-3.282 1.556-.75 1.037-1.136 2.558-1.162 4.564v1.422c0 1.997.421 3.548 1.263 4.653.843 1.104 2.013 1.656 3.51 1.656 1.643 0 2.81-.372 3.505-1.117v-3.618h-3.809v-2.437h7.008V27.6zm8.299-4.722h-3.58V30h-3.212V11.516h6.5c2.133 0 3.779.478 4.938 1.434 1.16.957 1.74 2.34 1.74 4.152 0 1.235-.299 2.27-.895 3.104-.597.833-1.429 1.474-2.495 1.923l4.151 7.706V30h-3.44l-3.707-7.122zm-3.58-2.577h3.3c1.084 0 1.93-.273 2.54-.82.61-.545.914-1.292.914-2.24 0-.99-.282-1.756-.844-2.298-.563-.541-1.403-.82-2.52-.838h-3.39v6.196zm25.742.94c0 1.81-.313 3.4-.94 4.766-.625 1.367-1.52 2.417-2.684 3.149-1.164.732-2.503 1.098-4.018 1.098-1.498 0-2.833-.366-4.006-1.098-1.172-.732-2.077-1.775-2.716-3.13-.64-1.354-.963-2.915-.972-4.684V20.3c0-1.803.32-3.394.959-4.774s1.54-2.435 2.704-3.167c1.164-.732 2.499-1.098 4.005-1.098 1.507 0 2.842.362 4.006 1.085 1.163.724 2.063 1.765 2.697 3.123.635 1.359.957 2.94.965 4.742v1.028zm-3.212-.966c0-2.048-.387-3.618-1.161-4.71-.775-1.091-1.873-1.637-3.295-1.637-1.388 0-2.473.544-3.256 1.631-.783 1.088-1.183 2.626-1.2 4.615v1.066c0 2.031.396 3.601 1.187 4.71.792 1.109 1.89 1.663 3.295 1.663 1.422 0 2.515-.541 3.281-1.625.766-1.083 1.15-2.666 1.15-4.748v-.965z" fill="#FFF" fill-rule="evenodd"/></svg>